  0
SECTION
  2
HEADER
  9
$ACADVER
  1
AC1009
  9
$EXTMIN
 10
0.0
 20
0.0
 30
0.0
  9
$EXTMAX
 10
1000.0
 20
1000.0
 30
0.0
  9
$FILLMODE
 70
 0
  9
$SPLFRAME
 70
 1
  0
ENDSEC
  0
SECTION
  2
TABLES
  0
TABLE
  2
LAYER
 70
1
  0
LAYER
  2
0
 70
     0
 62
     7
  6
CONTINUOUS
  0
ENDTAB
  0
ENDSEC
  0
SECTION
  2
ENTITIES
  0
LINE
  8
0
 62
     0
 10
462.77
 20
150.894
 30
0.0
 11
463.165
 21
150.879
 31
0.0
  0
LINE
  8
0
 62
     0
 10
463.165
 20
150.879
 30
0.0
 11
463.554
 21
150.832
 31
0.0
  0
LINE
  8
0
 62
     0
 10
463.554
 20
150.832
 30
0.0
 11
463.938
 21
150.756
 31
0.0
  0
LINE
  8
0
 62
     0
 10
463.938
 20
150.756
 30
0.0
 11
464.316
 21
150.65
 31
0.0
  0
LINE
  8
0
 62
     0
 10
464.316
 20
150.65
 30
0.0
 11
464.682
 21
150.513
 31
0.0
  0
LINE
  8
0
 62
     0
 10
464.682
 20
150.513
 30
0.0
 11
465.042
 21
150.35
 31
0.0
  0
LINE
  8
0
 62
     0
 10
465.042
 20
150.35
 30
0.0
 11
465.194
 21
150.264
 31
0.0
  0
LINE
  8
0
 62
     0
 10
465.194
 20
150.264
 30
0.0
 11
464.891
 21
150.107
 31
0.0
  0
LINE
  8
0
 62
     0
 10
464.891
 20
150.107
 30
0.0
 11
464.559
 21
149.775
 31
0.0
  0
LINE
  8
0
 62
     0
 10
464.559
 20
149.775
 30
0.0
 11
464.344
 21
149.357
 31
0.0
  0
LINE
  8
0
 62
     0
 10
464.344
 20
149.357
 30
0.0
 11
464.273
 21
148.893
 31
0.0
  0
LINE
  8
0
 62
     0
 10
464.273
 20
148.893
 30
0.0
 11
464.344
 21
148.43
 31
0.0
  0
LINE
  8
0
 62
     0
 10
464.344
 20
148.43
 30
0.0
 11
464.559
 21
148.012
 31
0.0
  0
LINE
  8
0
 62
     0
 10
464.559
 20
148.012
 30
0.0
 11
464.891
 21
147.68
 31
0.0
  0
LINE
  8
0
 62
     0
 10
464.891
 20
147.68
 30
0.0
 11
465.307
 21
147.468
 31
0.0
  0
LINE
  8
0
 62
     0
 10
465.307
 20
147.468
 30
0.0
 11
465.773
 21
147.394
 31
0.0
  0
LINE
  8
0
 62
     0
 10
465.773
 20
147.394
 30
0.0
 11
466.235
 21
147.468
 31
0.0
  0
LINE
  8
0
 62
     0
 10
466.235
 20
147.468
 30
0.0
 11
466.651
 21
147.68
 31
0.0
  0
LINE
  8
0
 62
     0
 10
466.651
 20
147.68
 30
0.0
 11
466.983
 21
148.012
 31
0.0
  0
LINE
  8
0
 62
     0
 10
466.983
 20
148.012
 30
0.0
 11
467.141
 21
148.317
 31
0.0
  0
LINE
  8
0
 62
     0
 10
467.141
 20
148.317
 30
0.0
 11
467.226
 21
148.164
 31
0.0
  0
LINE
  8
0
 62
     0
 10
467.226
 20
148.164
 30
0.0
 11
467.392
 21
147.807
 31
0.0
  0
LINE
  8
0
 62
     0
 10
467.392
 20
147.807
 30
0.0
 11
467.526
 21
147.439
 31
0.0
  0
LINE
  8
0
 62
     0
 10
467.526
 20
147.439
 30
0.0
 11
467.632
 21
147.061
 31
0.0
  0
LINE
  8
0
 62
     0
 10
467.632
 20
147.061
 30
0.0
 11
467.709
 21
146.677
 31
0.0
  0
LINE
  8
0
 62
     0
 10
467.709
 20
146.677
 30
0.0
 11
467.755
 21
146.287
 31
0.0
  0
LINE
  8
0
 62
     0
 10
467.755
 20
146.287
 30
0.0
 11
467.769
 21
145.893
 31
0.0
  0
LINE
  8
0
 62
     0
 10
467.769
 20
145.893
 30
0.0
 11
467.769
 21
5.30684
 31
0.0
  0
LINE
  8
0
 62
     0
 10
467.769
 20
5.30684
 30
0.0
 11
467.755
 21
4.91546
 31
0.0
  0
LINE
  8
0
 62
     0
 10
467.755
 20
4.91546
 30
0.0
 11
467.709
 21
4.52547
 31
0.0
  0
LINE
  8
0
 62
     0
 10
467.709
 20
4.52547
 30
0.0
 11
467.632
 21
4.14101
 31
0.0
  0
LINE
  8
0
 62
     0
 10
467.632
 20
4.14101
 30
0.0
 11
467.526
 21
3.76206
 31
0.0
  0
LINE
  8
0
 62
     0
 10
467.526
 20
3.76206
 30
0.0
 11
467.392
 21
3.39411
 31
0.0
  0
LINE
  8
0
 62
     0
 10
467.392
 20
3.39411
 30
0.0
 11
467.226
 21
3.03857
 31
0.0
  0
LINE
  8
0
 62
     0
 10
467.226
 20
3.03857
 30
0.0
 11
467.141
 21
2.88423
 31
0.0
  0
LINE
  8
0
 62
     0
 10
467.141
 20
2.88423
 30
0.0
 11
466.983
 21
3.18878
 31
0.0
  0
LINE
  8
0
 62
     0
 10
466.983
 20
3.18878
 30
0.0
 11
466.651
 21
3.52089
 31
0.0
  0
LINE
  8
0
 62
     0
 10
466.651
 20
3.52089
 30
0.0
 11
466.235
 21
3.73447
 31
0.0
  0
LINE
  8
0
 62
     0
 10
466.235
 20
3.73447
 30
0.0
 11
465.773
 21
3.80753
 31
0.0
  0
LINE
  8
0
 62
     0
 10
465.773
 20
3.80753
 30
0.0
 11
465.307
 21
3.73447
 31
0.0
  0
LINE
  8
0
 62
     0
 10
465.307
 20
3.73447
 30
0.0
 11
464.891
 21
3.52089
 31
0.0
  0
LINE
  8
0
 62
     0
 10
464.891
 20
3.52089
 30
0.0
 11
464.559
 21
3.18878
 31
0.0
  0
LINE
  8
0
 62
     0
 10
464.559
 20
3.18878
 30
0.0
 11
464.344
 21
2.77124
 31
0.0
  0
LINE
  8
0
 62
     0
 10
464.344
 20
2.77124
 30
0.0
 11
464.273
 21
2.30684
 31
0.0
  0
LINE
  8
0
 62
     0
 10
464.273
 20
2.30684
 30
0.0
 11
464.344
 21
1.84381
 31
0.0
  0
LINE
  8
0
 62
     0
 10
464.344
 20
1.84381
 30
0.0
 11
464.559
 21
1.42627
 31
0.0
  0
LINE
  8
0
 62
     0
 10
464.559
 20
1.42627
 30
0.0
 11
464.891
 21
1.09416
 31
0.0
  0
LINE
  8
0
 62
     0
 10
464.891
 20
1.09416
 30
0.0
 11
465.194
 21
0.938445
 31
0.0
  0
LINE
  8
0
 62
     0
 10
465.194
 20
0.938445
 30
0.0
 11
465.042
 21
0.853006
 31
0.0
  0
LINE
  8
0
 62
     0
 10
465.042
 20
0.853006
 30
0.0
 11
464.682
 21
0.689021
 31
0.0
  0
LINE
  8
0
 62
     0
 10
464.682
 20
0.689021
 30
0.0
 11
464.316
 21
0.552595
 31
0.0
  0
LINE
  8
0
 62
     0
 10
464.316
 20
0.552595
 30
0.0
 11
463.938
 21
0.446486
 31
0.0
  0
LINE
  8
0
 62
     0
 10
463.938
 20
0.446486
 30
0.0
 11
463.554
 21
0.369316
 31
0.0
  0
LINE
  8
0
 62
     0
 10
463.554
 20
0.369316
 30
0.0
 11
463.165
 21
0.323839
 31
0.0
  0
LINE
  8
0
 62
     0
 10
463.165
 20
0.323839
 30
0.0
 11
462.77
 21
0.307303
 31
0.0
  0
LINE
  8
0
 62
     0
 10
462.77
 20
0.307303
 30
0.0
 11
5.09598
 21
0.307303
 31
0.0
  0
LINE
  8
0
 62
     0
 10
5.09598
 20
0.307303
 30
0.0
 11
4.70186
 21
0.323839
 31
0.0
  0
LINE
  8
0
 62
     0
 10
4.70186
 20
0.323839
 30
0.0
 11
4.3119
 21
0.369316
 31
0.0
  0
LINE
  8
0
 62
     0
 10
4.3119
 20
0.369316
 30
0.0
 11
3.9274
 21
0.446486
 31
0.0
  0
LINE
  8
0
 62
     0
 10
3.9274
 20
0.446486
 30
0.0
 11
3.54983
 21
0.552595
 31
0.0
  0
LINE
  8
0
 62
     0
 10
3.54983
 20
0.552595
 30
0.0
 11
3.18189
 21
0.689021
 31
0.0
  0
LINE
  8
0
 62
     0
 10
3.18189
 20
0.689021
 30
0.0
 11
2.82498
 21
0.853006
 31
0.0
  0
LINE
  8
0
 62
     0
 10
2.82498
 20
0.853006
 30
0.0
 11
2.67202
 21
0.938445
 31
0.0
  0
LINE
  8
0
 62
     0
 10
2.67202
 20
0.938445
 30
0.0
 11
2.97656
 21
1.09416
 31
0.0
  0
LINE
  8
0
 62
     0
 10
2.97656
 20
1.09416
 30
0.0
 11
3.30867
 21
1.42627
 31
0.0
  0
LINE
  8
0
 62
     0
 10
3.30867
 20
1.42627
 30
0.0
 11
3.52089
 21
1.84381
 31
0.0
  0
LINE
  8
0
 62
     0
 10
3.52089
 20
1.84381
 30
0.0
 11
3.5953
 21
2.30684
 31
0.0
  0
LINE
  8
0
 62
     0
 10
3.5953
 20
2.30684
 30
0.0
 11
3.52089
 21
2.77124
 31
0.0
  0
LINE
  8
0
 62
     0
 10
3.52089
 20
2.77124
 30
0.0
 11
3.30867
 21
3.18878
 31
0.0
  0
LINE
  8
0
 62
     0
 10
3.30867
 20
3.18878
 30
0.0
 11
2.97656
 21
3.52089
 31
0.0
  0
LINE
  8
0
 62
     0
 10
2.97656
 20
3.52089
 30
0.0
 11
2.55902
 21
3.73447
 31
0.0
  0
LINE
  8
0
 62
     0
 10
2.55902
 20
3.73447
 30
0.0
 11
2.096
 21
3.80753
 31
0.0
  0
LINE
  8
0
 62
     0
 10
2.096
 20
3.80753
 30
0.0
 11
1.6316
 21
3.73447
 31
0.0
  0
LINE
  8
0
 62
     0
 10
1.6316
 20
3.73447
 30
0.0
 11
1.21405
 21
3.52089
 31
0.0
  0
LINE
  8
0
 62
     0
 10
1.21405
 20
3.52089
 30
0.0
 11
0.881944
 21
3.18878
 31
0.0
  0
LINE
  8
0
 62
     0
 10
0.881944
 20
3.18878
 30
0.0
 11
0.724849
 21
2.88423
 31
0.0
  0
LINE
  8
0
 62
     0
 10
0.724849
 20
2.88423
 30
0.0
 11
0.63941
 21
3.03857
 31
0.0
  0
LINE
  8
0
 62
     0
 10
0.63941
 20
3.03857
 30
0.0
 11
0.475424
 21
3.39411
 31
0.0
  0
LINE
  8
0
 62
     0
 10
0.475424
 20
3.39411
 30
0.0
 11
0.338998
 21
3.76206
 31
0.0
  0
LINE
  8
0
 62
     0
 10
0.338998
 20
3.76206
 30
0.0
 11
0.232888
 21
4.14101
 31
0.0
  0
LINE
  8
0
 62
     0
 10
0.232888
 20
4.14101
 30
0.0
 11
0.157097
 21
4.52547
 31
0.0
  0
LINE
  8
0
 62
     0
 10
0.157097
 20
4.52547
 30
0.0
 11
0.110243
 21
4.91546
 31
0.0
  0
LINE
  8
0
 62
     0
 10
0.110243
 20
4.91546
 30
0.0
 11
0.0950846
 21
5.30821
 31
0.0
  0
LINE
  8
0
 62
     0
 10
0.0950846
 20
5.30821
 30
0.0
 11
0.0950846
 21
145.893
 31
0.0
  0
LINE
  8
0
 62
     0
 10
0.0950846
 20
145.893
 30
0.0
 11
0.110243
 21
146.287
 31
0.0
  0
LINE
  8
0
 62
     0
 10
0.110243
 20
146.287
 30
0.0
 11
0.157097
 21
146.677
 31
0.0
  0
LINE
  8
0
 62
     0
 10
0.157097
 20
146.677
 30
0.0
 11
0.232888
 21
147.061
 31
0.0
  0
LINE
  8
0
 62
     0
 10
0.232888
 20
147.061
 30
0.0
 11
0.338998
 21
147.439
 31
0.0
  0
LINE
  8
0
 62
     0
 10
0.338998
 20
147.439
 30
0.0
 11
0.475424
 21
147.807
 31
0.0
  0
LINE
  8
0
 62
     0
 10
0.475424
 20
147.807
 30
0.0
 11
0.63941
 21
148.164
 31
0.0
  0
LINE
  8
0
 62
     0
 10
0.63941
 20
148.164
 30
0.0
 11
0.724849
 21
148.317
 31
0.0
  0
LINE
  8
0
 62
     0
 10
0.724849
 20
148.317
 30
0.0
 11
0.881944
 21
148.012
 31
0.0
  0
LINE
  8
0
 62
     0
 10
0.881944
 20
148.012
 30
0.0
 11
1.21405
 21
147.68
 31
0.0
  0
LINE
  8
0
 62
     0
 10
1.21405
 20
147.68
 30
0.0
 11
1.6316
 21
147.468
 31
0.0
  0
LINE
  8
0
 62
     0
 10
1.6316
 20
147.468
 30
0.0
 11
2.096
 21
147.394
 31
0.0
  0
LINE
  8
0
 62
     0
 10
2.096
 20
147.394
 30
0.0
 11
2.55902
 21
147.468
 31
0.0
  0
LINE
  8
0
 62
     0
 10
2.55902
 20
147.468
 30
0.0
 11
2.97656
 21
147.68
 31
0.0
  0
LINE
  8
0
 62
     0
 10
2.97656
 20
147.68
 30
0.0
 11
3.30867
 21
148.012
 31
0.0
  0
LINE
  8
0
 62
     0
 10
3.30867
 20
148.012
 30
0.0
 11
3.52089
 21
148.43
 31
0.0
  0
LINE
  8
0
 62
     0
 10
3.52089
 20
148.43
 30
0.0
 11
3.5953
 21
148.893
 31
0.0
  0
LINE
  8
0
 62
     0
 10
3.5953
 20
148.893
 30
0.0
 11
3.52089
 21
149.357
 31
0.0
  0
LINE
  8
0
 62
     0
 10
3.52089
 20
149.357
 30
0.0
 11
3.30867
 21
149.775
 31
0.0
  0
LINE
  8
0
 62
     0
 10
3.30867
 20
149.775
 30
0.0
 11
2.97656
 21
150.107
 31
0.0
  0
LINE
  8
0
 62
     0
 10
2.97656
 20
150.107
 30
0.0
 11
2.67202
 21
150.264
 31
0.0
  0
LINE
  8
0
 62
     0
 10
2.67202
 20
150.264
 30
0.0
 11
2.82498
 21
150.35
 31
0.0
  0
LINE
  8
0
 62
     0
 10
2.82498
 20
150.35
 30
0.0
 11
3.18189
 21
150.513
 31
0.0
  0
LINE
  8
0
 62
     0
 10
3.18189
 20
150.513
 30
0.0
 11
3.54983
 21
150.65
 31
0.0
  0
LINE
  8
0
 62
     0
 10
3.54983
 20
150.65
 30
0.0
 11
3.9274
 21
150.756
 31
0.0
  0
LINE
  8
0
 62
     0
 10
3.9274
 20
150.756
 30
0.0
 11
4.3119
 21
150.832
 31
0.0
  0
LINE
  8
0
 62
     0
 10
4.3119
 20
150.832
 30
0.0
 11
4.70186
 21
150.879
 31
0.0
  0
LINE
  8
0
 62
     0
 10
4.70186
 20
150.879
 30
0.0
 11
5.09598
 21
150.894
 31
0.0
  0
LINE
  8
0
 62
     0
 10
5.09598
 20
150.894
 30
0.0
 11
462.77
 21
150.894
 31
0.0
  0
LINE
  8
0
 62
     0
 10
94.3666
 20
3.73447
 30
0.0
 11
93.9493
 21
3.52089
 31
0.0
  0
LINE
  8
0
 62
     0
 10
93.9493
 20
3.52089
 30
0.0
 11
93.617
 21
3.18878
 31
0.0
  0
LINE
  8
0
 62
     0
 10
93.617
 20
3.18878
 30
0.0
 11
93.4036
 21
2.77124
 31
0.0
  0
LINE
  8
0
 62
     0
 10
93.4036
 20
2.77124
 30
0.0
 11
93.3305
 21
2.30684
 31
0.0
  0
LINE
  8
0
 62
     0
 10
93.3305
 20
2.30684
 30
0.0
 11
93.4036
 21
1.84381
 31
0.0
  0
LINE
  8
0
 62
     0
 10
93.4036
 20
1.84381
 30
0.0
 11
93.617
 21
1.42627
 31
0.0
  0
LINE
  8
0
 62
     0
 10
93.617
 20
1.42627
 30
0.0
 11
93.9493
 21
1.09416
 31
0.0
  0
LINE
  8
0
 62
     0
 10
93.9493
 20
1.09416
 30
0.0
 11
94.3666
 21
0.881944
 31
0.0
  0
LINE
  8
0
 62
     0
 10
94.3666
 20
0.881944
 30
0.0
 11
94.8312
 21
0.80753
 31
0.0
  0
LINE
  8
0
 62
     0
 10
94.8312
 20
0.80753
 30
0.0
 11
95.2941
 21
0.881944
 31
0.0
  0
LINE
  8
0
 62
     0
 10
95.2941
 20
0.881944
 30
0.0
 11
95.7118
 21
1.09416
 31
0.0
  0
LINE
  8
0
 62
     0
 10
95.7118
 20
1.09416
 30
0.0
 11
96.0438
 21
1.42627
 31
0.0
  0
LINE
  8
0
 62
     0
 10
96.0438
 20
1.42627
 30
0.0
 11
96.2561
 21
1.84381
 31
0.0
  0
LINE
  8
0
 62
     0
 10
96.2561
 20
1.84381
 30
0.0
 11
96.3306
 21
2.30684
 31
0.0
  0
LINE
  8
0
 62
     0
 10
96.3306
 20
2.30684
 30
0.0
 11
96.2561
 21
2.77124
 31
0.0
  0
LINE
  8
0
 62
     0
 10
96.2561
 20
2.77124
 30
0.0
 11
96.0438
 21
3.18878
 31
0.0
  0
LINE
  8
0
 62
     0
 10
96.0438
 20
3.18878
 30
0.0
 11
95.7118
 21
3.52089
 31
0.0
  0
LINE
  8
0
 62
     0
 10
95.7118
 20
3.52089
 30
0.0
 11
95.2941
 21
3.73447
 31
0.0
  0
LINE
  8
0
 62
     0
 10
95.2941
 20
3.73447
 30
0.0
 11
94.8312
 21
3.80753
 31
0.0
  0
LINE
  8
0
 62
     0
 10
94.8312
 20
3.80753
 30
0.0
 11
94.3666
 21
3.73447
 31
0.0
  0
LINE
  8
0
 62
     0
 10
187.102
 20
3.73447
 30
0.0
 11
186.683
 21
3.52089
 31
0.0
  0
LINE
  8
0
 62
     0
 10
186.683
 20
3.52089
 30
0.0
 11
186.352
 21
3.18878
 31
0.0
  0
LINE
  8
0
 62
     0
 10
186.352
 20
3.18878
 30
0.0
 11
186.139
 21
2.77124
 31
0.0
  0
LINE
  8
0
 62
     0
 10
186.139
 20
2.77124
 30
0.0
 11
186.066
 21
2.30684
 31
0.0
  0
LINE
  8
0
 62
     0
 10
186.066
 20
2.30684
 30
0.0
 11
186.139
 21
1.84381
 31
0.0
  0
LINE
  8
0
 62
     0
 10
186.139
 20
1.84381
 30
0.0
 11
186.352
 21
1.42627
 31
0.0
  0
LINE
  8
0
 62
     0
 10
186.352
 20
1.42627
 30
0.0
 11
186.683
 21
1.09416
 31
0.0
  0
LINE
  8
0
 62
     0
 10
186.683
 20
1.09416
 30
0.0
 11
187.102
 21
0.881944
 31
0.0
  0
LINE
  8
0
 62
     0
 10
187.102
 20
0.881944
 30
0.0
 11
187.566
 21
0.80753
 31
0.0
  0
LINE
  8
0
 62
     0
 10
187.566
 20
0.80753
 30
0.0
 11
188.029
 21
0.881944
 31
0.0
  0
LINE
  8
0
 62
     0
 10
188.029
 20
0.881944
 30
0.0
 11
188.448
 21
1.09416
 31
0.0
  0
LINE
  8
0
 62
     0
 10
188.448
 20
1.09416
 30
0.0
 11
188.779
 21
1.42627
 31
0.0
  0
LINE
  8
0
 62
     0
 10
188.779
 20
1.42627
 30
0.0
 11
188.991
 21
1.84381
 31
0.0
  0
LINE
  8
0
 62
     0
 10
188.991
 20
1.84381
 30
0.0
 11
189.066
 21
2.30684
 31
0.0
  0
LINE
  8
0
 62
     0
 10
189.066
 20
2.30684
 30
0.0
 11
188.991
 21
2.77124
 31
0.0
  0
LINE
  8
0
 62
     0
 10
188.991
 20
2.77124
 30
0.0
 11
188.779
 21
3.18878
 31
0.0
  0
LINE
  8
0
 62
     0
 10
188.779
 20
3.18878
 30
0.0
 11
188.448
 21
3.52089
 31
0.0
  0
LINE
  8
0
 62
     0
 10
188.448
 20
3.52089
 30
0.0
 11
188.029
 21
3.73447
 31
0.0
  0
LINE
  8
0
 62
     0
 10
188.029
 20
3.73447
 30
0.0
 11
187.566
 21
3.80753
 31
0.0
  0
LINE
  8
0
 62
     0
 10
187.566
 20
3.80753
 30
0.0
 11
187.102
 21
3.73447
 31
0.0
  0
LINE
  8
0
 62
     0
 10
279.837
 20
3.73447
 30
0.0
 11
279.418
 21
3.52089
 31
0.0
  0
LINE
  8
0
 62
     0
 10
279.418
 20
3.52089
 30
0.0
 11
279.087
 21
3.18878
 31
0.0
  0
LINE
  8
0
 62
     0
 10
279.087
 20
3.18878
 30
0.0
 11
278.875
 21
2.77124
 31
0.0
  0
LINE
  8
0
 62
     0
 10
278.875
 20
2.77124
 30
0.0
 11
278.801
 21
2.30684
 31
0.0
  0
LINE
  8
0
 62
     0
 10
278.801
 20
2.30684
 30
0.0
 11
278.875
 21
1.84381
 31
0.0
  0
LINE
  8
0
 62
     0
 10
278.875
 20
1.84381
 30
0.0
 11
279.087
 21
1.42627
 31
0.0
  0
LINE
  8
0
 62
     0
 10
279.087
 20
1.42627
 30
0.0
 11
279.418
 21
1.09416
 31
0.0
  0
LINE
  8
0
 62
     0
 10
279.418
 20
1.09416
 30
0.0
 11
279.837
 21
0.881944
 31
0.0
  0
LINE
  8
0
 62
     0
 10
279.837
 20
0.881944
 30
0.0
 11
280.3
 21
0.80753
 31
0.0
  0
LINE
  8
0
 62
     0
 10
280.3
 20
0.80753
 30
0.0
 11
280.764
 21
0.881944
 31
0.0
  0
LINE
  8
0
 62
     0
 10
280.764
 20
0.881944
 30
0.0
 11
281.182
 21
1.09416
 31
0.0
  0
LINE
  8
0
 62
     0
 10
281.182
 20
1.09416
 30
0.0
 11
281.514
 21
1.42627
 31
0.0
  0
LINE
  8
0
 62
     0
 10
281.514
 20
1.42627
 30
0.0
 11
281.728
 21
1.84381
 31
0.0
  0
LINE
  8
0
 62
     0
 10
281.728
 20
1.84381
 30
0.0
 11
281.801
 21
2.30684
 31
0.0
  0
LINE
  8
0
 62
     0
 10
281.801
 20
2.30684
 30
0.0
 11
281.728
 21
2.77124
 31
0.0
  0
LINE
  8
0
 62
     0
 10
281.728
 20
2.77124
 30
0.0
 11
281.514
 21
3.18878
 31
0.0
  0
LINE
  8
0
 62
     0
 10
281.514
 20
3.18878
 30
0.0
 11
281.182
 21
3.52089
 31
0.0
  0
LINE
  8
0
 62
     0
 10
281.182
 20
3.52089
 30
0.0
 11
280.764
 21
3.73447
 31
0.0
  0
LINE
  8
0
 62
     0
 10
280.764
 20
3.73447
 30
0.0
 11
280.3
 21
3.80753
 31
0.0
  0
LINE
  8
0
 62
     0
 10
280.3
 20
3.80753
 30
0.0
 11
279.837
 21
3.73447
 31
0.0
  0
LINE
  8
0
 62
     0
 10
372.572
 20
3.73447
 30
0.0
 11
372.156
 21
3.52089
 31
0.0
  0
LINE
  8
0
 62
     0
 10
372.156
 20
3.52089
 30
0.0
 11
371.821
 21
3.18878
 31
0.0
  0
LINE
  8
0
 62
     0
 10
371.821
 20
3.18878
 30
0.0
 11
371.609
 21
2.77124
 31
0.0
  0
LINE
  8
0
 62
     0
 10
371.609
 20
2.77124
 30
0.0
 11
371.535
 21
2.30684
 31
0.0
  0
LINE
  8
0
 62
     0
 10
371.535
 20
2.30684
 30
0.0
 11
371.609
 21
1.84381
 31
0.0
  0
LINE
  8
0
 62
     0
 10
371.609
 20
1.84381
 30
0.0
 11
371.821
 21
1.42627
 31
0.0
  0
LINE
  8
0
 62
     0
 10
371.821
 20
1.42627
 30
0.0
 11
372.156
 21
1.09416
 31
0.0
  0
LINE
  8
0
 62
     0
 10
372.156
 20
1.09416
 30
0.0
 11
372.572
 21
0.881944
 31
0.0
  0
LINE
  8
0
 62
     0
 10
372.572
 20
0.881944
 30
0.0
 11
373.034
 21
0.80753
 31
0.0
  0
LINE
  8
0
 62
     0
 10
373.034
 20
0.80753
 30
0.0
 11
373.5
 21
0.881944
 31
0.0
  0
LINE
  8
0
 62
     0
 10
373.5
 20
0.881944
 30
0.0
 11
373.916
 21
1.09416
 31
0.0
  0
LINE
  8
0
 62
     0
 10
373.916
 20
1.09416
 30
0.0
 11
374.248
 21
1.42627
 31
0.0
  0
LINE
  8
0
 62
     0
 10
374.248
 20
1.42627
 30
0.0
 11
374.463
 21
1.84381
 31
0.0
  0
LINE
  8
0
 62
     0
 10
374.463
 20
1.84381
 30
0.0
 11
374.537
 21
2.30684
 31
0.0
  0
LINE
  8
0
 62
     0
 10
374.537
 20
2.30684
 30
0.0
 11
374.463
 21
2.77124
 31
0.0
  0
LINE
  8
0
 62
     0
 10
374.463
 20
2.77124
 30
0.0
 11
374.248
 21
3.18878
 31
0.0
  0
LINE
  8
0
 62
     0
 10
374.248
 20
3.18878
 30
0.0
 11
373.916
 21
3.52089
 31
0.0
  0
LINE
  8
0
 62
     0
 10
373.916
 20
3.52089
 30
0.0
 11
373.5
 21
3.73447
 31
0.0
  0
LINE
  8
0
 62
     0
 10
373.5
 20
3.73447
 30
0.0
 11
373.034
 21
3.80753
 31
0.0
  0
LINE
  8
0
 62
     0
 10
373.034
 20
3.80753
 30
0.0
 11
372.572
 21
3.73447
 31
0.0
  0
LINE
  8
0
 62
     0
 10
393.619
 20
38.5932
 30
0.0
 11
393.619
 21
37.9938
 31
0.0
  0
LINE
  8
0
 62
     0
 10
393.619
 20
37.9938
 30
0.0
 11
392.818
 21
37.9938
 31
0.0
  0
LINE
  8
0
 62
     0
 10
392.818
 20
37.9938
 30
0.0
 11
392.818
 21
33.8928
 31
0.0
  0
LINE
  8
0
 62
     0
 10
392.818
 20
33.8928
 30
0.0
 11
392.095
 21
33.8928
 31
0.0
  0
LINE
  8
0
 62
     0
 10
392.095
 20
33.8928
 30
0.0
 11
392.095
 21
37.1228
 31
0.0
  0
LINE
  8
0
 62
     0
 10
392.095
 20
37.1228
 30
0.0
 11
390.37
 21
37.1228
 31
0.0
  0
LINE
  8
0
 62
     0
 10
390.37
 20
37.1228
 30
0.0
 11
390.37
 21
38.0436
 31
0.0
  0
LINE
  8
0
 62
     0
 10
390.37
 20
38.0436
 30
0.0
 11
387.068
 21
38.0436
 31
0.0
  0
LINE
  8
0
 62
     0
 10
387.068
 20
38.0436
 30
0.0
 11
387.068
 21
37.1228
 31
0.0
  0
LINE
  8
0
 62
     0
 10
387.068
 20
37.1228
 30
0.0
 11
385.346
 21
37.1228
 31
0.0
  0
LINE
  8
0
 62
     0
 10
385.346
 20
37.1228
 30
0.0
 11
385.346
 21
33.8928
 31
0.0
  0
LINE
  8
0
 62
     0
 10
385.346
 20
33.8928
 30
0.0
 11
384.521
 21
33.8928
 31
0.0
  0
LINE
  8
0
 62
     0
 10
384.521
 20
33.8928
 30
0.0
 11
384.521
 21
31.094
 31
0.0
  0
LINE
  8
0
 62
     0
 10
384.521
 20
31.094
 30
0.0
 11
385.346
 21
31.094
 31
0.0
  0
LINE
  8
0
 62
     0
 10
385.346
 20
31.094
 30
0.0
 11
385.346
 21
24.824
 31
0.0
  0
LINE
  8
0
 62
     0
 10
385.346
 20
24.824
 30
0.0
 11
387.068
 21
24.824
 31
0.0
  0
LINE
  8
0
 62
     0
 10
387.068
 20
24.824
 30
0.0
 11
387.068
 21
23.8428
 31
0.0
  0
LINE
  8
0
 62
     0
 10
387.068
 20
23.8428
 30
0.0
 11
390.37
 21
23.8428
 31
0.0
  0
LINE
  8
0
 62
     0
 10
390.37
 20
23.8428
 30
0.0
 11
390.37
 21
24.824
 31
0.0
  0
LINE
  8
0
 62
     0
 10
390.37
 20
24.824
 30
0.0
 11
392.095
 21
24.824
 31
0.0
  0
LINE
  8
0
 62
     0
 10
392.095
 20
24.824
 30
0.0
 11
392.095
 21
29.293
 31
0.0
  0
LINE
  8
0
 62
     0
 10
392.095
 20
29.293
 30
0.0
 11
392.818
 21
29.293
 31
0.0
  0
LINE
  8
0
 62
     0
 10
392.818
 20
29.293
 30
0.0
 11
392.818
 21
25.1947
 31
0.0
  0
LINE
  8
0
 62
     0
 10
392.818
 20
25.1947
 30
0.0
 11
393.619
 21
25.1947
 31
0.0
  0
LINE
  8
0
 62
     0
 10
393.619
 20
25.1947
 30
0.0
 11
393.619
 21
24.5938
 31
0.0
  0
LINE
  8
0
 62
     0
 10
393.619
 20
24.5938
 30
0.0
 11
407.621
 21
24.5938
 31
0.0
  0
LINE
  8
0
 62
     0
 10
407.621
 20
24.5938
 30
0.0
 11
407.621
 21
25.1947
 31
0.0
  0
LINE
  8
0
 62
     0
 10
407.621
 20
25.1947
 30
0.0
 11
408.421
 21
25.1947
 31
0.0
  0
LINE
  8
0
 62
     0
 10
408.421
 20
25.1947
 30
0.0
 11
408.421
 21
29.293
 31
0.0
  0
LINE
  8
0
 62
     0
 10
408.421
 20
29.293
 30
0.0
 11
409.145
 21
29.293
 31
0.0
  0
LINE
  8
0
 62
     0
 10
409.145
 20
29.293
 30
0.0
 11
409.145
 21
24.824
 31
0.0
  0
LINE
  8
0
 62
     0
 10
409.145
 20
24.824
 30
0.0
 11
410.87
 21
24.824
 31
0.0
  0
LINE
  8
0
 62
     0
 10
410.87
 20
24.824
 30
0.0
 11
410.87
 21
23.8428
 31
0.0
  0
LINE
  8
0
 62
     0
 10
410.87
 20
23.8428
 30
0.0
 11
414.172
 21
23.8428
 31
0.0
  0
LINE
  8
0
 62
     0
 10
414.172
 20
23.8428
 30
0.0
 11
414.172
 21
24.824
 31
0.0
  0
LINE
  8
0
 62
     0
 10
414.172
 20
24.824
 30
0.0
 11
415.893
 21
24.824
 31
0.0
  0
LINE
  8
0
 62
     0
 10
415.893
 20
24.824
 30
0.0
 11
415.893
 21
31.094
 31
0.0
  0
LINE
  8
0
 62
     0
 10
415.893
 20
31.094
 30
0.0
 11
416.719
 21
31.094
 31
0.0
  0
LINE
  8
0
 62
     0
 10
416.719
 20
31.094
 30
0.0
 11
416.719
 21
33.8928
 31
0.0
  0
LINE
  8
0
 62
     0
 10
416.719
 20
33.8928
 30
0.0
 11
415.893
 21
33.8928
 31
0.0
  0
LINE
  8
0
 62
     0
 10
415.893
 20
33.8928
 30
0.0
 11
415.893
 21
37.1228
 31
0.0
  0
LINE
  8
0
 62
     0
 10
415.893
 20
37.1228
 30
0.0
 11
414.172
 21
37.1228
 31
0.0
  0
LINE
  8
0
 62
     0
 10
414.172
 20
37.1228
 30
0.0
 11
414.172
 21
38.0436
 31
0.0
  0
LINE
  8
0
 62
     0
 10
414.172
 20
38.0436
 30
0.0
 11
410.87
 21
38.0436
 31
0.0
  0
LINE
  8
0
 62
     0
 10
410.87
 20
38.0436
 30
0.0
 11
410.87
 21
37.1228
 31
0.0
  0
LINE
  8
0
 62
     0
 10
410.87
 20
37.1228
 30
0.0
 11
409.145
 21
37.1228
 31
0.0
  0
LINE
  8
0
 62
     0
 10
409.145
 20
37.1228
 30
0.0
 11
409.145
 21
33.8928
 31
0.0
  0
LINE
  8
0
 62
     0
 10
409.145
 20
33.8928
 30
0.0
 11
408.421
 21
33.8928
 31
0.0
  0
LINE
  8
0
 62
     0
 10
408.421
 20
33.8928
 30
0.0
 11
408.421
 21
37.9938
 31
0.0
  0
LINE
  8
0
 62
     0
 10
408.421
 20
37.9938
 30
0.0
 11
407.621
 21
37.9938
 31
0.0
  0
LINE
  8
0
 62
     0
 10
407.621
 20
37.9938
 30
0.0
 11
407.621
 21
38.5932
 31
0.0
  0
LINE
  8
0
 62
     0
 10
407.621
 20
38.5932
 30
0.0
 11
393.619
 21
38.5932
 31
0.0
  0
LINE
  8
0
 62
     0
 10
150.732
 20
38.5932
 30
0.0
 11
150.732
 21
37.9938
 31
0.0
  0
LINE
  8
0
 62
     0
 10
150.732
 20
37.9938
 30
0.0
 11
149.932
 21
37.9938
 31
0.0
  0
LINE
  8
0
 62
     0
 10
149.932
 20
37.9938
 30
0.0
 11
149.932
 21
33.8928
 31
0.0
  0
LINE
  8
0
 62
     0
 10
149.932
 20
33.8928
 30
0.0
 11
103.958
 21
33.8928
 31
0.0
  0
LINE
  8
0
 62
     0
 10
103.958
 20
33.8928
 30
0.0
 11
103.958
 21
37.1228
 31
0.0
  0
LINE
  8
0
 62
     0
 10
103.958
 20
37.1228
 30
0.0
 11
102.233
 21
37.1228
 31
0.0
  0
LINE
  8
0
 62
     0
 10
102.233
 20
37.1228
 30
0.0
 11
102.233
 21
38.0436
 31
0.0
  0
LINE
  8
0
 62
     0
 10
102.233
 20
38.0436
 30
0.0
 11
98.9323
 21
38.0436
 31
0.0
  0
LINE
  8
0
 62
     0
 10
98.9323
 20
38.0436
 30
0.0
 11
98.9323
 21
37.1228
 31
0.0
  0
LINE
  8
0
 62
     0
 10
98.9323
 20
37.1228
 30
0.0
 11
97.2069
 21
37.1228
 31
0.0
  0
LINE
  8
0
 62
     0
 10
97.2069
 20
37.1228
 30
0.0
 11
97.2069
 21
33.8928
 31
0.0
  0
LINE
  8
0
 62
     0
 10
97.2069
 20
33.8928
 30
0.0
 11
96.3828
 21
33.8928
 31
0.0
  0
LINE
  8
0
 62
     0
 10
96.3828
 20
33.8928
 30
0.0
 11
96.3828
 21
31.094
 31
0.0
  0
LINE
  8
0
 62
     0
 10
96.3828
 20
31.094
 30
0.0
 11
97.2069
 21
31.094
 31
0.0
  0
LINE
  8
0
 62
     0
 10
97.2069
 20
31.094
 30
0.0
 11
97.2069
 21
24.824
 31
0.0
  0
LINE
  8
0
 62
     0
 10
97.2069
 20
24.824
 30
0.0
 11
98.9323
 21
24.824
 31
0.0
  0
LINE
  8
0
 62
     0
 10
98.9323
 20
24.824
 30
0.0
 11
98.9323
 21
23.8428
 31
0.0
  0
LINE
  8
0
 62
     0
 10
98.9323
 20
23.8428
 30
0.0
 11
102.233
 21
23.8428
 31
0.0
  0
LINE
  8
0
 62
     0
 10
102.233
 20
23.8428
 30
0.0
 11
102.233
 21
24.824
 31
0.0
  0
LINE
  8
0
 62
     0
 10
102.233
 20
24.824
 30
0.0
 11
103.958
 21
24.824
 31
0.0
  0
LINE
  8
0
 62
     0
 10
103.958
 20
24.824
 30
0.0
 11
103.958
 21
29.293
 31
0.0
  0
LINE
  8
0
 62
     0
 10
103.958
 20
29.293
 30
0.0
 11
149.932
 21
29.293
 31
0.0
  0
LINE
  8
0
 62
     0
 10
149.932
 20
29.293
 30
0.0
 11
149.932
 21
25.1947
 31
0.0
  0
LINE
  8
0
 62
     0
 10
149.932
 20
25.1947
 30
0.0
 11
150.732
 21
25.1947
 31
0.0
  0
LINE
  8
0
 62
     0
 10
150.732
 20
25.1947
 30
0.0
 11
150.732
 21
24.5938
 31
0.0
  0
LINE
  8
0
 62
     0
 10
150.732
 20
24.5938
 30
0.0
 11
164.732
 21
24.5938
 31
0.0
  0
LINE
  8
0
 62
     0
 10
164.732
 20
24.5938
 30
0.0
 11
164.732
 21
25.1947
 31
0.0
  0
LINE
  8
0
 62
     0
 10
164.732
 20
25.1947
 30
0.0
 11
165.533
 21
25.1947
 31
0.0
  0
LINE
  8
0
 62
     0
 10
165.533
 20
25.1947
 30
0.0
 11
165.533
 21
29.293
 31
0.0
  0
LINE
  8
0
 62
     0
 10
165.533
 20
29.293
 30
0.0
 11
211.507
 21
29.293
 31
0.0
  0
LINE
  8
0
 62
     0
 10
211.507
 20
29.293
 30
0.0
 11
211.507
 21
24.824
 31
0.0
  0
LINE
  8
0
 62
     0
 10
211.507
 20
24.824
 30
0.0
 11
213.232
 21
24.824
 31
0.0
  0
LINE
  8
0
 62
     0
 10
213.232
 20
24.824
 30
0.0
 11
213.232
 21
23.8428
 31
0.0
  0
LINE
  8
0
 62
     0
 10
213.232
 20
23.8428
 30
0.0
 11
216.533
 21
23.8428
 31
0.0
  0
LINE
  8
0
 62
     0
 10
216.533
 20
23.8428
 30
0.0
 11
216.533
 21
24.824
 31
0.0
  0
LINE
  8
0
 62
     0
 10
216.533
 20
24.824
 30
0.0
 11
218.258
 21
24.824
 31
0.0
  0
LINE
  8
0
 62
     0
 10
218.258
 20
24.824
 30
0.0
 11
218.258
 21
31.094
 31
0.0
  0
LINE
  8
0
 62
     0
 10
218.258
 20
31.094
 30
0.0
 11
219.082
 21
31.094
 31
0.0
  0
LINE
  8
0
 62
     0
 10
219.082
 20
31.094
 30
0.0
 11
219.082
 21
33.8928
 31
0.0
  0
LINE
  8
0
 62
     0
 10
219.082
 20
33.8928
 30
0.0
 11
218.258
 21
33.8928
 31
0.0
  0
LINE
  8
0
 62
     0
 10
218.258
 20
33.8928
 30
0.0
 11
218.258
 21
37.1228
 31
0.0
  0
LINE
  8
0
 62
     0
 10
218.258
 20
37.1228
 30
0.0
 11
216.533
 21
37.1228
 31
0.0
  0
LINE
  8
0
 62
     0
 10
216.533
 20
37.1228
 30
0.0
 11
216.533
 21
38.0436
 31
0.0
  0
LINE
  8
0
 62
     0
 10
216.533
 20
38.0436
 30
0.0
 11
213.232
 21
38.0436
 31
0.0
  0
LINE
  8
0
 62
     0
 10
213.232
 20
38.0436
 30
0.0
 11
213.232
 21
37.1228
 31
0.0
  0
LINE
  8
0
 62
     0
 10
213.232
 20
37.1228
 30
0.0
 11
211.507
 21
37.1228
 31
0.0
  0
LINE
  8
0
 62
     0
 10
211.507
 20
37.1228
 30
0.0
 11
211.507
 21
33.8928
 31
0.0
  0
LINE
  8
0
 62
     0
 10
211.507
 20
33.8928
 30
0.0
 11
165.533
 21
33.8928
 31
0.0
  0
LINE
  8
0
 62
     0
 10
165.533
 20
33.8928
 30
0.0
 11
165.533
 21
37.9938
 31
0.0
  0
LINE
  8
0
 62
     0
 10
165.533
 20
37.9938
 30
0.0
 11
164.732
 21
37.9938
 31
0.0
  0
LINE
  8
0
 62
     0
 10
164.732
 20
37.9938
 30
0.0
 11
164.732
 21
38.5932
 31
0.0
  0
LINE
  8
0
 62
     0
 10
164.732
 20
38.5932
 30
0.0
 11
150.732
 21
38.5932
 31
0.0
  0
LINE
  8
0
 62
     0
 10
422.194
 20
38.5932
 30
0.0
 11
422.194
 21
37.9938
 31
0.0
  0
LINE
  8
0
 62
     0
 10
422.194
 20
37.9938
 30
0.0
 11
421.393
 21
37.9938
 31
0.0
  0
LINE
  8
0
 62
     0
 10
421.393
 20
37.9938
 30
0.0
 11
421.393
 21
25.1947
 31
0.0
  0
LINE
  8
0
 62
     0
 10
421.393
 20
25.1947
 30
0.0
 11
422.194
 21
25.1947
 31
0.0
  0
LINE
  8
0
 62
     0
 10
422.194
 20
25.1947
 30
0.0
 11
422.194
 21
24.5938
 31
0.0
  0
LINE
  8
0
 62
     0
 10
422.194
 20
24.5938
 30
0.0
 11
436.196
 21
24.5938
 31
0.0
  0
LINE
  8
0
 62
     0
 10
436.196
 20
24.5938
 30
0.0
 11
436.196
 21
25.1947
 31
0.0
  0
LINE
  8
0
 62
     0
 10
436.196
 20
25.1947
 30
0.0
 11
436.996
 21
25.1947
 31
0.0
  0
LINE
  8
0
 62
     0
 10
436.996
 20
25.1947
 30
0.0
 11
436.996
 21
37.9938
 31
0.0
  0
LINE
  8
0
 62
     0
 10
436.996
 20
37.9938
 30
0.0
 11
436.196
 21
37.9938
 31
0.0
  0
LINE
  8
0
 62
     0
 10
436.196
 20
37.9938
 30
0.0
 11
436.196
 21
38.5932
 31
0.0
  0
LINE
  8
0
 62
     0
 10
436.196
 20
38.5932
 30
0.0
 11
422.194
 21
38.5932
 31
0.0
  0
LINE
  8
0
 62
     0
 10
272.176
 20
38.5932
 30
0.0
 11
272.176
 21
37.9938
 31
0.0
  0
LINE
  8
0
 62
     0
 10
272.176
 20
37.9938
 30
0.0
 11
271.377
 21
37.9938
 31
0.0
  0
LINE
  8
0
 62
     0
 10
271.377
 20
37.9938
 30
0.0
 11
271.377
 21
25.1947
 31
0.0
  0
LINE
  8
0
 62
     0
 10
271.377
 20
25.1947
 30
0.0
 11
272.176
 21
25.1947
 31
0.0
  0
LINE
  8
0
 62
     0
 10
272.176
 20
25.1947
 30
0.0
 11
272.176
 21
24.5938
 31
0.0
  0
LINE
  8
0
 62
     0
 10
272.176
 20
24.5938
 30
0.0
 11
286.176
 21
24.5938
 31
0.0
  0
LINE
  8
0
 62
     0
 10
286.176
 20
24.5938
 30
0.0
 11
286.176
 21
25.1947
 31
0.0
  0
LINE
  8
0
 62
     0
 10
286.176
 20
25.1947
 30
0.0
 11
286.977
 21
25.1947
 31
0.0
  0
LINE
  8
0
 62
     0
 10
286.977
 20
25.1947
 30
0.0
 11
286.977
 21
37.9938
 31
0.0
  0
LINE
  8
0
 62
     0
 10
286.977
 20
37.9938
 30
0.0
 11
286.176
 21
37.9938
 31
0.0
  0
LINE
  8
0
 62
     0
 10
286.176
 20
37.9938
 30
0.0
 11
286.176
 21
38.5932
 31
0.0
  0
LINE
  8
0
 62
     0
 10
286.176
 20
38.5932
 30
0.0
 11
272.176
 21
38.5932
 31
0.0
  0
LINE
  8
0
 62
     0
 10
248.364
 20
38.5932
 30
0.0
 11
248.364
 21
37.9938
 31
0.0
  0
LINE
  8
0
 62
     0
 10
248.364
 20
37.9938
 30
0.0
 11
247.563
 21
37.9938
 31
0.0
  0
LINE
  8
0
 62
     0
 10
247.563
 20
37.9938
 30
0.0
 11
247.563
 21
25.1947
 31
0.0
  0
LINE
  8
0
 62
     0
 10
247.563
 20
25.1947
 30
0.0
 11
248.364
 21
25.1947
 31
0.0
  0
LINE
  8
0
 62
     0
 10
248.364
 20
25.1947
 30
0.0
 11
248.364
 21
24.5938
 31
0.0
  0
LINE
  8
0
 62
     0
 10
248.364
 20
24.5938
 30
0.0
 11
262.363
 21
24.5938
 31
0.0
  0
LINE
  8
0
 62
     0
 10
262.363
 20
24.5938
 30
0.0
 11
262.363
 21
25.1947
 31
0.0
  0
LINE
  8
0
 62
     0
 10
262.363
 20
25.1947
 30
0.0
 11
263.164
 21
25.1947
 31
0.0
  0
LINE
  8
0
 62
     0
 10
263.164
 20
25.1947
 30
0.0
 11
263.164
 21
37.9938
 31
0.0
  0
LINE
  8
0
 62
     0
 10
263.164
 20
37.9938
 30
0.0
 11
262.363
 21
37.9938
 31
0.0
  0
LINE
  8
0
 62
     0
 10
262.363
 20
37.9938
 30
0.0
 11
262.363
 21
38.5932
 31
0.0
  0
LINE
  8
0
 62
     0
 10
262.363
 20
38.5932
 30
0.0
 11
248.364
 21
38.5932
 31
0.0
  0
LINE
  8
0
 62
     0
 10
226.932
 20
38.5932
 30
0.0
 11
226.932
 21
37.9938
 31
0.0
  0
LINE
  8
0
 62
     0
 10
226.932
 20
37.9938
 30
0.0
 11
226.132
 21
37.9938
 31
0.0
  0
LINE
  8
0
 62
     0
 10
226.132
 20
37.9938
 30
0.0
 11
226.132
 21
25.1947
 31
0.0
  0
LINE
  8
0
 62
     0
 10
226.132
 20
25.1947
 30
0.0
 11
226.932
 21
25.1947
 31
0.0
  0
LINE
  8
0
 62
     0
 10
226.932
 20
25.1947
 30
0.0
 11
226.932
 21
24.5938
 31
0.0
  0
LINE
  8
0
 62
     0
 10
226.932
 20
24.5938
 30
0.0
 11
240.932
 21
24.5938
 31
0.0
  0
LINE
  8
0
 62
     0
 10
240.932
 20
24.5938
 30
0.0
 11
240.932
 21
25.1947
 31
0.0
  0
LINE
  8
0
 62
     0
 10
240.932
 20
25.1947
 30
0.0
 11
241.733
 21
25.1947
 31
0.0
  0
LINE
  8
0
 62
     0
 10
241.733
 20
25.1947
 30
0.0
 11
241.733
 21
37.9938
 31
0.0
  0
LINE
  8
0
 62
     0
 10
241.733
 20
37.9938
 30
0.0
 11
240.932
 21
37.9938
 31
0.0
  0
LINE
  8
0
 62
     0
 10
240.932
 20
37.9938
 30
0.0
 11
240.932
 21
38.5932
 31
0.0
  0
LINE
  8
0
 62
     0
 10
240.932
 20
38.5932
 30
0.0
 11
226.932
 21
38.5932
 31
0.0
  0
LINE
  8
0
 62
     0
 10
74.5324
 20
38.5932
 30
0.0
 11
74.5324
 21
37.9938
 31
0.0
  0
LINE
  8
0
 62
     0
 10
74.5324
 20
37.9938
 30
0.0
 11
73.732
 21
37.9938
 31
0.0
  0
LINE
  8
0
 62
     0
 10
73.732
 20
37.9938
 30
0.0
 11
73.732
 21
25.1947
 31
0.0
  0
LINE
  8
0
 62
     0
 10
73.732
 20
25.1947
 30
0.0
 11
74.5324
 21
25.1947
 31
0.0
  0
LINE
  8
0
 62
     0
 10
74.5324
 20
25.1947
 30
0.0
 11
74.5324
 21
24.5938
 31
0.0
  0
LINE
  8
0
 62
     0
 10
74.5324
 20
24.5938
 30
0.0
 11
88.5321
 21
24.5938
 31
0.0
  0
LINE
  8
0
 62
     0
 10
88.5321
 20
24.5938
 30
0.0
 11
88.5321
 21
25.1947
 31
0.0
  0
LINE
  8
0
 62
     0
 10
88.5321
 20
25.1947
 30
0.0
 11
89.3329
 21
25.1947
 31
0.0
  0
LINE
  8
0
 62
     0
 10
89.3329
 20
25.1947
 30
0.0
 11
89.3329
 21
37.9938
 31
0.0
  0
LINE
  8
0
 62
     0
 10
89.3329
 20
37.9938
 30
0.0
 11
88.5321
 21
37.9938
 31
0.0
  0
LINE
  8
0
 62
     0
 10
88.5321
 20
37.9938
 30
0.0
 11
88.5321
 21
38.5932
 31
0.0
  0
LINE
  8
0
 62
     0
 10
88.5321
 20
38.5932
 30
0.0
 11
74.5324
 21
38.5932
 31
0.0
  0
LINE
  8
0
 62
     0
 10
53.1012
 20
38.5932
 30
0.0
 11
53.1012
 21
37.9938
 31
0.0
  0
LINE
  8
0
 62
     0
 10
53.1012
 20
37.9938
 30
0.0
 11
52.3021
 21
37.9938
 31
0.0
  0
LINE
  8
0
 62
     0
 10
52.3021
 20
37.9938
 30
0.0
 11
52.3021
 21
25.1947
 31
0.0
  0
LINE
  8
0
 62
     0
 10
52.3021
 20
25.1947
 30
0.0
 11
53.1012
 21
25.1947
 31
0.0
  0
LINE
  8
0
 62
     0
 10
53.1012
 20
25.1947
 30
0.0
 11
53.1012
 21
24.5938
 31
0.0
  0
LINE
  8
0
 62
     0
 10
53.1012
 20
24.5938
 30
0.0
 11
67.1008
 21
24.5938
 31
0.0
  0
LINE
  8
0
 62
     0
 10
67.1008
 20
24.5938
 30
0.0
 11
67.1008
 21
25.1947
 31
0.0
  0
LINE
  8
0
 62
     0
 10
67.1008
 20
25.1947
 30
0.0
 11
67.9016
 21
25.1947
 31
0.0
  0
LINE
  8
0
 62
     0
 10
67.9016
 20
25.1947
 30
0.0
 11
67.9016
 21
37.9938
 31
0.0
  0
LINE
  8
0
 62
     0
 10
67.9016
 20
37.9938
 30
0.0
 11
67.1008
 21
37.9938
 31
0.0
  0
LINE
  8
0
 62
     0
 10
67.1008
 20
37.9938
 30
0.0
 11
67.1008
 21
38.5932
 31
0.0
  0
LINE
  8
0
 62
     0
 10
67.1008
 20
38.5932
 30
0.0
 11
53.1012
 21
38.5932
 31
0.0
  0
LINE
  8
0
 62
     0
 10
29.2888
 20
38.5932
 30
0.0
 11
29.2888
 21
37.9938
 31
0.0
  0
LINE
  8
0
 62
     0
 10
29.2888
 20
37.9938
 30
0.0
 11
28.4882
 21
37.9938
 31
0.0
  0
LINE
  8
0
 62
     0
 10
28.4882
 20
37.9938
 30
0.0
 11
28.4882
 21
25.1947
 31
0.0
  0
LINE
  8
0
 62
     0
 10
28.4882
 20
25.1947
 30
0.0
 11
29.2888
 21
25.1947
 31
0.0
  0
LINE
  8
0
 62
     0
 10
29.2888
 20
25.1947
 30
0.0
 11
29.2888
 21
24.5938
 31
0.0
  0
LINE
  8
0
 62
     0
 10
29.2888
 20
24.5938
 30
0.0
 11
43.2883
 21
24.5938
 31
0.0
  0
LINE
  8
0
 62
     0
 10
43.2883
 20
24.5938
 30
0.0
 11
43.2883
 21
25.1947
 31
0.0
  0
LINE
  8
0
 62
     0
 10
43.2883
 20
25.1947
 30
0.0
 11
44.0891
 21
25.1947
 31
0.0
  0
LINE
  8
0
 62
     0
 10
44.0891
 20
25.1947
 30
0.0
 11
44.0891
 21
37.9938
 31
0.0
  0
LINE
  8
0
 62
     0
 10
44.0891
 20
37.9938
 30
0.0
 11
43.2883
 21
37.9938
 31
0.0
  0
LINE
  8
0
 62
     0
 10
43.2883
 20
37.9938
 30
0.0
 11
43.2883
 21
38.5932
 31
0.0
  0
LINE
  8
0
 62
     0
 10
43.2883
 20
38.5932
 30
0.0
 11
29.2888
 21
38.5932
 31
0.0
  0
LINE
  8
0
 62
     0
 10
447.746
 20
57.2188
 30
0.0
 11
447.746
 21
56.3933
 31
0.0
  0
LINE
  8
0
 62
     0
 10
447.746
 20
56.3933
 30
0.0
 11
441.477
 21
56.3933
 31
0.0
  0
LINE
  8
0
 62
     0
 10
441.477
 20
56.3933
 30
0.0
 11
441.477
 21
54.6682
 31
0.0
  0
LINE
  8
0
 62
     0
 10
441.477
 20
54.6682
 30
0.0
 11
440.496
 21
54.6682
 31
0.0
  0
LINE
  8
0
 62
     0
 10
440.496
 20
54.6682
 30
0.0
 11
440.496
 21
51.3676
 31
0.0
  0
LINE
  8
0
 62
     0
 10
440.496
 20
51.3676
 30
0.0
 11
441.477
 21
51.3676
 31
0.0
  0
LINE
  8
0
 62
     0
 10
441.477
 20
51.3676
 30
0.0
 11
441.477
 21
49.6439
 31
0.0
  0
LINE
  8
0
 62
     0
 10
441.477
 20
49.6439
 30
0.0
 11
445.946
 21
49.6439
 31
0.0
  0
LINE
  8
0
 62
     0
 10
445.946
 20
49.6439
 30
0.0
 11
445.946
 21
48.919
 31
0.0
  0
LINE
  8
0
 62
     0
 10
445.946
 20
48.919
 30
0.0
 11
441.847
 21
48.919
 31
0.0
  0
LINE
  8
0
 62
     0
 10
441.847
 20
48.919
 30
0.0
 11
441.847
 21
48.1182
 31
0.0
  0
LINE
  8
0
 62
     0
 10
441.847
 20
48.1182
 30
0.0
 11
441.244
 21
48.1182
 31
0.0
  0
LINE
  8
0
 62
     0
 10
441.244
 20
48.1182
 30
0.0
 11
441.244
 21
34.1188
 31
0.0
  0
LINE
  8
0
 62
     0
 10
441.244
 20
34.1188
 30
0.0
 11
441.847
 21
34.1188
 31
0.0
  0
LINE
  8
0
 62
     0
 10
441.847
 20
34.1188
 30
0.0
 11
441.847
 21
33.3182
 31
0.0
  0
LINE
  8
0
 62
     0
 10
441.847
 20
33.3182
 30
0.0
 11
445.946
 21
33.3182
 31
0.0
  0
LINE
  8
0
 62
     0
 10
445.946
 20
33.3182
 30
0.0
 11
445.946
 21
32.5934
 31
0.0
  0
LINE
  8
0
 62
     0
 10
445.946
 20
32.5934
 30
0.0
 11
441.477
 21
32.5934
 31
0.0
  0
LINE
  8
0
 62
     0
 10
441.477
 20
32.5934
 30
0.0
 11
441.477
 21
30.8681
 31
0.0
  0
LINE
  8
0
 62
     0
 10
441.477
 20
30.8681
 30
0.0
 11
440.496
 21
30.8681
 31
0.0
  0
LINE
  8
0
 62
     0
 10
440.496
 20
30.8681
 30
0.0
 11
440.496
 21
27.569
 31
0.0
  0
LINE
  8
0
 62
     0
 10
440.496
 20
27.569
 30
0.0
 11
441.477
 21
27.569
 31
0.0
  0
LINE
  8
0
 62
     0
 10
441.477
 20
27.569
 30
0.0
 11
441.477
 21
25.8437
 31
0.0
  0
LINE
  8
0
 62
     0
 10
441.477
 20
25.8437
 30
0.0
 11
447.746
 21
25.8437
 31
0.0
  0
LINE
  8
0
 62
     0
 10
447.746
 20
25.8437
 30
0.0
 11
447.746
 21
25.0183
 31
0.0
  0
LINE
  8
0
 62
     0
 10
447.746
 20
25.0183
 30
0.0
 11
450.547
 21
25.0183
 31
0.0
  0
LINE
  8
0
 62
     0
 10
450.547
 20
25.0183
 30
0.0
 11
450.547
 21
25.8437
 31
0.0
  0
LINE
  8
0
 62
     0
 10
450.547
 20
25.8437
 30
0.0
 11
453.775
 21
25.8437
 31
0.0
  0
LINE
  8
0
 62
     0
 10
453.775
 20
25.8437
 30
0.0
 11
453.775
 21
27.569
 31
0.0
  0
LINE
  8
0
 62
     0
 10
453.775
 20
27.569
 30
0.0
 11
454.695
 21
27.569
 31
0.0
  0
LINE
  8
0
 62
     0
 10
454.695
 20
27.569
 30
0.0
 11
454.695
 21
30.8681
 31
0.0
  0
LINE
  8
0
 62
     0
 10
454.695
 20
30.8681
 30
0.0
 11
453.775
 21
30.8681
 31
0.0
  0
LINE
  8
0
 62
     0
 10
453.775
 20
30.8681
 30
0.0
 11
453.775
 21
32.5934
 31
0.0
  0
LINE
  8
0
 62
     0
 10
453.775
 20
32.5934
 30
0.0
 11
450.547
 21
32.5934
 31
0.0
  0
LINE
  8
0
 62
     0
 10
450.547
 20
32.5934
 30
0.0
 11
450.547
 21
33.3182
 31
0.0
  0
LINE
  8
0
 62
     0
 10
450.547
 20
33.3182
 30
0.0
 11
454.646
 21
33.3182
 31
0.0
  0
LINE
  8
0
 62
     0
 10
454.646
 20
33.3182
 30
0.0
 11
454.646
 21
34.1188
 31
0.0
  0
LINE
  8
0
 62
     0
 10
454.646
 20
34.1188
 30
0.0
 11
455.246
 21
34.1188
 31
0.0
  0
LINE
  8
0
 62
     0
 10
455.246
 20
34.1188
 30
0.0
 11
455.246
 21
48.1182
 31
0.0
  0
LINE
  8
0
 62
     0
 10
455.246
 20
48.1182
 30
0.0
 11
454.646
 21
48.1182
 31
0.0
  0
LINE
  8
0
 62
     0
 10
454.646
 20
48.1182
 30
0.0
 11
454.646
 21
48.919
 31
0.0
  0
LINE
  8
0
 62
     0
 10
454.646
 20
48.919
 30
0.0
 11
450.547
 21
48.919
 31
0.0
  0
LINE
  8
0
 62
     0
 10
450.547
 20
48.919
 30
0.0
 11
450.547
 21
49.6439
 31
0.0
  0
LINE
  8
0
 62
     0
 10
450.547
 20
49.6439
 30
0.0
 11
453.775
 21
49.6439
 31
0.0
  0
LINE
  8
0
 62
     0
 10
453.775
 20
49.6439
 30
0.0
 11
453.775
 21
51.3676
 31
0.0
  0
LINE
  8
0
 62
     0
 10
453.775
 20
51.3676
 30
0.0
 11
454.695
 21
51.3676
 31
0.0
  0
LINE
  8
0
 62
     0
 10
454.695
 20
51.3676
 30
0.0
 11
454.695
 21
54.6682
 31
0.0
  0
LINE
  8
0
 62
     0
 10
454.695
 20
54.6682
 30
0.0
 11
453.775
 21
54.6682
 31
0.0
  0
LINE
  8
0
 62
     0
 10
453.775
 20
54.6682
 30
0.0
 11
453.775
 21
56.3933
 31
0.0
  0
LINE
  8
0
 62
     0
 10
453.775
 20
56.3933
 30
0.0
 11
450.547
 21
56.3933
 31
0.0
  0
LINE
  8
0
 62
     0
 10
450.547
 20
56.3933
 30
0.0
 11
450.547
 21
57.2188
 31
0.0
  0
LINE
  8
0
 62
     0
 10
450.547
 20
57.2188
 30
0.0
 11
447.746
 21
57.2188
 31
0.0
  0
LINE
  8
0
 62
     0
 10
272.176
 20
57.6432
 30
0.0
 11
272.176
 21
57.0438
 31
0.0
  0
LINE
  8
0
 62
     0
 10
272.176
 20
57.0438
 30
0.0
 11
271.377
 21
57.0438
 31
0.0
  0
LINE
  8
0
 62
     0
 10
271.377
 20
57.0438
 30
0.0
 11
271.377
 21
52.9428
 31
0.0
  0
LINE
  8
0
 62
     0
 10
271.377
 20
52.9428
 30
0.0
 11
270.651
 21
52.9428
 31
0.0
  0
LINE
  8
0
 62
     0
 10
270.651
 20
52.9428
 30
0.0
 11
270.651
 21
56.1728
 31
0.0
  0
LINE
  8
0
 62
     0
 10
270.651
 20
56.1728
 30
0.0
 11
268.927
 21
56.1728
 31
0.0
  0
LINE
  8
0
 62
     0
 10
268.927
 20
56.1728
 30
0.0
 11
268.927
 21
57.0936
 31
0.0
  0
LINE
  8
0
 62
     0
 10
268.927
 20
57.0936
 30
0.0
 11
265.626
 21
57.0936
 31
0.0
  0
LINE
  8
0
 62
     0
 10
265.626
 20
57.0936
 30
0.0
 11
265.626
 21
56.1728
 31
0.0
  0
LINE
  8
0
 62
     0
 10
265.626
 20
56.1728
 30
0.0
 11
263.901
 21
56.1728
 31
0.0
  0
LINE
  8
0
 62
     0
 10
263.901
 20
56.1728
 30
0.0
 11
263.901
 21
52.9428
 31
0.0
  0
LINE
  8
0
 62
     0
 10
263.901
 20
52.9428
 30
0.0
 11
263.077
 21
52.9428
 31
0.0
  0
LINE
  8
0
 62
     0
 10
263.077
 20
52.9428
 30
0.0
 11
263.077
 21
50.1442
 31
0.0
  0
LINE
  8
0
 62
     0
 10
263.077
 20
50.1442
 30
0.0
 11
263.901
 21
50.1442
 31
0.0
  0
LINE
  8
0
 62
     0
 10
263.901
 20
50.1442
 30
0.0
 11
263.901
 21
43.8739
 31
0.0
  0
LINE
  8
0
 62
     0
 10
263.901
 20
43.8739
 30
0.0
 11
265.626
 21
43.8739
 31
0.0
  0
LINE
  8
0
 62
     0
 10
265.626
 20
43.8739
 30
0.0
 11
265.626
 21
42.8928
 31
0.0
  0
LINE
  8
0
 62
     0
 10
265.626
 20
42.8928
 30
0.0
 11
268.927
 21
42.8928
 31
0.0
  0
LINE
  8
0
 62
     0
 10
268.927
 20
42.8928
 30
0.0
 11
268.927
 21
43.8739
 31
0.0
  0
LINE
  8
0
 62
     0
 10
268.927
 20
43.8739
 30
0.0
 11
270.651
 21
43.8739
 31
0.0
  0
LINE
  8
0
 62
     0
 10
270.651
 20
43.8739
 30
0.0
 11
270.651
 21
48.3429
 31
0.0
  0
LINE
  8
0
 62
     0
 10
270.651
 20
48.3429
 30
0.0
 11
271.377
 21
48.3429
 31
0.0
  0
LINE
  8
0
 62
     0
 10
271.377
 20
48.3429
 30
0.0
 11
271.377
 21
44.2433
 31
0.0
  0
LINE
  8
0
 62
     0
 10
271.377
 20
44.2433
 30
0.0
 11
272.176
 21
44.2433
 31
0.0
  0
LINE
  8
0
 62
     0
 10
272.176
 20
44.2433
 30
0.0
 11
272.176
 21
43.6439
 31
0.0
  0
LINE
  8
0
 62
     0
 10
272.176
 20
43.6439
 30
0.0
 11
286.176
 21
43.6439
 31
0.0
  0
LINE
  8
0
 62
     0
 10
286.176
 20
43.6439
 30
0.0
 11
286.176
 21
44.2433
 31
0.0
  0
LINE
  8
0
 62
     0
 10
286.176
 20
44.2433
 30
0.0
 11
286.977
 21
44.2433
 31
0.0
  0
LINE
  8
0
 62
     0
 10
286.977
 20
44.2433
 30
0.0
 11
286.977
 21
48.3429
 31
0.0
  0
LINE
  8
0
 62
     0
 10
286.977
 20
48.3429
 30
0.0
 11
287.701
 21
48.3429
 31
0.0
  0
LINE
  8
0
 62
     0
 10
287.701
 20
48.3429
 30
0.0
 11
287.701
 21
43.8739
 31
0.0
  0
LINE
  8
0
 62
     0
 10
287.701
 20
43.8739
 30
0.0
 11
289.427
 21
43.8739
 31
0.0
  0
LINE
  8
0
 62
     0
 10
289.427
 20
43.8739
 30
0.0
 11
289.427
 21
42.8928
 31
0.0
  0
LINE
  8
0
 62
     0
 10
289.427
 20
42.8928
 30
0.0
 11
292.727
 21
42.8928
 31
0.0
  0
LINE
  8
0
 62
     0
 10
292.727
 20
42.8928
 30
0.0
 11
292.727
 21
43.8739
 31
0.0
  0
LINE
  8
0
 62
     0
 10
292.727
 20
43.8739
 30
0.0
 11
294.451
 21
43.8739
 31
0.0
  0
LINE
  8
0
 62
     0
 10
294.451
 20
43.8739
 30
0.0
 11
294.451
 21
50.1442
 31
0.0
  0
LINE
  8
0
 62
     0
 10
294.451
 20
50.1442
 30
0.0
 11
295.276
 21
50.1442
 31
0.0
  0
LINE
  8
0
 62
     0
 10
295.276
 20
50.1442
 30
0.0
 11
295.276
 21
52.9428
 31
0.0
  0
LINE
  8
0
 62
     0
 10
295.276
 20
52.9428
 30
0.0
 11
294.451
 21
52.9428
 31
0.0
  0
LINE
  8
0
 62
     0
 10
294.451
 20
52.9428
 30
0.0
 11
294.451
 21
56.1728
 31
0.0
  0
LINE
  8
0
 62
     0
 10
294.451
 20
56.1728
 30
0.0
 11
292.727
 21
56.1728
 31
0.0
  0
LINE
  8
0
 62
     0
 10
292.727
 20
56.1728
 30
0.0
 11
292.727
 21
57.0936
 31
0.0
  0
LINE
  8
0
 62
     0
 10
292.727
 20
57.0936
 30
0.0
 11
289.427
 21
57.0936
 31
0.0
  0
LINE
  8
0
 62
     0
 10
289.427
 20
57.0936
 30
0.0
 11
289.427
 21
56.1728
 31
0.0
  0
LINE
  8
0
 62
     0
 10
289.427
 20
56.1728
 30
0.0
 11
287.701
 21
56.1728
 31
0.0
  0
LINE
  8
0
 62
     0
 10
287.701
 20
56.1728
 30
0.0
 11
287.701
 21
52.9428
 31
0.0
  0
LINE
  8
0
 62
     0
 10
287.701
 20
52.9428
 30
0.0
 11
286.977
 21
52.9428
 31
0.0
  0
LINE
  8
0
 62
     0
 10
286.977
 20
52.9428
 30
0.0
 11
286.977
 21
57.0438
 31
0.0
  0
LINE
  8
0
 62
     0
 10
286.977
 20
57.0438
 30
0.0
 11
286.176
 21
57.0438
 31
0.0
  0
LINE
  8
0
 62
     0
 10
286.176
 20
57.0438
 30
0.0
 11
286.176
 21
57.6432
 31
0.0
  0
LINE
  8
0
 62
     0
 10
286.176
 20
57.6432
 30
0.0
 11
272.176
 21
57.6432
 31
0.0
  0
LINE
  8
0
 62
     0
 10
422.194
 20
57.6432
 30
0.0
 11
422.194
 21
57.0438
 31
0.0
  0
LINE
  8
0
 62
     0
 10
422.194
 20
57.0438
 30
0.0
 11
421.397
 21
57.0438
 31
0.0
  0
LINE
  8
0
 62
     0
 10
421.397
 20
57.0438
 30
0.0
 11
421.397
 21
44.2433
 31
0.0
  0
LINE
  8
0
 62
     0
 10
421.397
 20
44.2433
 30
0.0
 11
422.194
 21
44.2433
 31
0.0
  0
LINE
  8
0
 62
     0
 10
422.194
 20
44.2433
 30
0.0
 11
422.194
 21
43.6439
 31
0.0
  0
LINE
  8
0
 62
     0
 10
422.194
 20
43.6439
 30
0.0
 11
436.196
 21
43.6439
 31
0.0
  0
LINE
  8
0
 62
     0
 10
436.196
 20
43.6439
 30
0.0
 11
436.196
 21
44.2433
 31
0.0
  0
LINE
  8
0
 62
     0
 10
436.196
 20
44.2433
 30
0.0
 11
436.996
 21
44.2433
 31
0.0
  0
LINE
  8
0
 62
     0
 10
436.996
 20
44.2433
 30
0.0
 11
436.996
 21
57.0438
 31
0.0
  0
LINE
  8
0
 62
     0
 10
436.996
 20
57.0438
 30
0.0
 11
436.196
 21
57.0438
 31
0.0
  0
LINE
  8
0
 62
     0
 10
436.196
 20
57.0438
 30
0.0
 11
436.196
 21
57.6432
 31
0.0
  0
LINE
  8
0
 62
     0
 10
436.196
 20
57.6432
 30
0.0
 11
422.194
 21
57.6432
 31
0.0
  0
LINE
  8
0
 62
     0
 10
403.144
 20
57.6432
 30
0.0
 11
403.144
 21
57.0438
 31
0.0
  0
LINE
  8
0
 62
     0
 10
403.144
 20
57.0438
 30
0.0
 11
402.347
 21
57.0438
 31
0.0
  0
LINE
  8
0
 62
     0
 10
402.347
 20
57.0438
 30
0.0
 11
402.347
 21
44.2433
 31
0.0
  0
LINE
  8
0
 62
     0
 10
402.347
 20
44.2433
 30
0.0
 11
403.144
 21
44.2433
 31
0.0
  0
LINE
  8
0
 62
     0
 10
403.144
 20
44.2433
 30
0.0
 11
403.144
 21
43.6439
 31
0.0
  0
LINE
  8
0
 62
     0
 10
403.144
 20
43.6439
 30
0.0
 11
417.146
 21
43.6439
 31
0.0
  0
LINE
  8
0
 62
     0
 10
417.146
 20
43.6439
 30
0.0
 11
417.146
 21
44.2433
 31
0.0
  0
LINE
  8
0
 62
     0
 10
417.146
 20
44.2433
 30
0.0
 11
417.946
 21
44.2433
 31
0.0
  0
LINE
  8
0
 62
     0
 10
417.946
 20
44.2433
 30
0.0
 11
417.946
 21
57.0438
 31
0.0
  0
LINE
  8
0
 62
     0
 10
417.946
 20
57.0438
 30
0.0
 11
417.146
 21
57.0438
 31
0.0
  0
LINE
  8
0
 62
     0
 10
417.146
 20
57.0438
 30
0.0
 11
417.146
 21
57.6432
 31
0.0
  0
LINE
  8
0
 62
     0
 10
417.146
 20
57.6432
 30
0.0
 11
403.144
 21
57.6432
 31
0.0
  0
LINE
  8
0
 62
     0
 10
384.094
 20
57.6432
 30
0.0
 11
384.094
 21
57.0438
 31
0.0
  0
LINE
  8
0
 62
     0
 10
384.094
 20
57.0438
 30
0.0
 11
383.297
 21
57.0438
 31
0.0
  0
LINE
  8
0
 62
     0
 10
383.297
 20
57.0438
 30
0.0
 11
383.297
 21
44.2433
 31
0.0
  0
LINE
  8
0
 62
     0
 10
383.297
 20
44.2433
 30
0.0
 11
384.094
 21
44.2433
 31
0.0
  0
LINE
  8
0
 62
     0
 10
384.094
 20
44.2433
 30
0.0
 11
384.094
 21
43.6439
 31
0.0
  0
LINE
  8
0
 62
     0
 10
384.094
 20
43.6439
 30
0.0
 11
398.096
 21
43.6439
 31
0.0
  0
LINE
  8
0
 62
     0
 10
398.096
 20
43.6439
 30
0.0
 11
398.096
 21
44.2433
 31
0.0
  0
LINE
  8
0
 62
     0
 10
398.096
 20
44.2433
 30
0.0
 11
398.896
 21
44.2433
 31
0.0
  0
LINE
  8
0
 62
     0
 10
398.896
 20
44.2433
 30
0.0
 11
398.896
 21
57.0438
 31
0.0
  0
LINE
  8
0
 62
     0
 10
398.896
 20
57.0438
 30
0.0
 11
398.096
 21
57.0438
 31
0.0
  0
LINE
  8
0
 62
     0
 10
398.096
 20
57.0438
 30
0.0
 11
398.096
 21
57.6432
 31
0.0
  0
LINE
  8
0
 62
     0
 10
398.096
 20
57.6432
 30
0.0
 11
384.094
 21
57.6432
 31
0.0
  0
LINE
  8
0
 62
     0
 10
355.519
 20
57.6432
 30
0.0
 11
355.519
 21
57.0438
 31
0.0
  0
LINE
  8
0
 62
     0
 10
355.519
 20
57.0438
 30
0.0
 11
354.722
 21
57.0438
 31
0.0
  0
LINE
  8
0
 62
     0
 10
354.722
 20
57.0438
 30
0.0
 11
354.722
 21
44.2433
 31
0.0
  0
LINE
  8
0
 62
     0
 10
354.722
 20
44.2433
 30
0.0
 11
355.519
 21
44.2433
 31
0.0
  0
LINE
  8
0
 62
     0
 10
355.519
 20
44.2433
 30
0.0
 11
355.519
 21
43.6439
 31
0.0
  0
LINE
  8
0
 62
     0
 10
355.519
 20
43.6439
 30
0.0
 11
369.521
 21
43.6439
 31
0.0
  0
LINE
  8
0
 62
     0
 10
369.521
 20
43.6439
 30
0.0
 11
369.521
 21
44.2433
 31
0.0
  0
LINE
  8
0
 62
     0
 10
369.521
 20
44.2433
 30
0.0
 11
370.321
 21
44.2433
 31
0.0
  0
LINE
  8
0
 62
     0
 10
370.321
 20
44.2433
 30
0.0
 11
370.321
 21
57.0438
 31
0.0
  0
LINE
  8
0
 62
     0
 10
370.321
 20
57.0438
 30
0.0
 11
369.521
 21
57.0438
 31
0.0
  0
LINE
  8
0
 62
     0
 10
369.521
 20
57.0438
 30
0.0
 11
369.521
 21
57.6432
 31
0.0
  0
LINE
  8
0
 62
     0
 10
369.521
 20
57.6432
 30
0.0
 11
355.519
 21
57.6432
 31
0.0
  0
LINE
  8
0
 62
     0
 10
336.47
 20
57.6432
 30
0.0
 11
336.47
 21
57.0438
 31
0.0
  0
LINE
  8
0
 62
     0
 10
336.47
 20
57.0438
 30
0.0
 11
335.671
 21
57.0438
 31
0.0
  0
LINE
  8
0
 62
     0
 10
335.671
 20
57.0438
 30
0.0
 11
335.671
 21
44.2433
 31
0.0
  0
LINE
  8
0
 62
     0
 10
335.671
 20
44.2433
 30
0.0
 11
336.47
 21
44.2433
 31
0.0
  0
LINE
  8
0
 62
     0
 10
336.47
 20
44.2433
 30
0.0
 11
336.47
 21
43.6439
 31
0.0
  0
LINE
  8
0
 62
     0
 10
336.47
 20
43.6439
 30
0.0
 11
350.471
 21
43.6439
 31
0.0
  0
LINE
  8
0
 62
     0
 10
350.471
 20
43.6439
 30
0.0
 11
350.471
 21
44.2433
 31
0.0
  0
LINE
  8
0
 62
     0
 10
350.471
 20
44.2433
 30
0.0
 11
351.27
 21
44.2433
 31
0.0
  0
LINE
  8
0
 62
     0
 10
351.27
 20
44.2433
 30
0.0
 11
351.27
 21
57.0438
 31
0.0
  0
LINE
  8
0
 62
     0
 10
351.27
 20
57.0438
 30
0.0
 11
350.471
 21
57.0438
 31
0.0
  0
LINE
  8
0
 62
     0
 10
350.471
 20
57.0438
 30
0.0
 11
350.471
 21
57.6432
 31
0.0
  0
LINE
  8
0
 62
     0
 10
350.471
 20
57.6432
 30
0.0
 11
336.47
 21
57.6432
 31
0.0
  0
LINE
  8
0
 62
     0
 10
317.42
 20
57.6432
 30
0.0
 11
317.42
 21
57.0438
 31
0.0
  0
LINE
  8
0
 62
     0
 10
317.42
 20
57.0438
 30
0.0
 11
316.621
 21
57.0438
 31
0.0
  0
LINE
  8
0
 62
     0
 10
316.621
 20
57.0438
 30
0.0
 11
316.621
 21
44.2433
 31
0.0
  0
LINE
  8
0
 62
     0
 10
316.621
 20
44.2433
 30
0.0
 11
317.42
 21
44.2433
 31
0.0
  0
LINE
  8
0
 62
     0
 10
317.42
 20
44.2433
 30
0.0
 11
317.42
 21
43.6439
 31
0.0
  0
LINE
  8
0
 62
     0
 10
317.42
 20
43.6439
 30
0.0
 11
331.421
 21
43.6439
 31
0.0
  0
LINE
  8
0
 62
     0
 10
331.421
 20
43.6439
 30
0.0
 11
331.421
 21
44.2433
 31
0.0
  0
LINE
  8
0
 62
     0
 10
331.421
 20
44.2433
 30
0.0
 11
332.22
 21
44.2433
 31
0.0
  0
LINE
  8
0
 62
     0
 10
332.22
 20
44.2433
 30
0.0
 11
332.22
 21
57.0438
 31
0.0
  0
LINE
  8
0
 62
     0
 10
332.22
 20
57.0438
 30
0.0
 11
331.421
 21
57.0438
 31
0.0
  0
LINE
  8
0
 62
     0
 10
331.421
 20
57.0438
 30
0.0
 11
331.421
 21
57.6432
 31
0.0
  0
LINE
  8
0
 62
     0
 10
331.421
 20
57.6432
 30
0.0
 11
317.42
 21
57.6432
 31
0.0
  0
LINE
  8
0
 62
     0
 10
236.457
 20
57.6432
 30
0.0
 11
236.457
 21
57.0438
 31
0.0
  0
LINE
  8
0
 62
     0
 10
236.457
 20
57.0438
 30
0.0
 11
235.657
 21
57.0438
 31
0.0
  0
LINE
  8
0
 62
     0
 10
235.657
 20
57.0438
 30
0.0
 11
235.657
 21
44.2433
 31
0.0
  0
LINE
  8
0
 62
     0
 10
235.657
 20
44.2433
 30
0.0
 11
236.457
 21
44.2433
 31
0.0
  0
LINE
  8
0
 62
     0
 10
236.457
 20
44.2433
 30
0.0
 11
236.457
 21
43.6439
 31
0.0
  0
LINE
  8
0
 62
     0
 10
236.457
 20
43.6439
 30
0.0
 11
250.457
 21
43.6439
 31
0.0
  0
LINE
  8
0
 62
     0
 10
250.457
 20
43.6439
 30
0.0
 11
250.457
 21
44.2433
 31
0.0
  0
LINE
  8
0
 62
     0
 10
250.457
 20
44.2433
 30
0.0
 11
251.256
 21
44.2433
 31
0.0
  0
LINE
  8
0
 62
     0
 10
251.256
 20
44.2433
 30
0.0
 11
251.256
 21
57.0438
 31
0.0
  0
LINE
  8
0
 62
     0
 10
251.256
 20
57.0438
 30
0.0
 11
250.457
 21
57.0438
 31
0.0
  0
LINE
  8
0
 62
     0
 10
250.457
 20
57.0438
 30
0.0
 11
250.457
 21
57.6432
 31
0.0
  0
LINE
  8
0
 62
     0
 10
250.457
 20
57.6432
 30
0.0
 11
236.457
 21
57.6432
 31
0.0
  0
LINE
  8
0
 62
     0
 10
217.407
 20
57.6432
 30
0.0
 11
217.407
 21
57.0438
 31
0.0
  0
LINE
  8
0
 62
     0
 10
217.407
 20
57.0438
 30
0.0
 11
216.607
 21
57.0438
 31
0.0
  0
LINE
  8
0
 62
     0
 10
216.607
 20
57.0438
 30
0.0
 11
216.607
 21
44.2433
 31
0.0
  0
LINE
  8
0
 62
     0
 10
216.607
 20
44.2433
 30
0.0
 11
217.407
 21
44.2433
 31
0.0
  0
LINE
  8
0
 62
     0
 10
217.407
 20
44.2433
 30
0.0
 11
217.407
 21
43.6439
 31
0.0
  0
LINE
  8
0
 62
     0
 10
217.407
 20
43.6439
 30
0.0
 11
231.407
 21
43.6439
 31
0.0
  0
LINE
  8
0
 62
     0
 10
231.407
 20
43.6439
 30
0.0
 11
231.407
 21
44.2433
 31
0.0
  0
LINE
  8
0
 62
     0
 10
231.407
 20
44.2433
 30
0.0
 11
232.208
 21
44.2433
 31
0.0
  0
LINE
  8
0
 62
     0
 10
232.208
 20
44.2433
 30
0.0
 11
232.208
 21
57.0438
 31
0.0
  0
LINE
  8
0
 62
     0
 10
232.208
 20
57.0438
 30
0.0
 11
231.407
 21
57.0438
 31
0.0
  0
LINE
  8
0
 62
     0
 10
231.407
 20
57.0438
 30
0.0
 11
231.407
 21
57.6432
 31
0.0
  0
LINE
  8
0
 62
     0
 10
231.407
 20
57.6432
 30
0.0
 11
217.407
 21
57.6432
 31
0.0
  0
LINE
  8
0
 62
     0
 10
198.357
 20
57.6432
 30
0.0
 11
198.357
 21
57.0438
 31
0.0
  0
LINE
  8
0
 62
     0
 10
198.357
 20
57.0438
 30
0.0
 11
197.557
 21
57.0438
 31
0.0
  0
LINE
  8
0
 62
     0
 10
197.557
 20
57.0438
 30
0.0
 11
197.557
 21
44.2433
 31
0.0
  0
LINE
  8
0
 62
     0
 10
197.557
 20
44.2433
 30
0.0
 11
198.357
 21
44.2433
 31
0.0
  0
LINE
  8
0
 62
     0
 10
198.357
 20
44.2433
 30
0.0
 11
198.357
 21
43.6439
 31
0.0
  0
LINE
  8
0
 62
     0
 10
198.357
 20
43.6439
 30
0.0
 11
212.357
 21
43.6439
 31
0.0
  0
LINE
  8
0
 62
     0
 10
212.357
 20
43.6439
 30
0.0
 11
212.357
 21
44.2433
 31
0.0
  0
LINE
  8
0
 62
     0
 10
212.357
 20
44.2433
 30
0.0
 11
213.158
 21
44.2433
 31
0.0
  0
LINE
  8
0
 62
     0
 10
213.158
 20
44.2433
 30
0.0
 11
213.158
 21
57.0438
 31
0.0
  0
LINE
  8
0
 62
     0
 10
213.158
 20
57.0438
 30
0.0
 11
212.357
 21
57.0438
 31
0.0
  0
LINE
  8
0
 62
     0
 10
212.357
 20
57.0438
 30
0.0
 11
212.357
 21
57.6432
 31
0.0
  0
LINE
  8
0
 62
     0
 10
212.357
 20
57.6432
 30
0.0
 11
198.357
 21
57.6432
 31
0.0
  0
LINE
  8
0
 62
     0
 10
179.307
 20
57.6432
 30
0.0
 11
179.307
 21
57.0438
 31
0.0
  0
LINE
  8
0
 62
     0
 10
179.307
 20
57.0438
 30
0.0
 11
178.507
 21
57.0438
 31
0.0
  0
LINE
  8
0
 62
     0
 10
178.507
 20
57.0438
 30
0.0
 11
178.507
 21
44.2433
 31
0.0
  0
LINE
  8
0
 62
     0
 10
178.507
 20
44.2433
 30
0.0
 11
179.307
 21
44.2433
 31
0.0
  0
LINE
  8
0
 62
     0
 10
179.307
 20
44.2433
 30
0.0
 11
179.307
 21
43.6439
 31
0.0
  0
LINE
  8
0
 62
     0
 10
179.307
 20
43.6439
 30
0.0
 11
193.307
 21
43.6439
 31
0.0
  0
LINE
  8
0
 62
     0
 10
193.307
 20
43.6439
 30
0.0
 11
193.307
 21
44.2433
 31
0.0
  0
LINE
  8
0
 62
     0
 10
193.307
 20
44.2433
 30
0.0
 11
194.108
 21
44.2433
 31
0.0
  0
LINE
  8
0
 62
     0
 10
194.108
 20
44.2433
 30
0.0
 11
194.108
 21
57.0438
 31
0.0
  0
LINE
  8
0
 62
     0
 10
194.108
 20
57.0438
 30
0.0
 11
193.307
 21
57.0438
 31
0.0
  0
LINE
  8
0
 62
     0
 10
193.307
 20
57.0438
 30
0.0
 11
193.307
 21
57.6432
 31
0.0
  0
LINE
  8
0
 62
     0
 10
193.307
 20
57.6432
 30
0.0
 11
179.307
 21
57.6432
 31
0.0
  0
LINE
  8
0
 62
     0
 10
160.257
 20
57.6432
 30
0.0
 11
160.257
 21
57.0438
 31
0.0
  0
LINE
  8
0
 62
     0
 10
160.257
 20
57.0438
 30
0.0
 11
159.457
 21
57.0438
 31
0.0
  0
LINE
  8
0
 62
     0
 10
159.457
 20
57.0438
 30
0.0
 11
159.457
 21
44.2433
 31
0.0
  0
LINE
  8
0
 62
     0
 10
159.457
 20
44.2433
 30
0.0
 11
160.257
 21
44.2433
 31
0.0
  0
LINE
  8
0
 62
     0
 10
160.257
 20
44.2433
 30
0.0
 11
160.257
 21
43.6439
 31
0.0
  0
LINE
  8
0
 62
     0
 10
160.257
 20
43.6439
 30
0.0
 11
174.257
 21
43.6439
 31
0.0
  0
LINE
  8
0
 62
     0
 10
174.257
 20
43.6439
 30
0.0
 11
174.257
 21
44.2433
 31
0.0
  0
LINE
  8
0
 62
     0
 10
174.257
 20
44.2433
 30
0.0
 11
175.058
 21
44.2433
 31
0.0
  0
LINE
  8
0
 62
     0
 10
175.058
 20
44.2433
 30
0.0
 11
175.058
 21
57.0438
 31
0.0
  0
LINE
  8
0
 62
     0
 10
175.058
 20
57.0438
 30
0.0
 11
174.257
 21
57.0438
 31
0.0
  0
LINE
  8
0
 62
     0
 10
174.257
 20
57.0438
 30
0.0
 11
174.257
 21
57.6432
 31
0.0
  0
LINE
  8
0
 62
     0
 10
174.257
 20
57.6432
 30
0.0
 11
160.257
 21
57.6432
 31
0.0
  0
LINE
  8
0
 62
     0
 10
141.207
 20
57.6432
 30
0.0
 11
141.207
 21
57.0438
 31
0.0
  0
LINE
  8
0
 62
     0
 10
141.207
 20
57.0438
 30
0.0
 11
140.407
 21
57.0438
 31
0.0
  0
LINE
  8
0
 62
     0
 10
140.407
 20
57.0438
 30
0.0
 11
140.407
 21
44.2433
 31
0.0
  0
LINE
  8
0
 62
     0
 10
140.407
 20
44.2433
 30
0.0
 11
141.207
 21
44.2433
 31
0.0
  0
LINE
  8
0
 62
     0
 10
141.207
 20
44.2433
 30
0.0
 11
141.207
 21
43.6439
 31
0.0
  0
LINE
  8
0
 62
     0
 10
141.207
 20
43.6439
 30
0.0
 11
155.207
 21
43.6439
 31
0.0
  0
LINE
  8
0
 62
     0
 10
155.207
 20
43.6439
 30
0.0
 11
155.207
 21
44.2433
 31
0.0
  0
LINE
  8
0
 62
     0
 10
155.207
 20
44.2433
 30
0.0
 11
156.008
 21
44.2433
 31
0.0
  0
LINE
  8
0
 62
     0
 10
156.008
 20
44.2433
 30
0.0
 11
156.008
 21
57.0438
 31
0.0
  0
LINE
  8
0
 62
     0
 10
156.008
 20
57.0438
 30
0.0
 11
155.207
 21
57.0438
 31
0.0
  0
LINE
  8
0
 62
     0
 10
155.207
 20
57.0438
 30
0.0
 11
155.207
 21
57.6432
 31
0.0
  0
LINE
  8
0
 62
     0
 10
155.207
 20
57.6432
 30
0.0
 11
141.207
 21
57.6432
 31
0.0
  0
LINE
  8
0
 62
     0
 10
122.157
 20
57.6432
 30
0.0
 11
122.157
 21
57.0438
 31
0.0
  0
LINE
  8
0
 62
     0
 10
122.157
 20
57.0438
 30
0.0
 11
121.357
 21
57.0438
 31
0.0
  0
LINE
  8
0
 62
     0
 10
121.357
 20
57.0438
 30
0.0
 11
121.357
 21
44.2433
 31
0.0
  0
LINE
  8
0
 62
     0
 10
121.357
 20
44.2433
 30
0.0
 11
122.157
 21
44.2433
 31
0.0
  0
LINE
  8
0
 62
     0
 10
122.157
 20
44.2433
 30
0.0
 11
122.157
 21
43.6439
 31
0.0
  0
LINE
  8
0
 62
     0
 10
122.157
 20
43.6439
 30
0.0
 11
136.157
 21
43.6439
 31
0.0
  0
LINE
  8
0
 62
     0
 10
136.157
 20
43.6439
 30
0.0
 11
136.157
 21
44.2433
 31
0.0
  0
LINE
  8
0
 62
     0
 10
136.157
 20
44.2433
 30
0.0
 11
136.958
 21
44.2433
 31
0.0
  0
LINE
  8
0
 62
     0
 10
136.958
 20
44.2433
 30
0.0
 11
136.958
 21
57.0438
 31
0.0
  0
LINE
  8
0
 62
     0
 10
136.958
 20
57.0438
 30
0.0
 11
136.157
 21
57.0438
 31
0.0
  0
LINE
  8
0
 62
     0
 10
136.157
 20
57.0438
 30
0.0
 11
136.157
 21
57.6432
 31
0.0
  0
LINE
  8
0
 62
     0
 10
136.157
 20
57.6432
 30
0.0
 11
122.157
 21
57.6432
 31
0.0
  0
LINE
  8
0
 62
     0
 10
103.107
 20
57.6432
 30
0.0
 11
103.107
 21
57.0438
 31
0.0
  0
LINE
  8
0
 62
     0
 10
103.107
 20
57.0438
 30
0.0
 11
102.307
 21
57.0438
 31
0.0
  0
LINE
  8
0
 62
     0
 10
102.307
 20
57.0438
 30
0.0
 11
102.307
 21
44.2433
 31
0.0
  0
LINE
  8
0
 62
     0
 10
102.307
 20
44.2433
 30
0.0
 11
103.107
 21
44.2433
 31
0.0
  0
LINE
  8
0
 62
     0
 10
103.107
 20
44.2433
 30
0.0
 11
103.107
 21
43.6439
 31
0.0
  0
LINE
  8
0
 62
     0
 10
103.107
 20
43.6439
 30
0.0
 11
117.107
 21
43.6439
 31
0.0
  0
LINE
  8
0
 62
     0
 10
117.107
 20
43.6439
 30
0.0
 11
117.107
 21
44.2433
 31
0.0
  0
LINE
  8
0
 62
     0
 10
117.107
 20
44.2433
 30
0.0
 11
117.908
 21
44.2433
 31
0.0
  0
LINE
  8
0
 62
     0
 10
117.908
 20
44.2433
 30
0.0
 11
117.908
 21
57.0438
 31
0.0
  0
LINE
  8
0
 62
     0
 10
117.908
 20
57.0438
 30
0.0
 11
117.107
 21
57.0438
 31
0.0
  0
LINE
  8
0
 62
     0
 10
117.107
 20
57.0438
 30
0.0
 11
117.107
 21
57.6432
 31
0.0
  0
LINE
  8
0
 62
     0
 10
117.107
 20
57.6432
 30
0.0
 11
103.107
 21
57.6432
 31
0.0
  0
LINE
  8
0
 62
     0
 10
84.0574
 20
57.6432
 30
0.0
 11
84.0574
 21
57.0438
 31
0.0
  0
LINE
  8
0
 62
     0
 10
84.0574
 20
57.0438
 30
0.0
 11
83.257
 21
57.0438
 31
0.0
  0
LINE
  8
0
 62
     0
 10
83.257
 20
57.0438
 30
0.0
 11
83.257
 21
44.2433
 31
0.0
  0
LINE
  8
0
 62
     0
 10
83.257
 20
44.2433
 30
0.0
 11
84.0574
 21
44.2433
 31
0.0
  0
LINE
  8
0
 62
     0
 10
84.0574
 20
44.2433
 30
0.0
 11
84.0574
 21
43.6439
 31
0.0
  0
LINE
  8
0
 62
     0
 10
84.0574
 20
43.6439
 30
0.0
 11
98.0571
 21
43.6439
 31
0.0
  0
LINE
  8
0
 62
     0
 10
98.0571
 20
43.6439
 30
0.0
 11
98.0571
 21
44.2433
 31
0.0
  0
LINE
  8
0
 62
     0
 10
98.0571
 20
44.2433
 30
0.0
 11
98.8579
 21
44.2433
 31
0.0
  0
LINE
  8
0
 62
     0
 10
98.8579
 20
44.2433
 30
0.0
 11
98.8579
 21
57.0438
 31
0.0
  0
LINE
  8
0
 62
     0
 10
98.8579
 20
57.0438
 30
0.0
 11
98.0571
 21
57.0438
 31
0.0
  0
LINE
  8
0
 62
     0
 10
98.0571
 20
57.0438
 30
0.0
 11
98.0571
 21
57.6432
 31
0.0
  0
LINE
  8
0
 62
     0
 10
98.0571
 20
57.6432
 30
0.0
 11
84.0574
 21
57.6432
 31
0.0
  0
LINE
  8
0
 62
     0
 10
65.0074
 20
57.6432
 30
0.0
 11
65.0074
 21
57.0438
 31
0.0
  0
LINE
  8
0
 62
     0
 10
65.0074
 20
57.0438
 30
0.0
 11
64.207
 21
57.0438
 31
0.0
  0
LINE
  8
0
 62
     0
 10
64.207
 20
57.0438
 30
0.0
 11
64.207
 21
44.2433
 31
0.0
  0
LINE
  8
0
 62
     0
 10
64.207
 20
44.2433
 30
0.0
 11
65.0074
 21
44.2433
 31
0.0
  0
LINE
  8
0
 62
     0
 10
65.0074
 20
44.2433
 30
0.0
 11
65.0074
 21
43.6439
 31
0.0
  0
LINE
  8
0
 62
     0
 10
65.0074
 20
43.6439
 30
0.0
 11
79.0071
 21
43.6439
 31
0.0
  0
LINE
  8
0
 62
     0
 10
79.0071
 20
43.6439
 30
0.0
 11
79.0071
 21
44.2433
 31
0.0
  0
LINE
  8
0
 62
     0
 10
79.0071
 20
44.2433
 30
0.0
 11
79.8079
 21
44.2433
 31
0.0
  0
LINE
  8
0
 62
     0
 10
79.8079
 20
44.2433
 30
0.0
 11
79.8079
 21
57.0438
 31
0.0
  0
LINE
  8
0
 62
     0
 10
79.8079
 20
57.0438
 30
0.0
 11
79.0071
 21
57.0438
 31
0.0
  0
LINE
  8
0
 62
     0
 10
79.0071
 20
57.0438
 30
0.0
 11
79.0071
 21
57.6432
 31
0.0
  0
LINE
  8
0
 62
     0
 10
79.0071
 20
57.6432
 30
0.0
 11
65.0074
 21
57.6432
 31
0.0
  0
LINE
  8
0
 62
     0
 10
45.9574
 20
57.6432
 30
0.0
 11
45.9574
 21
57.0438
 31
0.0
  0
LINE
  8
0
 62
     0
 10
45.9574
 20
57.0438
 30
0.0
 11
45.157
 21
57.0438
 31
0.0
  0
LINE
  8
0
 62
     0
 10
45.157
 20
57.0438
 30
0.0
 11
45.157
 21
44.2433
 31
0.0
  0
LINE
  8
0
 62
     0
 10
45.157
 20
44.2433
 30
0.0
 11
45.9574
 21
44.2433
 31
0.0
  0
LINE
  8
0
 62
     0
 10
45.9574
 20
44.2433
 30
0.0
 11
45.9574
 21
43.6439
 31
0.0
  0
LINE
  8
0
 62
     0
 10
45.9574
 20
43.6439
 30
0.0
 11
59.9571
 21
43.6439
 31
0.0
  0
LINE
  8
0
 62
     0
 10
59.9571
 20
43.6439
 30
0.0
 11
59.9571
 21
44.2433
 31
0.0
  0
LINE
  8
0
 62
     0
 10
59.9571
 20
44.2433
 30
0.0
 11
60.7579
 21
44.2433
 31
0.0
  0
LINE
  8
0
 62
     0
 10
60.7579
 20
44.2433
 30
0.0
 11
60.7579
 21
57.0438
 31
0.0
  0
LINE
  8
0
 62
     0
 10
60.7579
 20
57.0438
 30
0.0
 11
59.9571
 21
57.0438
 31
0.0
  0
LINE
  8
0
 62
     0
 10
59.9571
 20
57.0438
 30
0.0
 11
59.9571
 21
57.6432
 31
0.0
  0
LINE
  8
0
 62
     0
 10
59.9571
 20
57.6432
 30
0.0
 11
45.9574
 21
57.6432
 31
0.0
  0
LINE
  8
0
 62
     0
 10
19.7638
 20
57.6432
 30
0.0
 11
19.7638
 21
57.0438
 31
0.0
  0
LINE
  8
0
 62
     0
 10
19.7638
 20
57.0438
 30
0.0
 11
18.9632
 21
57.0438
 31
0.0
  0
LINE
  8
0
 62
     0
 10
18.9632
 20
57.0438
 30
0.0
 11
18.9632
 21
44.2433
 31
0.0
  0
LINE
  8
0
 62
     0
 10
18.9632
 20
44.2433
 30
0.0
 11
19.7638
 21
44.2433
 31
0.0
  0
LINE
  8
0
 62
     0
 10
19.7638
 20
44.2433
 30
0.0
 11
19.7638
 21
43.6439
 31
0.0
  0
LINE
  8
0
 62
     0
 10
19.7638
 20
43.6439
 30
0.0
 11
33.7633
 21
43.6439
 31
0.0
  0
LINE
  8
0
 62
     0
 10
33.7633
 20
43.6439
 30
0.0
 11
33.7633
 21
44.2433
 31
0.0
  0
LINE
  8
0
 62
     0
 10
33.7633
 20
44.2433
 30
0.0
 11
34.564
 21
44.2433
 31
0.0
  0
LINE
  8
0
 62
     0
 10
34.564
 20
44.2433
 30
0.0
 11
34.564
 21
57.0438
 31
0.0
  0
LINE
  8
0
 62
     0
 10
34.564
 20
57.0438
 30
0.0
 11
33.7633
 21
57.0438
 31
0.0
  0
LINE
  8
0
 62
     0
 10
33.7633
 20
57.0438
 30
0.0
 11
33.7633
 21
57.6432
 31
0.0
  0
LINE
  8
0
 62
     0
 10
33.7633
 20
57.6432
 30
0.0
 11
19.7638
 21
57.6432
 31
0.0
  0
LINE
  8
0
 62
     0
 10
441.244
 20
76.6932
 30
0.0
 11
441.244
 21
76.0938
 31
0.0
  0
LINE
  8
0
 62
     0
 10
441.244
 20
76.0938
 30
0.0
 11
440.447
 21
76.0938
 31
0.0
  0
LINE
  8
0
 62
     0
 10
440.447
 20
76.0938
 30
0.0
 11
440.447
 21
63.2933
 31
0.0
  0
LINE
  8
0
 62
     0
 10
440.447
 20
63.2933
 30
0.0
 11
441.244
 21
63.2933
 31
0.0
  0
LINE
  8
0
 62
     0
 10
441.244
 20
63.2933
 30
0.0
 11
441.244
 21
62.6939
 31
0.0
  0
LINE
  8
0
 62
     0
 10
441.244
 20
62.6939
 30
0.0
 11
455.246
 21
62.6939
 31
0.0
  0
LINE
  8
0
 62
     0
 10
455.246
 20
62.6939
 30
0.0
 11
455.246
 21
63.2933
 31
0.0
  0
LINE
  8
0
 62
     0
 10
455.246
 20
63.2933
 30
0.0
 11
456.046
 21
63.2933
 31
0.0
  0
LINE
  8
0
 62
     0
 10
456.046
 20
63.2933
 30
0.0
 11
456.046
 21
76.0938
 31
0.0
  0
LINE
  8
0
 62
     0
 10
456.046
 20
76.0938
 30
0.0
 11
455.246
 21
76.0938
 31
0.0
  0
LINE
  8
0
 62
     0
 10
455.246
 20
76.0938
 30
0.0
 11
455.246
 21
76.6932
 31
0.0
  0
LINE
  8
0
 62
     0
 10
455.246
 20
76.6932
 30
0.0
 11
441.244
 21
76.6932
 31
0.0
  0
LINE
  8
0
 62
     0
 10
422.194
 20
76.6932
 30
0.0
 11
422.194
 21
76.0938
 31
0.0
  0
LINE
  8
0
 62
     0
 10
422.194
 20
76.0938
 30
0.0
 11
421.397
 21
76.0938
 31
0.0
  0
LINE
  8
0
 62
     0
 10
421.397
 20
76.0938
 30
0.0
 11
421.397
 21
63.2933
 31
0.0
  0
LINE
  8
0
 62
     0
 10
421.397
 20
63.2933
 30
0.0
 11
422.194
 21
63.2933
 31
0.0
  0
LINE
  8
0
 62
     0
 10
422.194
 20
63.2933
 30
0.0
 11
422.194
 21
62.6939
 31
0.0
  0
LINE
  8
0
 62
     0
 10
422.194
 20
62.6939
 30
0.0
 11
436.196
 21
62.6939
 31
0.0
  0
LINE
  8
0
 62
     0
 10
436.196
 20
62.6939
 30
0.0
 11
436.196
 21
63.2933
 31
0.0
  0
LINE
  8
0
 62
     0
 10
436.196
 20
63.2933
 30
0.0
 11
436.996
 21
63.2933
 31
0.0
  0
LINE
  8
0
 62
     0
 10
436.996
 20
63.2933
 30
0.0
 11
436.996
 21
76.0938
 31
0.0
  0
LINE
  8
0
 62
     0
 10
436.996
 20
76.0938
 30
0.0
 11
436.196
 21
76.0938
 31
0.0
  0
LINE
  8
0
 62
     0
 10
436.196
 20
76.0938
 30
0.0
 11
436.196
 21
76.6932
 31
0.0
  0
LINE
  8
0
 62
     0
 10
436.196
 20
76.6932
 30
0.0
 11
422.194
 21
76.6932
 31
0.0
  0
LINE
  8
0
 62
     0
 10
403.144
 20
76.6932
 30
0.0
 11
403.144
 21
76.0938
 31
0.0
  0
LINE
  8
0
 62
     0
 10
403.144
 20
76.0938
 30
0.0
 11
402.347
 21
76.0938
 31
0.0
  0
LINE
  8
0
 62
     0
 10
402.347
 20
76.0938
 30
0.0
 11
402.347
 21
63.2933
 31
0.0
  0
LINE
  8
0
 62
     0
 10
402.347
 20
63.2933
 30
0.0
 11
403.144
 21
63.2933
 31
0.0
  0
LINE
  8
0
 62
     0
 10
403.144
 20
63.2933
 30
0.0
 11
403.144
 21
62.6939
 31
0.0
  0
LINE
  8
0
 62
     0
 10
403.144
 20
62.6939
 30
0.0
 11
417.146
 21
62.6939
 31
0.0
  0
LINE
  8
0
 62
     0
 10
417.146
 20
62.6939
 30
0.0
 11
417.146
 21
63.2933
 31
0.0
  0
LINE
  8
0
 62
     0
 10
417.146
 20
63.2933
 30
0.0
 11
417.946
 21
63.2933
 31
0.0
  0
LINE
  8
0
 62
     0
 10
417.946
 20
63.2933
 30
0.0
 11
417.946
 21
76.0938
 31
0.0
  0
LINE
  8
0
 62
     0
 10
417.946
 20
76.0938
 30
0.0
 11
417.146
 21
76.0938
 31
0.0
  0
LINE
  8
0
 62
     0
 10
417.146
 20
76.0938
 30
0.0
 11
417.146
 21
76.6932
 31
0.0
  0
LINE
  8
0
 62
     0
 10
417.146
 20
76.6932
 30
0.0
 11
403.144
 21
76.6932
 31
0.0
  0
LINE
  8
0
 62
     0
 10
384.094
 20
76.6932
 30
0.0
 11
384.094
 21
76.0938
 31
0.0
  0
LINE
  8
0
 62
     0
 10
384.094
 20
76.0938
 30
0.0
 11
383.297
 21
76.0938
 31
0.0
  0
LINE
  8
0
 62
     0
 10
383.297
 20
76.0938
 30
0.0
 11
383.297
 21
63.2933
 31
0.0
  0
LINE
  8
0
 62
     0
 10
383.297
 20
63.2933
 30
0.0
 11
384.094
 21
63.2933
 31
0.0
  0
LINE
  8
0
 62
     0
 10
384.094
 20
63.2933
 30
0.0
 11
384.094
 21
62.6939
 31
0.0
  0
LINE
  8
0
 62
     0
 10
384.094
 20
62.6939
 30
0.0
 11
398.096
 21
62.6939
 31
0.0
  0
LINE
  8
0
 62
     0
 10
398.096
 20
62.6939
 30
0.0
 11
398.096
 21
63.2933
 31
0.0
  0
LINE
  8
0
 62
     0
 10
398.096
 20
63.2933
 30
0.0
 11
398.896
 21
63.2933
 31
0.0
  0
LINE
  8
0
 62
     0
 10
398.896
 20
63.2933
 30
0.0
 11
398.896
 21
76.0938
 31
0.0
  0
LINE
  8
0
 62
     0
 10
398.896
 20
76.0938
 30
0.0
 11
398.096
 21
76.0938
 31
0.0
  0
LINE
  8
0
 62
     0
 10
398.096
 20
76.0938
 30
0.0
 11
398.096
 21
76.6932
 31
0.0
  0
LINE
  8
0
 62
     0
 10
398.096
 20
76.6932
 30
0.0
 11
384.094
 21
76.6932
 31
0.0
  0
LINE
  8
0
 62
     0
 10
336.47
 20
76.6932
 30
0.0
 11
336.47
 21
76.0938
 31
0.0
  0
LINE
  8
0
 62
     0
 10
336.47
 20
76.0938
 30
0.0
 11
335.671
 21
76.0938
 31
0.0
  0
LINE
  8
0
 62
     0
 10
335.671
 20
76.0938
 30
0.0
 11
335.671
 21
63.2933
 31
0.0
  0
LINE
  8
0
 62
     0
 10
335.671
 20
63.2933
 30
0.0
 11
336.47
 21
63.2933
 31
0.0
  0
LINE
  8
0
 62
     0
 10
336.47
 20
63.2933
 30
0.0
 11
336.47
 21
62.6939
 31
0.0
  0
LINE
  8
0
 62
     0
 10
336.47
 20
62.6939
 30
0.0
 11
350.471
 21
62.6939
 31
0.0
  0
LINE
  8
0
 62
     0
 10
350.471
 20
62.6939
 30
0.0
 11
350.471
 21
63.2933
 31
0.0
  0
LINE
  8
0
 62
     0
 10
350.471
 20
63.2933
 30
0.0
 11
351.27
 21
63.2933
 31
0.0
  0
LINE
  8
0
 62
     0
 10
351.27
 20
63.2933
 30
0.0
 11
351.27
 21
76.0938
 31
0.0
  0
LINE
  8
0
 62
     0
 10
351.27
 20
76.0938
 30
0.0
 11
350.471
 21
76.0938
 31
0.0
  0
LINE
  8
0
 62
     0
 10
350.471
 20
76.0938
 30
0.0
 11
350.471
 21
76.6932
 31
0.0
  0
LINE
  8
0
 62
     0
 10
350.471
 20
76.6932
 30
0.0
 11
336.47
 21
76.6932
 31
0.0
  0
LINE
  8
0
 62
     0
 10
265.032
 20
76.6932
 30
0.0
 11
265.032
 21
76.0938
 31
0.0
  0
LINE
  8
0
 62
     0
 10
265.032
 20
76.0938
 30
0.0
 11
264.232
 21
76.0938
 31
0.0
  0
LINE
  8
0
 62
     0
 10
264.232
 20
76.0938
 30
0.0
 11
264.232
 21
63.2933
 31
0.0
  0
LINE
  8
0
 62
     0
 10
264.232
 20
63.2933
 30
0.0
 11
265.032
 21
63.2933
 31
0.0
  0
LINE
  8
0
 62
     0
 10
265.032
 20
63.2933
 30
0.0
 11
265.032
 21
62.6939
 31
0.0
  0
LINE
  8
0
 62
     0
 10
265.032
 20
62.6939
 30
0.0
 11
279.032
 21
62.6939
 31
0.0
  0
LINE
  8
0
 62
     0
 10
279.032
 20
62.6939
 30
0.0
 11
279.032
 21
63.2933
 31
0.0
  0
LINE
  8
0
 62
     0
 10
279.032
 20
63.2933
 30
0.0
 11
279.833
 21
63.2933
 31
0.0
  0
LINE
  8
0
 62
     0
 10
279.833
 20
63.2933
 30
0.0
 11
279.833
 21
76.0938
 31
0.0
  0
LINE
  8
0
 62
     0
 10
279.833
 20
76.0938
 30
0.0
 11
279.032
 21
76.0938
 31
0.0
  0
LINE
  8
0
 62
     0
 10
279.032
 20
76.0938
 30
0.0
 11
279.032
 21
76.6932
 31
0.0
  0
LINE
  8
0
 62
     0
 10
279.032
 20
76.6932
 30
0.0
 11
265.032
 21
76.6932
 31
0.0
  0
LINE
  8
0
 62
     0
 10
245.982
 20
76.6932
 30
0.0
 11
245.982
 21
76.0938
 31
0.0
  0
LINE
  8
0
 62
     0
 10
245.982
 20
76.0938
 30
0.0
 11
245.182
 21
76.0938
 31
0.0
  0
LINE
  8
0
 62
     0
 10
245.182
 20
76.0938
 30
0.0
 11
245.182
 21
63.2933
 31
0.0
  0
LINE
  8
0
 62
     0
 10
245.182
 20
63.2933
 30
0.0
 11
245.982
 21
63.2933
 31
0.0
  0
LINE
  8
0
 62
     0
 10
245.982
 20
63.2933
 30
0.0
 11
245.982
 21
62.6939
 31
0.0
  0
LINE
  8
0
 62
     0
 10
245.982
 20
62.6939
 30
0.0
 11
259.982
 21
62.6939
 31
0.0
  0
LINE
  8
0
 62
     0
 10
259.982
 20
62.6939
 30
0.0
 11
259.982
 21
63.2933
 31
0.0
  0
LINE
  8
0
 62
     0
 10
259.982
 20
63.2933
 30
0.0
 11
260.783
 21
63.2933
 31
0.0
  0
LINE
  8
0
 62
     0
 10
260.783
 20
63.2933
 30
0.0
 11
260.783
 21
76.0938
 31
0.0
  0
LINE
  8
0
 62
     0
 10
260.783
 20
76.0938
 30
0.0
 11
259.982
 21
76.0938
 31
0.0
  0
LINE
  8
0
 62
     0
 10
259.982
 20
76.0938
 30
0.0
 11
259.982
 21
76.6932
 31
0.0
  0
LINE
  8
0
 62
     0
 10
259.982
 20
76.6932
 30
0.0
 11
245.982
 21
76.6932
 31
0.0
  0
LINE
  8
0
 62
     0
 10
226.932
 20
76.6932
 30
0.0
 11
226.932
 21
76.0938
 31
0.0
  0
LINE
  8
0
 62
     0
 10
226.932
 20
76.0938
 30
0.0
 11
226.132
 21
76.0938
 31
0.0
  0
LINE
  8
0
 62
     0
 10
226.132
 20
76.0938
 30
0.0
 11
226.132
 21
63.2933
 31
0.0
  0
LINE
  8
0
 62
     0
 10
226.132
 20
63.2933
 30
0.0
 11
226.932
 21
63.2933
 31
0.0
  0
LINE
  8
0
 62
     0
 10
226.932
 20
63.2933
 30
0.0
 11
226.932
 21
62.6939
 31
0.0
  0
LINE
  8
0
 62
     0
 10
226.932
 20
62.6939
 30
0.0
 11
240.932
 21
62.6939
 31
0.0
  0
LINE
  8
0
 62
     0
 10
240.932
 20
62.6939
 30
0.0
 11
240.932
 21
63.2933
 31
0.0
  0
LINE
  8
0
 62
     0
 10
240.932
 20
63.2933
 30
0.0
 11
241.733
 21
63.2933
 31
0.0
  0
LINE
  8
0
 62
     0
 10
241.733
 20
63.2933
 30
0.0
 11
241.733
 21
76.0938
 31
0.0
  0
LINE
  8
0
 62
     0
 10
241.733
 20
76.0938
 30
0.0
 11
240.932
 21
76.0938
 31
0.0
  0
LINE
  8
0
 62
     0
 10
240.932
 20
76.0938
 30
0.0
 11
240.932
 21
76.6932
 31
0.0
  0
LINE
  8
0
 62
     0
 10
240.932
 20
76.6932
 30
0.0
 11
226.932
 21
76.6932
 31
0.0
  0
LINE
  8
0
 62
     0
 10
207.882
 20
76.6932
 30
0.0
 11
207.882
 21
76.0938
 31
0.0
  0
LINE
  8
0
 62
     0
 10
207.882
 20
76.0938
 30
0.0
 11
207.082
 21
76.0938
 31
0.0
  0
LINE
  8
0
 62
     0
 10
207.082
 20
76.0938
 30
0.0
 11
207.082
 21
63.2933
 31
0.0
  0
LINE
  8
0
 62
     0
 10
207.082
 20
63.2933
 30
0.0
 11
207.882
 21
63.2933
 31
0.0
  0
LINE
  8
0
 62
     0
 10
207.882
 20
63.2933
 30
0.0
 11
207.882
 21
62.6939
 31
0.0
  0
LINE
  8
0
 62
     0
 10
207.882
 20
62.6939
 30
0.0
 11
221.882
 21
62.6939
 31
0.0
  0
LINE
  8
0
 62
     0
 10
221.882
 20
62.6939
 30
0.0
 11
221.882
 21
63.2933
 31
0.0
  0
LINE
  8
0
 62
     0
 10
221.882
 20
63.2933
 30
0.0
 11
222.683
 21
63.2933
 31
0.0
  0
LINE
  8
0
 62
     0
 10
222.683
 20
63.2933
 30
0.0
 11
222.683
 21
76.0938
 31
0.0
  0
LINE
  8
0
 62
     0
 10
222.683
 20
76.0938
 30
0.0
 11
221.882
 21
76.0938
 31
0.0
  0
LINE
  8
0
 62
     0
 10
221.882
 20
76.0938
 30
0.0
 11
221.882
 21
76.6932
 31
0.0
  0
LINE
  8
0
 62
     0
 10
221.882
 20
76.6932
 30
0.0
 11
207.882
 21
76.6932
 31
0.0
  0
LINE
  8
0
 62
     0
 10
188.832
 20
76.6932
 30
0.0
 11
188.832
 21
76.0938
 31
0.0
  0
LINE
  8
0
 62
     0
 10
188.832
 20
76.0938
 30
0.0
 11
188.032
 21
76.0938
 31
0.0
  0
LINE
  8
0
 62
     0
 10
188.032
 20
76.0938
 30
0.0
 11
188.032
 21
63.2933
 31
0.0
  0
LINE
  8
0
 62
     0
 10
188.032
 20
63.2933
 30
0.0
 11
188.832
 21
63.2933
 31
0.0
  0
LINE
  8
0
 62
     0
 10
188.832
 20
63.2933
 30
0.0
 11
188.832
 21
62.6939
 31
0.0
  0
LINE
  8
0
 62
     0
 10
188.832
 20
62.6939
 30
0.0
 11
202.832
 21
62.6939
 31
0.0
  0
LINE
  8
0
 62
     0
 10
202.832
 20
62.6939
 30
0.0
 11
202.832
 21
63.2933
 31
0.0
  0
LINE
  8
0
 62
     0
 10
202.832
 20
63.2933
 30
0.0
 11
203.633
 21
63.2933
 31
0.0
  0
LINE
  8
0
 62
     0
 10
203.633
 20
63.2933
 30
0.0
 11
203.633
 21
76.0938
 31
0.0
  0
LINE
  8
0
 62
     0
 10
203.633
 20
76.0938
 30
0.0
 11
202.832
 21
76.0938
 31
0.0
  0
LINE
  8
0
 62
     0
 10
202.832
 20
76.0938
 30
0.0
 11
202.832
 21
76.6932
 31
0.0
  0
LINE
  8
0
 62
     0
 10
202.832
 20
76.6932
 30
0.0
 11
188.832
 21
76.6932
 31
0.0
  0
LINE
  8
0
 62
     0
 10
169.782
 20
76.6932
 30
0.0
 11
169.782
 21
76.0938
 31
0.0
  0
LINE
  8
0
 62
     0
 10
169.782
 20
76.0938
 30
0.0
 11
168.982
 21
76.0938
 31
0.0
  0
LINE
  8
0
 62
     0
 10
168.982
 20
76.0938
 30
0.0
 11
168.982
 21
63.2933
 31
0.0
  0
LINE
  8
0
 62
     0
 10
168.982
 20
63.2933
 30
0.0
 11
169.782
 21
63.2933
 31
0.0
  0
LINE
  8
0
 62
     0
 10
169.782
 20
63.2933
 30
0.0
 11
169.782
 21
62.6939
 31
0.0
  0
LINE
  8
0
 62
     0
 10
169.782
 20
62.6939
 30
0.0
 11
183.782
 21
62.6939
 31
0.0
  0
LINE
  8
0
 62
     0
 10
183.782
 20
62.6939
 30
0.0
 11
183.782
 21
63.2933
 31
0.0
  0
LINE
  8
0
 62
     0
 10
183.782
 20
63.2933
 30
0.0
 11
184.583
 21
63.2933
 31
0.0
  0
LINE
  8
0
 62
     0
 10
184.583
 20
63.2933
 30
0.0
 11
184.583
 21
76.0938
 31
0.0
  0
LINE
  8
0
 62
     0
 10
184.583
 20
76.0938
 30
0.0
 11
183.782
 21
76.0938
 31
0.0
  0
LINE
  8
0
 62
     0
 10
183.782
 20
76.0938
 30
0.0
 11
183.782
 21
76.6932
 31
0.0
  0
LINE
  8
0
 62
     0
 10
183.782
 20
76.6932
 30
0.0
 11
169.782
 21
76.6932
 31
0.0
  0
LINE
  8
0
 62
     0
 10
150.732
 20
76.6932
 30
0.0
 11
150.732
 21
76.0938
 31
0.0
  0
LINE
  8
0
 62
     0
 10
150.732
 20
76.0938
 30
0.0
 11
149.932
 21
76.0938
 31
0.0
  0
LINE
  8
0
 62
     0
 10
149.932
 20
76.0938
 30
0.0
 11
149.932
 21
63.2933
 31
0.0
  0
LINE
  8
0
 62
     0
 10
149.932
 20
63.2933
 30
0.0
 11
150.732
 21
63.2933
 31
0.0
  0
LINE
  8
0
 62
     0
 10
150.732
 20
63.2933
 30
0.0
 11
150.732
 21
62.6939
 31
0.0
  0
LINE
  8
0
 62
     0
 10
150.732
 20
62.6939
 30
0.0
 11
164.732
 21
62.6939
 31
0.0
  0
LINE
  8
0
 62
     0
 10
164.732
 20
62.6939
 30
0.0
 11
164.732
 21
63.2933
 31
0.0
  0
LINE
  8
0
 62
     0
 10
164.732
 20
63.2933
 30
0.0
 11
165.533
 21
63.2933
 31
0.0
  0
LINE
  8
0
 62
     0
 10
165.533
 20
63.2933
 30
0.0
 11
165.533
 21
76.0938
 31
0.0
  0
LINE
  8
0
 62
     0
 10
165.533
 20
76.0938
 30
0.0
 11
164.732
 21
76.0938
 31
0.0
  0
LINE
  8
0
 62
     0
 10
164.732
 20
76.0938
 30
0.0
 11
164.732
 21
76.6932
 31
0.0
  0
LINE
  8
0
 62
     0
 10
164.732
 20
76.6932
 30
0.0
 11
150.732
 21
76.6932
 31
0.0
  0
LINE
  8
0
 62
     0
 10
131.682
 20
76.6932
 30
0.0
 11
131.682
 21
76.0938
 31
0.0
  0
LINE
  8
0
 62
     0
 10
131.682
 20
76.0938
 30
0.0
 11
130.882
 21
76.0938
 31
0.0
  0
LINE
  8
0
 62
     0
 10
130.882
 20
76.0938
 30
0.0
 11
130.882
 21
63.2933
 31
0.0
  0
LINE
  8
0
 62
     0
 10
130.882
 20
63.2933
 30
0.0
 11
131.682
 21
63.2933
 31
0.0
  0
LINE
  8
0
 62
     0
 10
131.682
 20
63.2933
 30
0.0
 11
131.682
 21
62.6939
 31
0.0
  0
LINE
  8
0
 62
     0
 10
131.682
 20
62.6939
 30
0.0
 11
145.682
 21
62.6939
 31
0.0
  0
LINE
  8
0
 62
     0
 10
145.682
 20
62.6939
 30
0.0
 11
145.682
 21
63.2933
 31
0.0
  0
LINE
  8
0
 62
     0
 10
145.682
 20
63.2933
 30
0.0
 11
146.483
 21
63.2933
 31
0.0
  0
LINE
  8
0
 62
     0
 10
146.483
 20
63.2933
 30
0.0
 11
146.483
 21
76.0938
 31
0.0
  0
LINE
  8
0
 62
     0
 10
146.483
 20
76.0938
 30
0.0
 11
145.682
 21
76.0938
 31
0.0
  0
LINE
  8
0
 62
     0
 10
145.682
 20
76.0938
 30
0.0
 11
145.682
 21
76.6932
 31
0.0
  0
LINE
  8
0
 62
     0
 10
145.682
 20
76.6932
 30
0.0
 11
131.682
 21
76.6932
 31
0.0
  0
LINE
  8
0
 62
     0
 10
112.632
 20
76.6932
 30
0.0
 11
112.632
 21
76.0938
 31
0.0
  0
LINE
  8
0
 62
     0
 10
112.632
 20
76.0938
 30
0.0
 11
111.832
 21
76.0938
 31
0.0
  0
LINE
  8
0
 62
     0
 10
111.832
 20
76.0938
 30
0.0
 11
111.832
 21
63.2933
 31
0.0
  0
LINE
  8
0
 62
     0
 10
111.832
 20
63.2933
 30
0.0
 11
112.632
 21
63.2933
 31
0.0
  0
LINE
  8
0
 62
     0
 10
112.632
 20
63.2933
 30
0.0
 11
112.632
 21
62.6939
 31
0.0
  0
LINE
  8
0
 62
     0
 10
112.632
 20
62.6939
 30
0.0
 11
126.632
 21
62.6939
 31
0.0
  0
LINE
  8
0
 62
     0
 10
126.632
 20
62.6939
 30
0.0
 11
126.632
 21
63.2933
 31
0.0
  0
LINE
  8
0
 62
     0
 10
126.632
 20
63.2933
 30
0.0
 11
127.433
 21
63.2933
 31
0.0
  0
LINE
  8
0
 62
     0
 10
127.433
 20
63.2933
 30
0.0
 11
127.433
 21
76.0938
 31
0.0
  0
LINE
  8
0
 62
     0
 10
127.433
 20
76.0938
 30
0.0
 11
126.632
 21
76.0938
 31
0.0
  0
LINE
  8
0
 62
     0
 10
126.632
 20
76.0938
 30
0.0
 11
126.632
 21
76.6932
 31
0.0
  0
LINE
  8
0
 62
     0
 10
126.632
 20
76.6932
 30
0.0
 11
112.632
 21
76.6932
 31
0.0
  0
LINE
  8
0
 62
     0
 10
93.5824
 20
76.6932
 30
0.0
 11
93.5824
 21
76.0938
 31
0.0
  0
LINE
  8
0
 62
     0
 10
93.5824
 20
76.0938
 30
0.0
 11
92.782
 21
76.0938
 31
0.0
  0
LINE
  8
0
 62
     0
 10
92.782
 20
76.0938
 30
0.0
 11
92.782
 21
63.2933
 31
0.0
  0
LINE
  8
0
 62
     0
 10
92.782
 20
63.2933
 30
0.0
 11
93.5824
 21
63.2933
 31
0.0
  0
LINE
  8
0
 62
     0
 10
93.5824
 20
63.2933
 30
0.0
 11
93.5824
 21
62.6939
 31
0.0
  0
LINE
  8
0
 62
     0
 10
93.5824
 20
62.6939
 30
0.0
 11
107.582
 21
62.6939
 31
0.0
  0
LINE
  8
0
 62
     0
 10
107.582
 20
62.6939
 30
0.0
 11
107.582
 21
63.2933
 31
0.0
  0
LINE
  8
0
 62
     0
 10
107.582
 20
63.2933
 30
0.0
 11
108.383
 21
63.2933
 31
0.0
  0
LINE
  8
0
 62
     0
 10
108.383
 20
63.2933
 30
0.0
 11
108.383
 21
76.0938
 31
0.0
  0
LINE
  8
0
 62
     0
 10
108.383
 20
76.0938
 30
0.0
 11
107.582
 21
76.0938
 31
0.0
  0
LINE
  8
0
 62
     0
 10
107.582
 20
76.0938
 30
0.0
 11
107.582
 21
76.6932
 31
0.0
  0
LINE
  8
0
 62
     0
 10
107.582
 20
76.6932
 30
0.0
 11
93.5824
 21
76.6932
 31
0.0
  0
LINE
  8
0
 62
     0
 10
74.5324
 20
76.6932
 30
0.0
 11
74.5324
 21
76.0938
 31
0.0
  0
LINE
  8
0
 62
     0
 10
74.5324
 20
76.0938
 30
0.0
 11
73.732
 21
76.0938
 31
0.0
  0
LINE
  8
0
 62
     0
 10
73.732
 20
76.0938
 30
0.0
 11
73.732
 21
63.2933
 31
0.0
  0
LINE
  8
0
 62
     0
 10
73.732
 20
63.2933
 30
0.0
 11
74.5324
 21
63.2933
 31
0.0
  0
LINE
  8
0
 62
     0
 10
74.5324
 20
63.2933
 30
0.0
 11
74.5324
 21
62.6939
 31
0.0
  0
LINE
  8
0
 62
     0
 10
74.5324
 20
62.6939
 30
0.0
 11
88.5321
 21
62.6939
 31
0.0
  0
LINE
  8
0
 62
     0
 10
88.5321
 20
62.6939
 30
0.0
 11
88.5321
 21
63.2933
 31
0.0
  0
LINE
  8
0
 62
     0
 10
88.5321
 20
63.2933
 30
0.0
 11
89.3329
 21
63.2933
 31
0.0
  0
LINE
  8
0
 62
     0
 10
89.3329
 20
63.2933
 30
0.0
 11
89.3329
 21
76.0938
 31
0.0
  0
LINE
  8
0
 62
     0
 10
89.3329
 20
76.0938
 30
0.0
 11
88.5321
 21
76.0938
 31
0.0
  0
LINE
  8
0
 62
     0
 10
88.5321
 20
76.0938
 30
0.0
 11
88.5321
 21
76.6932
 31
0.0
  0
LINE
  8
0
 62
     0
 10
88.5321
 20
76.6932
 30
0.0
 11
74.5324
 21
76.6932
 31
0.0
  0
LINE
  8
0
 62
     0
 10
55.4824
 20
76.6932
 30
0.0
 11
55.4824
 21
76.0938
 31
0.0
  0
LINE
  8
0
 62
     0
 10
55.4824
 20
76.0938
 30
0.0
 11
54.682
 21
76.0938
 31
0.0
  0
LINE
  8
0
 62
     0
 10
54.682
 20
76.0938
 30
0.0
 11
54.682
 21
63.2933
 31
0.0
  0
LINE
  8
0
 62
     0
 10
54.682
 20
63.2933
 30
0.0
 11
55.4824
 21
63.2933
 31
0.0
  0
LINE
  8
0
 62
     0
 10
55.4824
 20
63.2933
 30
0.0
 11
55.4824
 21
62.6939
 31
0.0
  0
LINE
  8
0
 62
     0
 10
55.4824
 20
62.6939
 30
0.0
 11
69.4821
 21
62.6939
 31
0.0
  0
LINE
  8
0
 62
     0
 10
69.4821
 20
62.6939
 30
0.0
 11
69.4821
 21
63.2933
 31
0.0
  0
LINE
  8
0
 62
     0
 10
69.4821
 20
63.2933
 30
0.0
 11
70.2829
 21
63.2933
 31
0.0
  0
LINE
  8
0
 62
     0
 10
70.2829
 20
63.2933
 30
0.0
 11
70.2829
 21
76.0938
 31
0.0
  0
LINE
  8
0
 62
     0
 10
70.2829
 20
76.0938
 30
0.0
 11
69.4821
 21
76.0938
 31
0.0
  0
LINE
  8
0
 62
     0
 10
69.4821
 20
76.0938
 30
0.0
 11
69.4821
 21
76.6932
 31
0.0
  0
LINE
  8
0
 62
     0
 10
69.4821
 20
76.6932
 30
0.0
 11
55.4824
 21
76.6932
 31
0.0
  0
LINE
  8
0
 62
     0
 10
36.4324
 20
76.6932
 30
0.0
 11
36.4324
 21
76.0938
 31
0.0
  0
LINE
  8
0
 62
     0
 10
36.4324
 20
76.0938
 30
0.0
 11
35.632
 21
76.0938
 31
0.0
  0
LINE
  8
0
 62
     0
 10
35.632
 20
76.0938
 30
0.0
 11
35.632
 21
63.2933
 31
0.0
  0
LINE
  8
0
 62
     0
 10
35.632
 20
63.2933
 30
0.0
 11
36.4324
 21
63.2933
 31
0.0
  0
LINE
  8
0
 62
     0
 10
36.4324
 20
63.2933
 30
0.0
 11
36.4324
 21
62.6939
 31
0.0
  0
LINE
  8
0
 62
     0
 10
36.4324
 20
62.6939
 30
0.0
 11
50.4321
 21
62.6939
 31
0.0
  0
LINE
  8
0
 62
     0
 10
50.4321
 20
62.6939
 30
0.0
 11
50.4321
 21
63.2933
 31
0.0
  0
LINE
  8
0
 62
     0
 10
50.4321
 20
63.2933
 30
0.0
 11
51.2329
 21
63.2933
 31
0.0
  0
LINE
  8
0
 62
     0
 10
51.2329
 20
63.2933
 30
0.0
 11
51.2329
 21
76.0938
 31
0.0
  0
LINE
  8
0
 62
     0
 10
51.2329
 20
76.0938
 30
0.0
 11
50.4321
 21
76.0938
 31
0.0
  0
LINE
  8
0
 62
     0
 10
50.4321
 20
76.0938
 30
0.0
 11
50.4321
 21
76.6932
 31
0.0
  0
LINE
  8
0
 62
     0
 10
50.4321
 20
76.6932
 30
0.0
 11
36.4324
 21
76.6932
 31
0.0
  0
LINE
  8
0
 62
     0
 10
15.0013
 20
76.6932
 30
0.0
 11
15.0013
 21
76.0938
 31
0.0
  0
LINE
  8
0
 62
     0
 10
15.0013
 20
76.0938
 30
0.0
 11
14.2021
 21
76.0938
 31
0.0
  0
LINE
  8
0
 62
     0
 10
14.2021
 20
76.0938
 30
0.0
 11
14.2021
 21
63.2933
 31
0.0
  0
LINE
  8
0
 62
     0
 10
14.2021
 20
63.2933
 30
0.0
 11
15.0013
 21
63.2933
 31
0.0
  0
LINE
  8
0
 62
     0
 10
15.0013
 20
63.2933
 30
0.0
 11
15.0013
 21
62.6939
 31
0.0
  0
LINE
  8
0
 62
     0
 10
15.0013
 20
62.6939
 30
0.0
 11
29.0008
 21
62.6939
 31
0.0
  0
LINE
  8
0
 62
     0
 10
29.0008
 20
62.6939
 30
0.0
 11
29.0008
 21
63.2933
 31
0.0
  0
LINE
  8
0
 62
     0
 10
29.0008
 20
63.2933
 30
0.0
 11
29.8015
 21
63.2933
 31
0.0
  0
LINE
  8
0
 62
     0
 10
29.8015
 20
63.2933
 30
0.0
 11
29.8015
 21
76.0938
 31
0.0
  0
LINE
  8
0
 62
     0
 10
29.8015
 20
76.0938
 30
0.0
 11
29.0008
 21
76.0938
 31
0.0
  0
LINE
  8
0
 62
     0
 10
29.0008
 20
76.0938
 30
0.0
 11
29.0008
 21
76.6932
 31
0.0
  0
LINE
  8
0
 62
     0
 10
29.0008
 20
76.6932
 30
0.0
 11
15.0013
 21
76.6932
 31
0.0
  0
LINE
  8
0
 62
     0
 10
292.964
 20
95.3188
 30
0.0
 11
292.964
 21
94.4933
 31
0.0
  0
LINE
  8
0
 62
     0
 10
292.964
 20
94.4933
 30
0.0
 11
286.694
 21
94.4933
 31
0.0
  0
LINE
  8
0
 62
     0
 10
286.694
 20
94.4933
 30
0.0
 11
286.694
 21
92.7682
 31
0.0
  0
LINE
  8
0
 62
     0
 10
286.694
 20
92.7682
 30
0.0
 11
285.714
 21
92.7682
 31
0.0
  0
LINE
  8
0
 62
     0
 10
285.714
 20
92.7682
 30
0.0
 11
285.714
 21
89.4676
 31
0.0
  0
LINE
  8
0
 62
     0
 10
285.714
 20
89.4676
 30
0.0
 11
286.694
 21
89.4676
 31
0.0
  0
LINE
  8
0
 62
     0
 10
286.694
 20
89.4676
 30
0.0
 11
286.694
 21
87.744
 31
0.0
  0
LINE
  8
0
 62
     0
 10
286.694
 20
87.744
 30
0.0
 11
291.163
 21
87.744
 31
0.0
  0
LINE
  8
0
 62
     0
 10
291.163
 20
87.744
 30
0.0
 11
291.163
 21
87.019
 31
0.0
  0
LINE
  8
0
 62
     0
 10
291.163
 20
87.019
 30
0.0
 11
287.063
 21
87.019
 31
0.0
  0
LINE
  8
0
 62
     0
 10
287.063
 20
87.019
 30
0.0
 11
287.063
 21
86.2182
 31
0.0
  0
LINE
  8
0
 62
     0
 10
287.063
 20
86.2182
 30
0.0
 11
286.464
 21
86.2182
 31
0.0
  0
LINE
  8
0
 62
     0
 10
286.464
 20
86.2182
 30
0.0
 11
286.464
 21
72.2189
 31
0.0
  0
LINE
  8
0
 62
     0
 10
286.464
 20
72.2189
 30
0.0
 11
287.063
 21
72.2189
 31
0.0
  0
LINE
  8
0
 62
     0
 10
287.063
 20
72.2189
 30
0.0
 11
287.063
 21
71.4181
 31
0.0
  0
LINE
  8
0
 62
     0
 10
287.063
 20
71.4181
 30
0.0
 11
291.163
 21
71.4181
 31
0.0
  0
LINE
  8
0
 62
     0
 10
291.163
 20
71.4181
 30
0.0
 11
291.163
 21
70.6935
 31
0.0
  0
LINE
  8
0
 62
     0
 10
291.163
 20
70.6935
 30
0.0
 11
286.694
 21
70.6935
 31
0.0
  0
LINE
  8
0
 62
     0
 10
286.694
 20
70.6935
 30
0.0
 11
286.694
 21
68.9681
 31
0.0
  0
LINE
  8
0
 62
     0
 10
286.694
 20
68.9681
 30
0.0
 11
285.714
 21
68.9681
 31
0.0
  0
LINE
  8
0
 62
     0
 10
285.714
 20
68.9681
 30
0.0
 11
285.714
 21
65.6689
 31
0.0
  0
LINE
  8
0
 62
     0
 10
285.714
 20
65.6689
 30
0.0
 11
286.694
 21
65.6689
 31
0.0
  0
LINE
  8
0
 62
     0
 10
286.694
 20
65.6689
 30
0.0
 11
286.694
 21
63.9438
 31
0.0
  0
LINE
  8
0
 62
     0
 10
286.694
 20
63.9438
 30
0.0
 11
292.964
 21
63.9438
 31
0.0
  0
LINE
  8
0
 62
     0
 10
292.964
 20
63.9438
 30
0.0
 11
292.964
 21
63.1183
 31
0.0
  0
LINE
  8
0
 62
     0
 10
292.964
 20
63.1183
 30
0.0
 11
295.763
 21
63.1183
 31
0.0
  0
LINE
  8
0
 62
     0
 10
295.763
 20
63.1183
 30
0.0
 11
295.763
 21
63.9438
 31
0.0
  0
LINE
  8
0
 62
     0
 10
295.763
 20
63.9438
 30
0.0
 11
298.993
 21
63.9438
 31
0.0
  0
LINE
  8
0
 62
     0
 10
298.993
 20
63.9438
 30
0.0
 11
298.993
 21
65.6689
 31
0.0
  0
LINE
  8
0
 62
     0
 10
298.993
 20
65.6689
 30
0.0
 11
299.913
 21
65.6689
 31
0.0
  0
LINE
  8
0
 62
     0
 10
299.913
 20
65.6689
 30
0.0
 11
299.913
 21
68.9681
 31
0.0
  0
LINE
  8
0
 62
     0
 10
299.913
 20
68.9681
 30
0.0
 11
298.993
 21
68.9681
 31
0.0
  0
LINE
  8
0
 62
     0
 10
298.993
 20
68.9681
 30
0.0
 11
298.993
 21
70.6935
 31
0.0
  0
LINE
  8
0
 62
     0
 10
298.993
 20
70.6935
 30
0.0
 11
295.763
 21
70.6935
 31
0.0
  0
LINE
  8
0
 62
     0
 10
295.763
 20
70.6935
 30
0.0
 11
295.763
 21
71.4181
 31
0.0
  0
LINE
  8
0
 62
     0
 10
295.763
 20
71.4181
 30
0.0
 11
299.864
 21
71.4181
 31
0.0
  0
LINE
  8
0
 62
     0
 10
299.864
 20
71.4181
 30
0.0
 11
299.864
 21
72.2189
 31
0.0
  0
LINE
  8
0
 62
     0
 10
299.864
 20
72.2189
 30
0.0
 11
300.463
 21
72.2189
 31
0.0
  0
LINE
  8
0
 62
     0
 10
300.463
 20
72.2189
 30
0.0
 11
300.463
 21
86.2182
 31
0.0
  0
LINE
  8
0
 62
     0
 10
300.463
 20
86.2182
 30
0.0
 11
299.864
 21
86.2182
 31
0.0
  0
LINE
  8
0
 62
     0
 10
299.864
 20
86.2182
 30
0.0
 11
299.864
 21
87.019
 31
0.0
  0
LINE
  8
0
 62
     0
 10
299.864
 20
87.019
 30
0.0
 11
295.763
 21
87.019
 31
0.0
  0
LINE
  8
0
 62
     0
 10
295.763
 20
87.019
 30
0.0
 11
295.763
 21
87.744
 31
0.0
  0
LINE
  8
0
 62
     0
 10
295.763
 20
87.744
 30
0.0
 11
298.993
 21
87.744
 31
0.0
  0
LINE
  8
0
 62
     0
 10
298.993
 20
87.744
 30
0.0
 11
298.993
 21
89.4676
 31
0.0
  0
LINE
  8
0
 62
     0
 10
298.993
 20
89.4676
 30
0.0
 11
299.913
 21
89.4676
 31
0.0
  0
LINE
  8
0
 62
     0
 10
299.913
 20
89.4676
 30
0.0
 11
299.913
 21
92.7682
 31
0.0
  0
LINE
  8
0
 62
     0
 10
299.913
 20
92.7682
 30
0.0
 11
298.993
 21
92.7682
 31
0.0
  0
LINE
  8
0
 62
     0
 10
298.993
 20
92.7682
 30
0.0
 11
298.993
 21
94.4933
 31
0.0
  0
LINE
  8
0
 62
     0
 10
298.993
 20
94.4933
 30
0.0
 11
295.763
 21
94.4933
 31
0.0
  0
LINE
  8
0
 62
     0
 10
295.763
 20
94.4933
 30
0.0
 11
295.763
 21
95.3188
 31
0.0
  0
LINE
  8
0
 62
     0
 10
295.763
 20
95.3188
 30
0.0
 11
292.964
 21
95.3188
 31
0.0
  0
LINE
  8
0
 62
     0
 10
1.6316
 20
77.0269
 30
0.0
 11
1.21405
 21
76.8145
 31
0.0
  0
LINE
  8
0
 62
     0
 10
1.21405
 20
76.8145
 30
0.0
 11
0.881944
 21
76.4826
 31
0.0
  0
LINE
  8
0
 62
     0
 10
0.881944
 20
76.4826
 30
0.0
 11
0.668348
 21
76.0649
 31
0.0
  0
LINE
  8
0
 62
     0
 10
0.668348
 20
76.0649
 30
0.0
 11
0.595313
 21
75.6006
 31
0.0
  0
LINE
  8
0
 62
     0
 10
0.595313
 20
75.6006
 30
0.0
 11
0.668348
 21
75.1374
 31
0.0
  0
LINE
  8
0
 62
     0
 10
0.668348
 20
75.1374
 30
0.0
 11
0.881944
 21
74.7201
 31
0.0
  0
LINE
  8
0
 62
     0
 10
0.881944
 20
74.7201
 30
0.0
 11
1.21405
 21
74.3878
 31
0.0
  0
LINE
  8
0
 62
     0
 10
1.21405
 20
74.3878
 30
0.0
 11
1.6316
 21
74.1743
 31
0.0
  0
LINE
  8
0
 62
     0
 10
1.6316
 20
74.1743
 30
0.0
 11
2.096
 21
74.0999
 31
0.0
  0
LINE
  8
0
 62
     0
 10
2.096
 20
74.0999
 30
0.0
 11
2.55902
 21
74.1743
 31
0.0
  0
LINE
  8
0
 62
     0
 10
2.55902
 20
74.1743
 30
0.0
 11
2.97656
 21
74.3878
 31
0.0
  0
LINE
  8
0
 62
     0
 10
2.97656
 20
74.3878
 30
0.0
 11
3.30867
 21
74.7201
 31
0.0
  0
LINE
  8
0
 62
     0
 10
3.30867
 20
74.7201
 30
0.0
 11
3.52089
 21
75.1374
 31
0.0
  0
LINE
  8
0
 62
     0
 10
3.52089
 20
75.1374
 30
0.0
 11
3.5953
 21
75.6006
 31
0.0
  0
LINE
  8
0
 62
     0
 10
3.5953
 20
75.6006
 30
0.0
 11
3.52089
 21
76.0649
 31
0.0
  0
LINE
  8
0
 62
     0
 10
3.52089
 20
76.0649
 30
0.0
 11
3.30867
 21
76.4826
 31
0.0
  0
LINE
  8
0
 62
     0
 10
3.30867
 20
76.4826
 30
0.0
 11
2.97656
 21
76.8145
 31
0.0
  0
LINE
  8
0
 62
     0
 10
2.97656
 20
76.8145
 30
0.0
 11
2.55902
 21
77.0269
 31
0.0
  0
LINE
  8
0
 62
     0
 10
2.55902
 20
77.0269
 30
0.0
 11
2.096
 21
77.0999
 31
0.0
  0
LINE
  8
0
 62
     0
 10
2.096
 20
77.0999
 30
0.0
 11
1.6316
 21
77.0269
 31
0.0
  0
LINE
  8
0
 62
     0
 10
465.307
 20
77.0269
 30
0.0
 11
464.891
 21
76.8145
 31
0.0
  0
LINE
  8
0
 62
     0
 10
464.891
 20
76.8145
 30
0.0
 11
464.559
 21
76.4826
 31
0.0
  0
LINE
  8
0
 62
     0
 10
464.559
 20
76.4826
 30
0.0
 11
464.344
 21
76.0649
 31
0.0
  0
LINE
  8
0
 62
     0
 10
464.344
 20
76.0649
 30
0.0
 11
464.273
 21
75.6006
 31
0.0
  0
LINE
  8
0
 62
     0
 10
464.273
 20
75.6006
 30
0.0
 11
464.344
 21
75.1374
 31
0.0
  0
LINE
  8
0
 62
     0
 10
464.344
 20
75.1374
 30
0.0
 11
464.559
 21
74.7201
 31
0.0
  0
LINE
  8
0
 62
     0
 10
464.559
 20
74.7201
 30
0.0
 11
464.891
 21
74.3878
 31
0.0
  0
LINE
  8
0
 62
     0
 10
464.891
 20
74.3878
 30
0.0
 11
465.307
 21
74.1743
 31
0.0
  0
LINE
  8
0
 62
     0
 10
465.307
 20
74.1743
 30
0.0
 11
465.773
 21
74.0999
 31
0.0
  0
LINE
  8
0
 62
     0
 10
465.773
 20
74.0999
 30
0.0
 11
466.235
 21
74.1743
 31
0.0
  0
LINE
  8
0
 62
     0
 10
466.235
 20
74.1743
 30
0.0
 11
466.651
 21
74.3878
 31
0.0
  0
LINE
  8
0
 62
     0
 10
466.651
 20
74.3878
 30
0.0
 11
466.983
 21
74.7201
 31
0.0
  0
LINE
  8
0
 62
     0
 10
466.983
 20
74.7201
 30
0.0
 11
467.198
 21
75.1374
 31
0.0
  0
LINE
  8
0
 62
     0
 10
467.198
 20
75.1374
 30
0.0
 11
467.272
 21
75.6006
 31
0.0
  0
LINE
  8
0
 62
     0
 10
467.272
 20
75.6006
 30
0.0
 11
467.198
 21
76.0649
 31
0.0
  0
LINE
  8
0
 62
     0
 10
467.198
 20
76.0649
 30
0.0
 11
466.983
 21
76.4826
 31
0.0
  0
LINE
  8
0
 62
     0
 10
466.983
 20
76.4826
 30
0.0
 11
466.651
 21
76.8145
 31
0.0
  0
LINE
  8
0
 62
     0
 10
466.651
 20
76.8145
 30
0.0
 11
466.235
 21
77.0269
 31
0.0
  0
LINE
  8
0
 62
     0
 10
466.235
 20
77.0269
 30
0.0
 11
465.773
 21
77.0999
 31
0.0
  0
LINE
  8
0
 62
     0
 10
465.773
 20
77.0999
 30
0.0
 11
465.307
 21
77.0269
 31
0.0
  0
LINE
  8
0
 62
     0
 10
22.1451
 20
95.7432
 30
0.0
 11
22.1451
 21
95.1438
 31
0.0
  0
LINE
  8
0
 62
     0
 10
22.1451
 20
95.1438
 30
0.0
 11
21.3444
 21
95.1438
 31
0.0
  0
LINE
  8
0
 62
     0
 10
21.3444
 20
95.1438
 30
0.0
 11
21.3444
 21
91.0442
 31
0.0
  0
LINE
  8
0
 62
     0
 10
21.3444
 20
91.0442
 30
0.0
 11
20.621
 21
91.0442
 31
0.0
  0
LINE
  8
0
 62
     0
 10
20.621
 20
91.0442
 30
0.0
 11
20.621
 21
94.2728
 31
0.0
  0
LINE
  8
0
 62
     0
 10
20.621
 20
94.2728
 30
0.0
 11
18.8943
 21
94.2728
 31
0.0
  0
LINE
  8
0
 62
     0
 10
18.8943
 20
94.2728
 30
0.0
 11
18.8943
 21
95.1936
 31
0.0
  0
LINE
  8
0
 62
     0
 10
18.8943
 20
95.1936
 30
0.0
 11
15.5939
 21
95.1936
 31
0.0
  0
LINE
  8
0
 62
     0
 10
15.5939
 20
95.1936
 30
0.0
 11
15.5939
 21
94.2728
 31
0.0
  0
LINE
  8
0
 62
     0
 10
15.5939
 20
94.2728
 30
0.0
 11
13.87
 21
94.2728
 31
0.0
  0
LINE
  8
0
 62
     0
 10
13.87
 20
94.2728
 30
0.0
 11
13.87
 21
91.0442
 31
0.0
  0
LINE
  8
0
 62
     0
 10
13.87
 20
91.0442
 30
0.0
 11
13.0445
 21
91.0442
 31
0.0
  0
LINE
  8
0
 62
     0
 10
13.0445
 20
91.0442
 30
0.0
 11
13.0445
 21
88.2442
 31
0.0
  0
LINE
  8
0
 62
     0
 10
13.0445
 20
88.2442
 30
0.0
 11
13.87
 21
88.2442
 31
0.0
  0
LINE
  8
0
 62
     0
 10
13.87
 20
88.2442
 30
0.0
 11
13.87
 21
81.9739
 31
0.0
  0
LINE
  8
0
 62
     0
 10
13.87
 20
81.9739
 30
0.0
 11
15.5939
 21
81.9739
 31
0.0
  0
LINE
  8
0
 62
     0
 10
15.5939
 20
81.9739
 30
0.0
 11
15.5939
 21
80.9928
 31
0.0
  0
LINE
  8
0
 62
     0
 10
15.5939
 20
80.9928
 30
0.0
 11
18.8943
 21
80.9928
 31
0.0
  0
LINE
  8
0
 62
     0
 10
18.8943
 20
80.9928
 30
0.0
 11
18.8943
 21
81.9739
 31
0.0
  0
LINE
  8
0
 62
     0
 10
18.8943
 20
81.9739
 30
0.0
 11
20.621
 21
81.9739
 31
0.0
  0
LINE
  8
0
 62
     0
 10
20.621
 20
81.9739
 30
0.0
 11
20.621
 21
86.4429
 31
0.0
  0
LINE
  8
0
 62
     0
 10
20.621
 20
86.4429
 30
0.0
 11
21.3444
 21
86.4429
 31
0.0
  0
LINE
  8
0
 62
     0
 10
21.3444
 20
86.4429
 30
0.0
 11
21.3444
 21
82.3433
 31
0.0
  0
LINE
  8
0
 62
     0
 10
21.3444
 20
82.3433
 30
0.0
 11
22.1451
 21
82.3433
 31
0.0
  0
LINE
  8
0
 62
     0
 10
22.1451
 20
82.3433
 30
0.0
 11
22.1451
 21
81.7439
 31
0.0
  0
LINE
  8
0
 62
     0
 10
22.1451
 20
81.7439
 30
0.0
 11
36.146
 21
81.7439
 31
0.0
  0
LINE
  8
0
 62
     0
 10
36.146
 20
81.7439
 30
0.0
 11
36.146
 21
82.3433
 31
0.0
  0
LINE
  8
0
 62
     0
 10
36.146
 20
82.3433
 30
0.0
 11
36.9439
 21
82.3433
 31
0.0
  0
LINE
  8
0
 62
     0
 10
36.9439
 20
82.3433
 30
0.0
 11
36.9439
 21
86.4429
 31
0.0
  0
LINE
  8
0
 62
     0
 10
36.9439
 20
86.4429
 30
0.0
 11
37.67
 21
86.4429
 31
0.0
  0
LINE
  8
0
 62
     0
 10
37.67
 20
86.4429
 30
0.0
 11
37.67
 21
81.9739
 31
0.0
  0
LINE
  8
0
 62
     0
 10
37.67
 20
81.9739
 30
0.0
 11
39.3954
 21
81.9739
 31
0.0
  0
LINE
  8
0
 62
     0
 10
39.3954
 20
81.9739
 30
0.0
 11
39.3954
 21
80.9928
 31
0.0
  0
LINE
  8
0
 62
     0
 10
39.3954
 20
80.9928
 30
0.0
 11
42.6942
 21
80.9928
 31
0.0
  0
LINE
  8
0
 62
     0
 10
42.6942
 20
80.9928
 30
0.0
 11
42.6942
 21
81.9739
 31
0.0
  0
LINE
  8
0
 62
     0
 10
42.6942
 20
81.9739
 30
0.0
 11
44.4197
 21
81.9739
 31
0.0
  0
LINE
  8
0
 62
     0
 10
44.4197
 20
81.9739
 30
0.0
 11
44.4197
 21
88.2442
 31
0.0
  0
LINE
  8
0
 62
     0
 10
44.4197
 20
88.2442
 30
0.0
 11
45.2452
 21
88.2442
 31
0.0
  0
LINE
  8
0
 62
     0
 10
45.2452
 20
88.2442
 30
0.0
 11
45.2452
 21
91.0442
 31
0.0
  0
LINE
  8
0
 62
     0
 10
45.2452
 20
91.0442
 30
0.0
 11
44.4197
 21
91.0442
 31
0.0
  0
LINE
  8
0
 62
     0
 10
44.4197
 20
91.0442
 30
0.0
 11
44.4197
 21
94.2728
 31
0.0
  0
LINE
  8
0
 62
     0
 10
44.4197
 20
94.2728
 30
0.0
 11
42.6942
 21
94.2728
 31
0.0
  0
LINE
  8
0
 62
     0
 10
42.6942
 20
94.2728
 30
0.0
 11
42.6942
 21
95.1936
 31
0.0
  0
LINE
  8
0
 62
     0
 10
42.6942
 20
95.1936
 30
0.0
 11
39.3954
 21
95.1936
 31
0.0
  0
LINE
  8
0
 62
     0
 10
39.3954
 20
95.1936
 30
0.0
 11
39.3954
 21
94.2728
 31
0.0
  0
LINE
  8
0
 62
     0
 10
39.3954
 20
94.2728
 30
0.0
 11
37.67
 21
94.2728
 31
0.0
  0
LINE
  8
0
 62
     0
 10
37.67
 20
94.2728
 30
0.0
 11
37.67
 21
91.0442
 31
0.0
  0
LINE
  8
0
 62
     0
 10
37.67
 20
91.0442
 30
0.0
 11
36.9439
 21
91.0442
 31
0.0
  0
LINE
  8
0
 62
     0
 10
36.9439
 20
91.0442
 30
0.0
 11
36.9439
 21
95.1438
 31
0.0
  0
LINE
  8
0
 62
     0
 10
36.9439
 20
95.1438
 30
0.0
 11
36.146
 21
95.1438
 31
0.0
  0
LINE
  8
0
 62
     0
 10
36.146
 20
95.1438
 30
0.0
 11
36.146
 21
95.7432
 31
0.0
  0
LINE
  8
0
 62
     0
 10
36.146
 20
95.7432
 30
0.0
 11
22.1451
 21
95.7432
 31
0.0
  0
LINE
  8
0
 62
     0
 10
441.244
 20
95.7432
 30
0.0
 11
441.244
 21
95.1438
 31
0.0
  0
LINE
  8
0
 62
     0
 10
441.244
 20
95.1438
 30
0.0
 11
440.447
 21
95.1438
 31
0.0
  0
LINE
  8
0
 62
     0
 10
440.447
 20
95.1438
 30
0.0
 11
440.447
 21
82.3433
 31
0.0
  0
LINE
  8
0
 62
     0
 10
440.447
 20
82.3433
 30
0.0
 11
441.244
 21
82.3433
 31
0.0
  0
LINE
  8
0
 62
     0
 10
441.244
 20
82.3433
 30
0.0
 11
441.244
 21
81.7439
 31
0.0
  0
LINE
  8
0
 62
     0
 10
441.244
 20
81.7439
 30
0.0
 11
455.246
 21
81.7439
 31
0.0
  0
LINE
  8
0
 62
     0
 10
455.246
 20
81.7439
 30
0.0
 11
455.246
 21
82.3433
 31
0.0
  0
LINE
  8
0
 62
     0
 10
455.246
 20
82.3433
 30
0.0
 11
456.046
 21
82.3433
 31
0.0
  0
LINE
  8
0
 62
     0
 10
456.046
 20
82.3433
 30
0.0
 11
456.046
 21
95.1438
 31
0.0
  0
LINE
  8
0
 62
     0
 10
456.046
 20
95.1438
 30
0.0
 11
455.246
 21
95.1438
 31
0.0
  0
LINE
  8
0
 62
     0
 10
455.246
 20
95.1438
 30
0.0
 11
455.246
 21
95.7432
 31
0.0
  0
LINE
  8
0
 62
     0
 10
455.246
 20
95.7432
 30
0.0
 11
441.244
 21
95.7432
 31
0.0
  0
LINE
  8
0
 62
     0
 10
422.194
 20
95.7432
 30
0.0
 11
422.194
 21
95.1438
 31
0.0
  0
LINE
  8
0
 62
     0
 10
422.194
 20
95.1438
 30
0.0
 11
421.397
 21
95.1438
 31
0.0
  0
LINE
  8
0
 62
     0
 10
421.397
 20
95.1438
 30
0.0
 11
421.397
 21
82.3433
 31
0.0
  0
LINE
  8
0
 62
     0
 10
421.397
 20
82.3433
 30
0.0
 11
422.194
 21
82.3433
 31
0.0
  0
LINE
  8
0
 62
     0
 10
422.194
 20
82.3433
 30
0.0
 11
422.194
 21
81.7439
 31
0.0
  0
LINE
  8
0
 62
     0
 10
422.194
 20
81.7439
 30
0.0
 11
436.196
 21
81.7439
 31
0.0
  0
LINE
  8
0
 62
     0
 10
436.196
 20
81.7439
 30
0.0
 11
436.196
 21
82.3433
 31
0.0
  0
LINE
  8
0
 62
     0
 10
436.196
 20
82.3433
 30
0.0
 11
436.996
 21
82.3433
 31
0.0
  0
LINE
  8
0
 62
     0
 10
436.996
 20
82.3433
 30
0.0
 11
436.996
 21
95.1438
 31
0.0
  0
LINE
  8
0
 62
     0
 10
436.996
 20
95.1438
 30
0.0
 11
436.196
 21
95.1438
 31
0.0
  0
LINE
  8
0
 62
     0
 10
436.196
 20
95.1438
 30
0.0
 11
436.196
 21
95.7432
 31
0.0
  0
LINE
  8
0
 62
     0
 10
436.196
 20
95.7432
 30
0.0
 11
422.194
 21
95.7432
 31
0.0
  0
LINE
  8
0
 62
     0
 10
403.144
 20
95.7432
 30
0.0
 11
403.144
 21
95.1438
 31
0.0
  0
LINE
  8
0
 62
     0
 10
403.144
 20
95.1438
 30
0.0
 11
402.347
 21
95.1438
 31
0.0
  0
LINE
  8
0
 62
     0
 10
402.347
 20
95.1438
 30
0.0
 11
402.347
 21
82.3433
 31
0.0
  0
LINE
  8
0
 62
     0
 10
402.347
 20
82.3433
 30
0.0
 11
403.144
 21
82.3433
 31
0.0
  0
LINE
  8
0
 62
     0
 10
403.144
 20
82.3433
 30
0.0
 11
403.144
 21
81.7439
 31
0.0
  0
LINE
  8
0
 62
     0
 10
403.144
 20
81.7439
 30
0.0
 11
417.146
 21
81.7439
 31
0.0
  0
LINE
  8
0
 62
     0
 10
417.146
 20
81.7439
 30
0.0
 11
417.146
 21
82.3433
 31
0.0
  0
LINE
  8
0
 62
     0
 10
417.146
 20
82.3433
 30
0.0
 11
417.946
 21
82.3433
 31
0.0
  0
LINE
  8
0
 62
     0
 10
417.946
 20
82.3433
 30
0.0
 11
417.946
 21
95.1438
 31
0.0
  0
LINE
  8
0
 62
     0
 10
417.946
 20
95.1438
 30
0.0
 11
417.146
 21
95.1438
 31
0.0
  0
LINE
  8
0
 62
     0
 10
417.146
 20
95.1438
 30
0.0
 11
417.146
 21
95.7432
 31
0.0
  0
LINE
  8
0
 62
     0
 10
417.146
 20
95.7432
 30
0.0
 11
403.144
 21
95.7432
 31
0.0
  0
LINE
  8
0
 62
     0
 10
384.094
 20
95.7432
 30
0.0
 11
384.094
 21
95.1438
 31
0.0
  0
LINE
  8
0
 62
     0
 10
384.094
 20
95.1438
 30
0.0
 11
383.297
 21
95.1438
 31
0.0
  0
LINE
  8
0
 62
     0
 10
383.297
 20
95.1438
 30
0.0
 11
383.297
 21
82.3433
 31
0.0
  0
LINE
  8
0
 62
     0
 10
383.297
 20
82.3433
 30
0.0
 11
384.094
 21
82.3433
 31
0.0
  0
LINE
  8
0
 62
     0
 10
384.094
 20
82.3433
 30
0.0
 11
384.094
 21
81.7439
 31
0.0
  0
LINE
  8
0
 62
     0
 10
384.094
 20
81.7439
 30
0.0
 11
398.096
 21
81.7439
 31
0.0
  0
LINE
  8
0
 62
     0
 10
398.096
 20
81.7439
 30
0.0
 11
398.096
 21
82.3433
 31
0.0
  0
LINE
  8
0
 62
     0
 10
398.096
 20
82.3433
 30
0.0
 11
398.896
 21
82.3433
 31
0.0
  0
LINE
  8
0
 62
     0
 10
398.896
 20
82.3433
 30
0.0
 11
398.896
 21
95.1438
 31
0.0
  0
LINE
  8
0
 62
     0
 10
398.896
 20
95.1438
 30
0.0
 11
398.096
 21
95.1438
 31
0.0
  0
LINE
  8
0
 62
     0
 10
398.096
 20
95.1438
 30
0.0
 11
398.096
 21
95.7432
 31
0.0
  0
LINE
  8
0
 62
     0
 10
398.096
 20
95.7432
 30
0.0
 11
384.094
 21
95.7432
 31
0.0
  0
LINE
  8
0
 62
     0
 10
260.27
 20
95.7432
 30
0.0
 11
260.27
 21
95.1438
 31
0.0
  0
LINE
  8
0
 62
     0
 10
260.27
 20
95.1438
 30
0.0
 11
259.471
 21
95.1438
 31
0.0
  0
LINE
  8
0
 62
     0
 10
259.471
 20
95.1438
 30
0.0
 11
259.471
 21
82.3433
 31
0.0
  0
LINE
  8
0
 62
     0
 10
259.471
 20
82.3433
 30
0.0
 11
260.27
 21
82.3433
 31
0.0
  0
LINE
  8
0
 62
     0
 10
260.27
 20
82.3433
 30
0.0
 11
260.27
 21
81.7439
 31
0.0
  0
LINE
  8
0
 62
     0
 10
260.27
 20
81.7439
 30
0.0
 11
274.271
 21
81.7439
 31
0.0
  0
LINE
  8
0
 62
     0
 10
274.271
 20
81.7439
 30
0.0
 11
274.271
 21
82.3433
 31
0.0
  0
LINE
  8
0
 62
     0
 10
274.271
 20
82.3433
 30
0.0
 11
275.07
 21
82.3433
 31
0.0
  0
LINE
  8
0
 62
     0
 10
275.07
 20
82.3433
 30
0.0
 11
275.07
 21
95.1438
 31
0.0
  0
LINE
  8
0
 62
     0
 10
275.07
 20
95.1438
 30
0.0
 11
274.271
 21
95.1438
 31
0.0
  0
LINE
  8
0
 62
     0
 10
274.271
 20
95.1438
 30
0.0
 11
274.271
 21
95.7432
 31
0.0
  0
LINE
  8
0
 62
     0
 10
274.271
 20
95.7432
 30
0.0
 11
260.27
 21
95.7432
 31
0.0
  0
LINE
  8
0
 62
     0
 10
241.22
 20
95.7432
 30
0.0
 11
241.22
 21
95.1438
 31
0.0
  0
LINE
  8
0
 62
     0
 10
241.22
 20
95.1438
 30
0.0
 11
240.421
 21
95.1438
 31
0.0
  0
LINE
  8
0
 62
     0
 10
240.421
 20
95.1438
 30
0.0
 11
240.421
 21
82.3433
 31
0.0
  0
LINE
  8
0
 62
     0
 10
240.421
 20
82.3433
 30
0.0
 11
241.22
 21
82.3433
 31
0.0
  0
LINE
  8
0
 62
     0
 10
241.22
 20
82.3433
 30
0.0
 11
241.22
 21
81.7439
 31
0.0
  0
LINE
  8
0
 62
     0
 10
241.22
 20
81.7439
 30
0.0
 11
255.221
 21
81.7439
 31
0.0
  0
LINE
  8
0
 62
     0
 10
255.221
 20
81.7439
 30
0.0
 11
255.221
 21
82.3433
 31
0.0
  0
LINE
  8
0
 62
     0
 10
255.221
 20
82.3433
 30
0.0
 11
256.02
 21
82.3433
 31
0.0
  0
LINE
  8
0
 62
     0
 10
256.02
 20
82.3433
 30
0.0
 11
256.02
 21
95.1438
 31
0.0
  0
LINE
  8
0
 62
     0
 10
256.02
 20
95.1438
 30
0.0
 11
255.221
 21
95.1438
 31
0.0
  0
LINE
  8
0
 62
     0
 10
255.221
 20
95.1438
 30
0.0
 11
255.221
 21
95.7432
 31
0.0
  0
LINE
  8
0
 62
     0
 10
255.221
 20
95.7432
 30
0.0
 11
241.22
 21
95.7432
 31
0.0
  0
LINE
  8
0
 62
     0
 10
222.17
 20
95.7432
 30
0.0
 11
222.17
 21
95.1438
 31
0.0
  0
LINE
  8
0
 62
     0
 10
222.17
 20
95.1438
 30
0.0
 11
221.371
 21
95.1438
 31
0.0
  0
LINE
  8
0
 62
     0
 10
221.371
 20
95.1438
 30
0.0
 11
221.371
 21
82.3433
 31
0.0
  0
LINE
  8
0
 62
     0
 10
221.371
 20
82.3433
 30
0.0
 11
222.17
 21
82.3433
 31
0.0
  0
LINE
  8
0
 62
     0
 10
222.17
 20
82.3433
 30
0.0
 11
222.17
 21
81.7439
 31
0.0
  0
LINE
  8
0
 62
     0
 10
222.17
 20
81.7439
 30
0.0
 11
236.171
 21
81.7439
 31
0.0
  0
LINE
  8
0
 62
     0
 10
236.171
 20
81.7439
 30
0.0
 11
236.171
 21
82.3433
 31
0.0
  0
LINE
  8
0
 62
     0
 10
236.171
 20
82.3433
 30
0.0
 11
236.97
 21
82.3433
 31
0.0
  0
LINE
  8
0
 62
     0
 10
236.97
 20
82.3433
 30
0.0
 11
236.97
 21
95.1438
 31
0.0
  0
LINE
  8
0
 62
     0
 10
236.97
 20
95.1438
 30
0.0
 11
236.171
 21
95.1438
 31
0.0
  0
LINE
  8
0
 62
     0
 10
236.171
 20
95.1438
 30
0.0
 11
236.171
 21
95.7432
 31
0.0
  0
LINE
  8
0
 62
     0
 10
236.171
 20
95.7432
 30
0.0
 11
222.17
 21
95.7432
 31
0.0
  0
LINE
  8
0
 62
     0
 10
203.12
 20
95.7432
 30
0.0
 11
203.12
 21
95.1438
 31
0.0
  0
LINE
  8
0
 62
     0
 10
203.12
 20
95.1438
 30
0.0
 11
202.321
 21
95.1438
 31
0.0
  0
LINE
  8
0
 62
     0
 10
202.321
 20
95.1438
 30
0.0
 11
202.321
 21
82.3433
 31
0.0
  0
LINE
  8
0
 62
     0
 10
202.321
 20
82.3433
 30
0.0
 11
203.12
 21
82.3433
 31
0.0
  0
LINE
  8
0
 62
     0
 10
203.12
 20
82.3433
 30
0.0
 11
203.12
 21
81.7439
 31
0.0
  0
LINE
  8
0
 62
     0
 10
203.12
 20
81.7439
 30
0.0
 11
217.121
 21
81.7439
 31
0.0
  0
LINE
  8
0
 62
     0
 10
217.121
 20
81.7439
 30
0.0
 11
217.121
 21
82.3433
 31
0.0
  0
LINE
  8
0
 62
     0
 10
217.121
 20
82.3433
 30
0.0
 11
217.92
 21
82.3433
 31
0.0
  0
LINE
  8
0
 62
     0
 10
217.92
 20
82.3433
 30
0.0
 11
217.92
 21
95.1438
 31
0.0
  0
LINE
  8
0
 62
     0
 10
217.92
 20
95.1438
 30
0.0
 11
217.121
 21
95.1438
 31
0.0
  0
LINE
  8
0
 62
     0
 10
217.121
 20
95.1438
 30
0.0
 11
217.121
 21
95.7432
 31
0.0
  0
LINE
  8
0
 62
     0
 10
217.121
 20
95.7432
 30
0.0
 11
203.12
 21
95.7432
 31
0.0
  0
LINE
  8
0
 62
     0
 10
184.07
 20
95.7432
 30
0.0
 11
184.07
 21
95.1438
 31
0.0
  0
LINE
  8
0
 62
     0
 10
184.07
 20
95.1438
 30
0.0
 11
183.271
 21
95.1438
 31
0.0
  0
LINE
  8
0
 62
     0
 10
183.271
 20
95.1438
 30
0.0
 11
183.271
 21
82.3433
 31
0.0
  0
LINE
  8
0
 62
     0
 10
183.271
 20
82.3433
 30
0.0
 11
184.07
 21
82.3433
 31
0.0
  0
LINE
  8
0
 62
     0
 10
184.07
 20
82.3433
 30
0.0
 11
184.07
 21
81.7439
 31
0.0
  0
LINE
  8
0
 62
     0
 10
184.07
 20
81.7439
 30
0.0
 11
198.071
 21
81.7439
 31
0.0
  0
LINE
  8
0
 62
     0
 10
198.071
 20
81.7439
 30
0.0
 11
198.071
 21
82.3433
 31
0.0
  0
LINE
  8
0
 62
     0
 10
198.071
 20
82.3433
 30
0.0
 11
198.87
 21
82.3433
 31
0.0
  0
LINE
  8
0
 62
     0
 10
198.87
 20
82.3433
 30
0.0
 11
198.87
 21
95.1438
 31
0.0
  0
LINE
  8
0
 62
     0
 10
198.87
 20
95.1438
 30
0.0
 11
198.071
 21
95.1438
 31
0.0
  0
LINE
  8
0
 62
     0
 10
198.071
 20
95.1438
 30
0.0
 11
198.071
 21
95.7432
 31
0.0
  0
LINE
  8
0
 62
     0
 10
198.071
 20
95.7432
 30
0.0
 11
184.07
 21
95.7432
 31
0.0
  0
LINE
  8
0
 62
     0
 10
165.02
 20
95.7432
 30
0.0
 11
165.02
 21
95.1438
 31
0.0
  0
LINE
  8
0
 62
     0
 10
165.02
 20
95.1438
 30
0.0
 11
164.221
 21
95.1438
 31
0.0
  0
LINE
  8
0
 62
     0
 10
164.221
 20
95.1438
 30
0.0
 11
164.221
 21
82.3433
 31
0.0
  0
LINE
  8
0
 62
     0
 10
164.221
 20
82.3433
 30
0.0
 11
165.02
 21
82.3433
 31
0.0
  0
LINE
  8
0
 62
     0
 10
165.02
 20
82.3433
 30
0.0
 11
165.02
 21
81.7439
 31
0.0
  0
LINE
  8
0
 62
     0
 10
165.02
 20
81.7439
 30
0.0
 11
179.021
 21
81.7439
 31
0.0
  0
LINE
  8
0
 62
     0
 10
179.021
 20
81.7439
 30
0.0
 11
179.021
 21
82.3433
 31
0.0
  0
LINE
  8
0
 62
     0
 10
179.021
 20
82.3433
 30
0.0
 11
179.82
 21
82.3433
 31
0.0
  0
LINE
  8
0
 62
     0
 10
179.82
 20
82.3433
 30
0.0
 11
179.82
 21
95.1438
 31
0.0
  0
LINE
  8
0
 62
     0
 10
179.82
 20
95.1438
 30
0.0
 11
179.021
 21
95.1438
 31
0.0
  0
LINE
  8
0
 62
     0
 10
179.021
 20
95.1438
 30
0.0
 11
179.021
 21
95.7432
 31
0.0
  0
LINE
  8
0
 62
     0
 10
179.021
 20
95.7432
 30
0.0
 11
165.02
 21
95.7432
 31
0.0
  0
LINE
  8
0
 62
     0
 10
145.97
 20
95.7432
 30
0.0
 11
145.97
 21
95.1438
 31
0.0
  0
LINE
  8
0
 62
     0
 10
145.97
 20
95.1438
 30
0.0
 11
145.171
 21
95.1438
 31
0.0
  0
LINE
  8
0
 62
     0
 10
145.171
 20
95.1438
 30
0.0
 11
145.171
 21
82.3433
 31
0.0
  0
LINE
  8
0
 62
     0
 10
145.171
 20
82.3433
 30
0.0
 11
145.97
 21
82.3433
 31
0.0
  0
LINE
  8
0
 62
     0
 10
145.97
 20
82.3433
 30
0.0
 11
145.97
 21
81.7439
 31
0.0
  0
LINE
  8
0
 62
     0
 10
145.97
 20
81.7439
 30
0.0
 11
159.971
 21
81.7439
 31
0.0
  0
LINE
  8
0
 62
     0
 10
159.971
 20
81.7439
 30
0.0
 11
159.971
 21
82.3433
 31
0.0
  0
LINE
  8
0
 62
     0
 10
159.971
 20
82.3433
 30
0.0
 11
160.77
 21
82.3433
 31
0.0
  0
LINE
  8
0
 62
     0
 10
160.77
 20
82.3433
 30
0.0
 11
160.77
 21
95.1438
 31
0.0
  0
LINE
  8
0
 62
     0
 10
160.77
 20
95.1438
 30
0.0
 11
159.971
 21
95.1438
 31
0.0
  0
LINE
  8
0
 62
     0
 10
159.971
 20
95.1438
 30
0.0
 11
159.971
 21
95.7432
 31
0.0
  0
LINE
  8
0
 62
     0
 10
159.971
 20
95.7432
 30
0.0
 11
145.97
 21
95.7432
 31
0.0
  0
LINE
  8
0
 62
     0
 10
126.92
 20
95.7432
 30
0.0
 11
126.92
 21
95.1438
 31
0.0
  0
LINE
  8
0
 62
     0
 10
126.92
 20
95.1438
 30
0.0
 11
126.119
 21
95.1438
 31
0.0
  0
LINE
  8
0
 62
     0
 10
126.119
 20
95.1438
 30
0.0
 11
126.119
 21
82.3433
 31
0.0
  0
LINE
  8
0
 62
     0
 10
126.119
 20
82.3433
 30
0.0
 11
126.92
 21
82.3433
 31
0.0
  0
LINE
  8
0
 62
     0
 10
126.92
 20
82.3433
 30
0.0
 11
126.92
 21
81.7439
 31
0.0
  0
LINE
  8
0
 62
     0
 10
126.92
 20
81.7439
 30
0.0
 11
140.921
 21
81.7439
 31
0.0
  0
LINE
  8
0
 62
     0
 10
140.921
 20
81.7439
 30
0.0
 11
140.921
 21
82.3433
 31
0.0
  0
LINE
  8
0
 62
     0
 10
140.921
 20
82.3433
 30
0.0
 11
141.72
 21
82.3433
 31
0.0
  0
LINE
  8
0
 62
     0
 10
141.72
 20
82.3433
 30
0.0
 11
141.72
 21
95.1438
 31
0.0
  0
LINE
  8
0
 62
     0
 10
141.72
 20
95.1438
 30
0.0
 11
140.921
 21
95.1438
 31
0.0
  0
LINE
  8
0
 62
     0
 10
140.921
 20
95.1438
 30
0.0
 11
140.921
 21
95.7432
 31
0.0
  0
LINE
  8
0
 62
     0
 10
140.921
 20
95.7432
 30
0.0
 11
126.92
 21
95.7432
 31
0.0
  0
LINE
  8
0
 62
     0
 10
107.87
 20
95.7432
 30
0.0
 11
107.87
 21
95.1438
 31
0.0
  0
LINE
  8
0
 62
     0
 10
107.87
 20
95.1438
 30
0.0
 11
107.071
 21
95.1438
 31
0.0
  0
LINE
  8
0
 62
     0
 10
107.071
 20
95.1438
 30
0.0
 11
107.071
 21
82.3433
 31
0.0
  0
LINE
  8
0
 62
     0
 10
107.071
 20
82.3433
 30
0.0
 11
107.87
 21
82.3433
 31
0.0
  0
LINE
  8
0
 62
     0
 10
107.87
 20
82.3433
 30
0.0
 11
107.87
 21
81.7439
 31
0.0
  0
LINE
  8
0
 62
     0
 10
107.87
 20
81.7439
 30
0.0
 11
121.87
 21
81.7439
 31
0.0
  0
LINE
  8
0
 62
     0
 10
121.87
 20
81.7439
 30
0.0
 11
121.87
 21
82.3433
 31
0.0
  0
LINE
  8
0
 62
     0
 10
121.87
 20
82.3433
 30
0.0
 11
122.669
 21
82.3433
 31
0.0
  0
LINE
  8
0
 62
     0
 10
122.669
 20
82.3433
 30
0.0
 11
122.669
 21
95.1438
 31
0.0
  0
LINE
  8
0
 62
     0
 10
122.669
 20
95.1438
 30
0.0
 11
121.87
 21
95.1438
 31
0.0
  0
LINE
  8
0
 62
     0
 10
121.87
 20
95.1438
 30
0.0
 11
121.87
 21
95.7432
 31
0.0
  0
LINE
  8
0
 62
     0
 10
121.87
 20
95.7432
 30
0.0
 11
107.87
 21
95.7432
 31
0.0
  0
LINE
  8
0
 62
     0
 10
88.8199
 20
95.7432
 30
0.0
 11
88.8199
 21
95.1438
 31
0.0
  0
LINE
  8
0
 62
     0
 10
88.8199
 20
95.1438
 30
0.0
 11
88.0209
 21
95.1438
 31
0.0
  0
LINE
  8
0
 62
     0
 10
88.0209
 20
95.1438
 30
0.0
 11
88.0209
 21
82.3433
 31
0.0
  0
LINE
  8
0
 62
     0
 10
88.0209
 20
82.3433
 30
0.0
 11
88.8199
 21
82.3433
 31
0.0
  0
LINE
  8
0
 62
     0
 10
88.8199
 20
82.3433
 30
0.0
 11
88.8199
 21
81.7439
 31
0.0
  0
LINE
  8
0
 62
     0
 10
88.8199
 20
81.7439
 30
0.0
 11
102.821
 21
81.7439
 31
0.0
  0
LINE
  8
0
 62
     0
 10
102.821
 20
81.7439
 30
0.0
 11
102.821
 21
82.3433
 31
0.0
  0
LINE
  8
0
 62
     0
 10
102.821
 20
82.3433
 30
0.0
 11
103.619
 21
82.3433
 31
0.0
  0
LINE
  8
0
 62
     0
 10
103.619
 20
82.3433
 30
0.0
 11
103.619
 21
95.1438
 31
0.0
  0
LINE
  8
0
 62
     0
 10
103.619
 20
95.1438
 30
0.0
 11
102.821
 21
95.1438
 31
0.0
  0
LINE
  8
0
 62
     0
 10
102.821
 20
95.1438
 30
0.0
 11
102.821
 21
95.7432
 31
0.0
  0
LINE
  8
0
 62
     0
 10
102.821
 20
95.7432
 30
0.0
 11
88.8199
 21
95.7432
 31
0.0
  0
LINE
  8
0
 62
     0
 10
69.7699
 20
95.7432
 30
0.0
 11
69.7699
 21
95.1438
 31
0.0
  0
LINE
  8
0
 62
     0
 10
69.7699
 20
95.1438
 30
0.0
 11
68.9709
 21
95.1438
 31
0.0
  0
LINE
  8
0
 62
     0
 10
68.9709
 20
95.1438
 30
0.0
 11
68.9709
 21
82.3433
 31
0.0
  0
LINE
  8
0
 62
     0
 10
68.9709
 20
82.3433
 30
0.0
 11
69.7699
 21
82.3433
 31
0.0
  0
LINE
  8
0
 62
     0
 10
69.7699
 20
82.3433
 30
0.0
 11
69.7699
 21
81.7439
 31
0.0
  0
LINE
  8
0
 62
     0
 10
69.7699
 20
81.7439
 30
0.0
 11
83.771
 21
81.7439
 31
0.0
  0
LINE
  8
0
 62
     0
 10
83.771
 20
81.7439
 30
0.0
 11
83.771
 21
82.3433
 31
0.0
  0
LINE
  8
0
 62
     0
 10
83.771
 20
82.3433
 30
0.0
 11
84.5704
 21
82.3433
 31
0.0
  0
LINE
  8
0
 62
     0
 10
84.5704
 20
82.3433
 30
0.0
 11
84.5704
 21
95.1438
 31
0.0
  0
LINE
  8
0
 62
     0
 10
84.5704
 20
95.1438
 30
0.0
 11
83.771
 21
95.1438
 31
0.0
  0
LINE
  8
0
 62
     0
 10
83.771
 20
95.1438
 30
0.0
 11
83.771
 21
95.7432
 31
0.0
  0
LINE
  8
0
 62
     0
 10
83.771
 20
95.7432
 30
0.0
 11
69.7699
 21
95.7432
 31
0.0
  0
LINE
  8
0
 62
     0
 10
50.7199
 20
95.7432
 30
0.0
 11
50.7199
 21
95.1438
 31
0.0
  0
LINE
  8
0
 62
     0
 10
50.7199
 20
95.1438
 30
0.0
 11
49.9209
 21
95.1438
 31
0.0
  0
LINE
  8
0
 62
     0
 10
49.9209
 20
95.1438
 30
0.0
 11
49.9209
 21
82.3433
 31
0.0
  0
LINE
  8
0
 62
     0
 10
49.9209
 20
82.3433
 30
0.0
 11
50.7199
 21
82.3433
 31
0.0
  0
LINE
  8
0
 62
     0
 10
50.7199
 20
82.3433
 30
0.0
 11
50.7199
 21
81.7439
 31
0.0
  0
LINE
  8
0
 62
     0
 10
50.7199
 20
81.7439
 30
0.0
 11
64.721
 21
81.7439
 31
0.0
  0
LINE
  8
0
 62
     0
 10
64.721
 20
81.7439
 30
0.0
 11
64.721
 21
82.3433
 31
0.0
  0
LINE
  8
0
 62
     0
 10
64.721
 20
82.3433
 30
0.0
 11
65.5204
 21
82.3433
 31
0.0
  0
LINE
  8
0
 62
     0
 10
65.5204
 20
82.3433
 30
0.0
 11
65.5204
 21
95.1438
 31
0.0
  0
LINE
  8
0
 62
     0
 10
65.5204
 20
95.1438
 30
0.0
 11
64.721
 21
95.1438
 31
0.0
  0
LINE
  8
0
 62
     0
 10
64.721
 20
95.1438
 30
0.0
 11
64.721
 21
95.7432
 31
0.0
  0
LINE
  8
0
 62
     0
 10
64.721
 20
95.7432
 30
0.0
 11
50.7199
 21
95.7432
 31
0.0
  0
LINE
  8
0
 62
     0
 10
441.244
 20
114.793
 30
0.0
 11
441.244
 21
114.194
 31
0.0
  0
LINE
  8
0
 62
     0
 10
441.244
 20
114.194
 30
0.0
 11
440.447
 21
114.194
 31
0.0
  0
LINE
  8
0
 62
     0
 10
440.447
 20
114.194
 30
0.0
 11
440.447
 21
101.393
 31
0.0
  0
LINE
  8
0
 62
     0
 10
440.447
 20
101.393
 30
0.0
 11
441.244
 21
101.393
 31
0.0
  0
LINE
  8
0
 62
     0
 10
441.244
 20
101.393
 30
0.0
 11
441.244
 21
100.794
 31
0.0
  0
LINE
  8
0
 62
     0
 10
441.244
 20
100.794
 30
0.0
 11
455.246
 21
100.794
 31
0.0
  0
LINE
  8
0
 62
     0
 10
455.246
 20
100.794
 30
0.0
 11
455.246
 21
101.393
 31
0.0
  0
LINE
  8
0
 62
     0
 10
455.246
 20
101.393
 30
0.0
 11
456.046
 21
101.393
 31
0.0
  0
LINE
  8
0
 62
     0
 10
456.046
 20
101.393
 30
0.0
 11
456.046
 21
114.194
 31
0.0
  0
LINE
  8
0
 62
     0
 10
456.046
 20
114.194
 30
0.0
 11
455.246
 21
114.194
 31
0.0
  0
LINE
  8
0
 62
     0
 10
455.246
 20
114.194
 30
0.0
 11
455.246
 21
114.793
 31
0.0
  0
LINE
  8
0
 62
     0
 10
455.246
 20
114.793
 30
0.0
 11
441.244
 21
114.793
 31
0.0
  0
LINE
  8
0
 62
     0
 10
422.194
 20
114.793
 30
0.0
 11
422.194
 21
114.194
 31
0.0
  0
LINE
  8
0
 62
     0
 10
422.194
 20
114.194
 30
0.0
 11
421.397
 21
114.194
 31
0.0
  0
LINE
  8
0
 62
     0
 10
421.397
 20
114.194
 30
0.0
 11
421.397
 21
101.393
 31
0.0
  0
LINE
  8
0
 62
     0
 10
421.397
 20
101.393
 30
0.0
 11
422.194
 21
101.393
 31
0.0
  0
LINE
  8
0
 62
     0
 10
422.194
 20
101.393
 30
0.0
 11
422.194
 21
100.794
 31
0.0
  0
LINE
  8
0
 62
     0
 10
422.194
 20
100.794
 30
0.0
 11
436.196
 21
100.794
 31
0.0
  0
LINE
  8
0
 62
     0
 10
436.196
 20
100.794
 30
0.0
 11
436.196
 21
101.393
 31
0.0
  0
LINE
  8
0
 62
     0
 10
436.196
 20
101.393
 30
0.0
 11
436.996
 21
101.393
 31
0.0
  0
LINE
  8
0
 62
     0
 10
436.996
 20
101.393
 30
0.0
 11
436.996
 21
114.194
 31
0.0
  0
LINE
  8
0
 62
     0
 10
436.996
 20
114.194
 30
0.0
 11
436.196
 21
114.194
 31
0.0
  0
LINE
  8
0
 62
     0
 10
436.196
 20
114.194
 30
0.0
 11
436.196
 21
114.793
 31
0.0
  0
LINE
  8
0
 62
     0
 10
436.196
 20
114.793
 30
0.0
 11
422.194
 21
114.793
 31
0.0
  0
LINE
  8
0
 62
     0
 10
403.144
 20
114.793
 30
0.0
 11
403.144
 21
114.194
 31
0.0
  0
LINE
  8
0
 62
     0
 10
403.144
 20
114.194
 30
0.0
 11
402.347
 21
114.194
 31
0.0
  0
LINE
  8
0
 62
     0
 10
402.347
 20
114.194
 30
0.0
 11
402.347
 21
101.393
 31
0.0
  0
LINE
  8
0
 62
     0
 10
402.347
 20
101.393
 30
0.0
 11
403.144
 21
101.393
 31
0.0
  0
LINE
  8
0
 62
     0
 10
403.144
 20
101.393
 30
0.0
 11
403.144
 21
100.794
 31
0.0
  0
LINE
  8
0
 62
     0
 10
403.144
 20
100.794
 30
0.0
 11
417.146
 21
100.794
 31
0.0
  0
LINE
  8
0
 62
     0
 10
417.146
 20
100.794
 30
0.0
 11
417.146
 21
101.393
 31
0.0
  0
LINE
  8
0
 62
     0
 10
417.146
 20
101.393
 30
0.0
 11
417.946
 21
101.393
 31
0.0
  0
LINE
  8
0
 62
     0
 10
417.946
 20
101.393
 30
0.0
 11
417.946
 21
114.194
 31
0.0
  0
LINE
  8
0
 62
     0
 10
417.946
 20
114.194
 30
0.0
 11
417.146
 21
114.194
 31
0.0
  0
LINE
  8
0
 62
     0
 10
417.146
 20
114.194
 30
0.0
 11
417.146
 21
114.793
 31
0.0
  0
LINE
  8
0
 62
     0
 10
417.146
 20
114.793
 30
0.0
 11
403.144
 21
114.793
 31
0.0
  0
LINE
  8
0
 62
     0
 10
384.094
 20
114.793
 30
0.0
 11
384.094
 21
114.194
 31
0.0
  0
LINE
  8
0
 62
     0
 10
384.094
 20
114.194
 30
0.0
 11
383.297
 21
114.194
 31
0.0
  0
LINE
  8
0
 62
     0
 10
383.297
 20
114.194
 30
0.0
 11
383.297
 21
101.393
 31
0.0
  0
LINE
  8
0
 62
     0
 10
383.297
 20
101.393
 30
0.0
 11
384.094
 21
101.393
 31
0.0
  0
LINE
  8
0
 62
     0
 10
384.094
 20
101.393
 30
0.0
 11
384.094
 21
100.794
 31
0.0
  0
LINE
  8
0
 62
     0
 10
384.094
 20
100.794
 30
0.0
 11
398.096
 21
100.794
 31
0.0
  0
LINE
  8
0
 62
     0
 10
398.096
 20
100.794
 30
0.0
 11
398.096
 21
101.393
 31
0.0
  0
LINE
  8
0
 62
     0
 10
398.096
 20
101.393
 30
0.0
 11
398.896
 21
101.393
 31
0.0
  0
LINE
  8
0
 62
     0
 10
398.896
 20
101.393
 30
0.0
 11
398.896
 21
114.194
 31
0.0
  0
LINE
  8
0
 62
     0
 10
398.896
 20
114.194
 30
0.0
 11
398.096
 21
114.194
 31
0.0
  0
LINE
  8
0
 62
     0
 10
398.096
 20
114.194
 30
0.0
 11
398.096
 21
114.793
 31
0.0
  0
LINE
  8
0
 62
     0
 10
398.096
 20
114.793
 30
0.0
 11
384.094
 21
114.793
 31
0.0
  0
LINE
  8
0
 62
     0
 10
350.757
 20
114.793
 30
0.0
 11
350.757
 21
114.194
 31
0.0
  0
LINE
  8
0
 62
     0
 10
350.757
 20
114.194
 30
0.0
 11
349.957
 21
114.194
 31
0.0
  0
LINE
  8
0
 62
     0
 10
349.957
 20
114.194
 30
0.0
 11
349.957
 21
101.393
 31
0.0
  0
LINE
  8
0
 62
     0
 10
349.957
 20
101.393
 30
0.0
 11
350.757
 21
101.393
 31
0.0
  0
LINE
  8
0
 62
     0
 10
350.757
 20
101.393
 30
0.0
 11
350.757
 21
100.794
 31
0.0
  0
LINE
  8
0
 62
     0
 10
350.757
 20
100.794
 30
0.0
 11
364.758
 21
100.794
 31
0.0
  0
LINE
  8
0
 62
     0
 10
364.758
 20
100.794
 30
0.0
 11
364.758
 21
101.393
 31
0.0
  0
LINE
  8
0
 62
     0
 10
364.758
 20
101.393
 30
0.0
 11
365.559
 21
101.393
 31
0.0
  0
LINE
  8
0
 62
     0
 10
365.559
 20
101.393
 30
0.0
 11
365.559
 21
114.194
 31
0.0
  0
LINE
  8
0
 62
     0
 10
365.559
 20
114.194
 30
0.0
 11
364.758
 21
114.194
 31
0.0
  0
LINE
  8
0
 62
     0
 10
364.758
 20
114.194
 30
0.0
 11
364.758
 21
114.793
 31
0.0
  0
LINE
  8
0
 62
     0
 10
364.758
 20
114.793
 30
0.0
 11
350.757
 21
114.793
 31
0.0
  0
LINE
  8
0
 62
     0
 10
322.182
 20
114.793
 30
0.0
 11
322.182
 21
114.194
 31
0.0
  0
LINE
  8
0
 62
     0
 10
322.182
 20
114.194
 30
0.0
 11
321.382
 21
114.194
 31
0.0
  0
LINE
  8
0
 62
     0
 10
321.382
 20
114.194
 30
0.0
 11
321.382
 21
101.393
 31
0.0
  0
LINE
  8
0
 62
     0
 10
321.382
 20
101.393
 30
0.0
 11
322.182
 21
101.393
 31
0.0
  0
LINE
  8
0
 62
     0
 10
322.182
 20
101.393
 30
0.0
 11
322.182
 21
100.794
 31
0.0
  0
LINE
  8
0
 62
     0
 10
322.182
 20
100.794
 30
0.0
 11
336.182
 21
100.794
 31
0.0
  0
LINE
  8
0
 62
     0
 10
336.182
 20
100.794
 30
0.0
 11
336.182
 21
101.393
 31
0.0
  0
LINE
  8
0
 62
     0
 10
336.182
 20
101.393
 30
0.0
 11
336.983
 21
101.393
 31
0.0
  0
LINE
  8
0
 62
     0
 10
336.983
 20
101.393
 30
0.0
 11
336.983
 21
114.194
 31
0.0
  0
LINE
  8
0
 62
     0
 10
336.983
 20
114.194
 30
0.0
 11
336.182
 21
114.194
 31
0.0
  0
LINE
  8
0
 62
     0
 10
336.182
 20
114.194
 30
0.0
 11
336.182
 21
114.793
 31
0.0
  0
LINE
  8
0
 62
     0
 10
336.182
 20
114.793
 30
0.0
 11
322.182
 21
114.793
 31
0.0
  0
LINE
  8
0
 62
     0
 10
288.845
 20
114.793
 30
0.0
 11
288.845
 21
114.194
 31
0.0
  0
LINE
  8
0
 62
     0
 10
288.845
 20
114.194
 30
0.0
 11
288.046
 21
114.194
 31
0.0
  0
LINE
  8
0
 62
     0
 10
288.046
 20
114.194
 30
0.0
 11
288.046
 21
101.393
 31
0.0
  0
LINE
  8
0
 62
     0
 10
288.046
 20
101.393
 30
0.0
 11
288.845
 21
101.393
 31
0.0
  0
LINE
  8
0
 62
     0
 10
288.845
 20
101.393
 30
0.0
 11
288.845
 21
100.794
 31
0.0
  0
LINE
  8
0
 62
     0
 10
288.845
 20
100.794
 30
0.0
 11
302.846
 21
100.794
 31
0.0
  0
LINE
  8
0
 62
     0
 10
302.846
 20
100.794
 30
0.0
 11
302.846
 21
101.393
 31
0.0
  0
LINE
  8
0
 62
     0
 10
302.846
 20
101.393
 30
0.0
 11
303.645
 21
101.393
 31
0.0
  0
LINE
  8
0
 62
     0
 10
303.645
 20
101.393
 30
0.0
 11
303.645
 21
114.194
 31
0.0
  0
LINE
  8
0
 62
     0
 10
303.645
 20
114.194
 30
0.0
 11
302.846
 21
114.194
 31
0.0
  0
LINE
  8
0
 62
     0
 10
302.846
 20
114.194
 30
0.0
 11
302.846
 21
114.793
 31
0.0
  0
LINE
  8
0
 62
     0
 10
302.846
 20
114.793
 30
0.0
 11
288.845
 21
114.793
 31
0.0
  0
LINE
  8
0
 62
     0
 10
269.795
 20
114.793
 30
0.0
 11
269.795
 21
114.194
 31
0.0
  0
LINE
  8
0
 62
     0
 10
269.795
 20
114.194
 30
0.0
 11
268.996
 21
114.194
 31
0.0
  0
LINE
  8
0
 62
     0
 10
268.996
 20
114.194
 30
0.0
 11
268.996
 21
101.393
 31
0.0
  0
LINE
  8
0
 62
     0
 10
268.996
 20
101.393
 30
0.0
 11
269.795
 21
101.393
 31
0.0
  0
LINE
  8
0
 62
     0
 10
269.795
 20
101.393
 30
0.0
 11
269.795
 21
100.794
 31
0.0
  0
LINE
  8
0
 62
     0
 10
269.795
 20
100.794
 30
0.0
 11
283.796
 21
100.794
 31
0.0
  0
LINE
  8
0
 62
     0
 10
283.796
 20
100.794
 30
0.0
 11
283.796
 21
101.393
 31
0.0
  0
LINE
  8
0
 62
     0
 10
283.796
 20
101.393
 30
0.0
 11
284.595
 21
101.393
 31
0.0
  0
LINE
  8
0
 62
     0
 10
284.595
 20
101.393
 30
0.0
 11
284.595
 21
114.194
 31
0.0
  0
LINE
  8
0
 62
     0
 10
284.595
 20
114.194
 30
0.0
 11
283.796
 21
114.194
 31
0.0
  0
LINE
  8
0
 62
     0
 10
283.796
 20
114.194
 30
0.0
 11
283.796
 21
114.793
 31
0.0
  0
LINE
  8
0
 62
     0
 10
283.796
 20
114.793
 30
0.0
 11
269.795
 21
114.793
 31
0.0
  0
LINE
  8
0
 62
     0
 10
250.745
 20
114.793
 30
0.0
 11
250.745
 21
114.194
 31
0.0
  0
LINE
  8
0
 62
     0
 10
250.745
 20
114.194
 30
0.0
 11
249.946
 21
114.194
 31
0.0
  0
LINE
  8
0
 62
     0
 10
249.946
 20
114.194
 30
0.0
 11
249.946
 21
101.393
 31
0.0
  0
LINE
  8
0
 62
     0
 10
249.946
 20
101.393
 30
0.0
 11
250.745
 21
101.393
 31
0.0
  0
LINE
  8
0
 62
     0
 10
250.745
 20
101.393
 30
0.0
 11
250.745
 21
100.794
 31
0.0
  0
LINE
  8
0
 62
     0
 10
250.745
 20
100.794
 30
0.0
 11
264.746
 21
100.794
 31
0.0
  0
LINE
  8
0
 62
     0
 10
264.746
 20
100.794
 30
0.0
 11
264.746
 21
101.393
 31
0.0
  0
LINE
  8
0
 62
     0
 10
264.746
 20
101.393
 30
0.0
 11
265.545
 21
101.393
 31
0.0
  0
LINE
  8
0
 62
     0
 10
265.545
 20
101.393
 30
0.0
 11
265.545
 21
114.194
 31
0.0
  0
LINE
  8
0
 62
     0
 10
265.545
 20
114.194
 30
0.0
 11
264.746
 21
114.194
 31
0.0
  0
LINE
  8
0
 62
     0
 10
264.746
 20
114.194
 30
0.0
 11
264.746
 21
114.793
 31
0.0
  0
LINE
  8
0
 62
     0
 10
264.746
 20
114.793
 30
0.0
 11
250.745
 21
114.793
 31
0.0
  0
LINE
  8
0
 62
     0
 10
231.695
 20
114.793
 30
0.0
 11
231.695
 21
114.194
 31
0.0
  0
LINE
  8
0
 62
     0
 10
231.695
 20
114.194
 30
0.0
 11
230.896
 21
114.194
 31
0.0
  0
LINE
  8
0
 62
     0
 10
230.896
 20
114.194
 30
0.0
 11
230.896
 21
101.393
 31
0.0
  0
LINE
  8
0
 62
     0
 10
230.896
 20
101.393
 30
0.0
 11
231.695
 21
101.393
 31
0.0
  0
LINE
  8
0
 62
     0
 10
231.695
 20
101.393
 30
0.0
 11
231.695
 21
100.794
 31
0.0
  0
LINE
  8
0
 62
     0
 10
231.695
 20
100.794
 30
0.0
 11
245.696
 21
100.794
 31
0.0
  0
LINE
  8
0
 62
     0
 10
245.696
 20
100.794
 30
0.0
 11
245.696
 21
101.393
 31
0.0
  0
LINE
  8
0
 62
     0
 10
245.696
 20
101.393
 30
0.0
 11
246.495
 21
101.393
 31
0.0
  0
LINE
  8
0
 62
     0
 10
246.495
 20
101.393
 30
0.0
 11
246.495
 21
114.194
 31
0.0
  0
LINE
  8
0
 62
     0
 10
246.495
 20
114.194
 30
0.0
 11
245.696
 21
114.194
 31
0.0
  0
LINE
  8
0
 62
     0
 10
245.696
 20
114.194
 30
0.0
 11
245.696
 21
114.793
 31
0.0
  0
LINE
  8
0
 62
     0
 10
245.696
 20
114.793
 30
0.0
 11
231.695
 21
114.793
 31
0.0
  0
LINE
  8
0
 62
     0
 10
212.645
 20
114.793
 30
0.0
 11
212.645
 21
114.194
 31
0.0
  0
LINE
  8
0
 62
     0
 10
212.645
 20
114.194
 30
0.0
 11
211.846
 21
114.194
 31
0.0
  0
LINE
  8
0
 62
     0
 10
211.846
 20
114.194
 30
0.0
 11
211.846
 21
101.393
 31
0.0
  0
LINE
  8
0
 62
     0
 10
211.846
 20
101.393
 30
0.0
 11
212.645
 21
101.393
 31
0.0
  0
LINE
  8
0
 62
     0
 10
212.645
 20
101.393
 30
0.0
 11
212.645
 21
100.794
 31
0.0
  0
LINE
  8
0
 62
     0
 10
212.645
 20
100.794
 30
0.0
 11
226.646
 21
100.794
 31
0.0
  0
LINE
  8
0
 62
     0
 10
226.646
 20
100.794
 30
0.0
 11
226.646
 21
101.393
 31
0.0
  0
LINE
  8
0
 62
     0
 10
226.646
 20
101.393
 30
0.0
 11
227.445
 21
101.393
 31
0.0
  0
LINE
  8
0
 62
     0
 10
227.445
 20
101.393
 30
0.0
 11
227.445
 21
114.194
 31
0.0
  0
LINE
  8
0
 62
     0
 10
227.445
 20
114.194
 30
0.0
 11
226.646
 21
114.194
 31
0.0
  0
LINE
  8
0
 62
     0
 10
226.646
 20
114.194
 30
0.0
 11
226.646
 21
114.793
 31
0.0
  0
LINE
  8
0
 62
     0
 10
226.646
 20
114.793
 30
0.0
 11
212.645
 21
114.793
 31
0.0
  0
LINE
  8
0
 62
     0
 10
193.595
 20
114.793
 30
0.0
 11
193.595
 21
114.194
 31
0.0
  0
LINE
  8
0
 62
     0
 10
193.595
 20
114.194
 30
0.0
 11
192.796
 21
114.194
 31
0.0
  0
LINE
  8
0
 62
     0
 10
192.796
 20
114.194
 30
0.0
 11
192.796
 21
101.393
 31
0.0
  0
LINE
  8
0
 62
     0
 10
192.796
 20
101.393
 30
0.0
 11
193.595
 21
101.393
 31
0.0
  0
LINE
  8
0
 62
     0
 10
193.595
 20
101.393
 30
0.0
 11
193.595
 21
100.794
 31
0.0
  0
LINE
  8
0
 62
     0
 10
193.595
 20
100.794
 30
0.0
 11
207.596
 21
100.794
 31
0.0
  0
LINE
  8
0
 62
     0
 10
207.596
 20
100.794
 30
0.0
 11
207.596
 21
101.393
 31
0.0
  0
LINE
  8
0
 62
     0
 10
207.596
 20
101.393
 30
0.0
 11
208.395
 21
101.393
 31
0.0
  0
LINE
  8
0
 62
     0
 10
208.395
 20
101.393
 30
0.0
 11
208.395
 21
114.194
 31
0.0
  0
LINE
  8
0
 62
     0
 10
208.395
 20
114.194
 30
0.0
 11
207.596
 21
114.194
 31
0.0
  0
LINE
  8
0
 62
     0
 10
207.596
 20
114.194
 30
0.0
 11
207.596
 21
114.793
 31
0.0
  0
LINE
  8
0
 62
     0
 10
207.596
 20
114.793
 30
0.0
 11
193.595
 21
114.793
 31
0.0
  0
LINE
  8
0
 62
     0
 10
174.545
 20
114.793
 30
0.0
 11
174.545
 21
114.194
 31
0.0
  0
LINE
  8
0
 62
     0
 10
174.545
 20
114.194
 30
0.0
 11
173.746
 21
114.194
 31
0.0
  0
LINE
  8
0
 62
     0
 10
173.746
 20
114.194
 30
0.0
 11
173.746
 21
101.393
 31
0.0
  0
LINE
  8
0
 62
     0
 10
173.746
 20
101.393
 30
0.0
 11
174.545
 21
101.393
 31
0.0
  0
LINE
  8
0
 62
     0
 10
174.545
 20
101.393
 30
0.0
 11
174.545
 21
100.794
 31
0.0
  0
LINE
  8
0
 62
     0
 10
174.545
 20
100.794
 30
0.0
 11
188.546
 21
100.794
 31
0.0
  0
LINE
  8
0
 62
     0
 10
188.546
 20
100.794
 30
0.0
 11
188.546
 21
101.393
 31
0.0
  0
LINE
  8
0
 62
     0
 10
188.546
 20
101.393
 30
0.0
 11
189.345
 21
101.393
 31
0.0
  0
LINE
  8
0
 62
     0
 10
189.345
 20
101.393
 30
0.0
 11
189.345
 21
114.194
 31
0.0
  0
LINE
  8
0
 62
     0
 10
189.345
 20
114.194
 30
0.0
 11
188.546
 21
114.194
 31
0.0
  0
LINE
  8
0
 62
     0
 10
188.546
 20
114.194
 30
0.0
 11
188.546
 21
114.793
 31
0.0
  0
LINE
  8
0
 62
     0
 10
188.546
 20
114.793
 30
0.0
 11
174.545
 21
114.793
 31
0.0
  0
LINE
  8
0
 62
     0
 10
155.495
 20
114.793
 30
0.0
 11
155.495
 21
114.194
 31
0.0
  0
LINE
  8
0
 62
     0
 10
155.495
 20
114.194
 30
0.0
 11
154.696
 21
114.194
 31
0.0
  0
LINE
  8
0
 62
     0
 10
154.696
 20
114.194
 30
0.0
 11
154.696
 21
101.393
 31
0.0
  0
LINE
  8
0
 62
     0
 10
154.696
 20
101.393
 30
0.0
 11
155.495
 21
101.393
 31
0.0
  0
LINE
  8
0
 62
     0
 10
155.495
 20
101.393
 30
0.0
 11
155.495
 21
100.794
 31
0.0
  0
LINE
  8
0
 62
     0
 10
155.495
 20
100.794
 30
0.0
 11
169.496
 21
100.794
 31
0.0
  0
LINE
  8
0
 62
     0
 10
169.496
 20
100.794
 30
0.0
 11
169.496
 21
101.393
 31
0.0
  0
LINE
  8
0
 62
     0
 10
169.496
 20
101.393
 30
0.0
 11
170.295
 21
101.393
 31
0.0
  0
LINE
  8
0
 62
     0
 10
170.295
 20
101.393
 30
0.0
 11
170.295
 21
114.194
 31
0.0
  0
LINE
  8
0
 62
     0
 10
170.295
 20
114.194
 30
0.0
 11
169.496
 21
114.194
 31
0.0
  0
LINE
  8
0
 62
     0
 10
169.496
 20
114.194
 30
0.0
 11
169.496
 21
114.793
 31
0.0
  0
LINE
  8
0
 62
     0
 10
169.496
 20
114.793
 30
0.0
 11
155.495
 21
114.793
 31
0.0
  0
LINE
  8
0
 62
     0
 10
136.445
 20
114.793
 30
0.0
 11
136.445
 21
114.194
 31
0.0
  0
LINE
  8
0
 62
     0
 10
136.445
 20
114.194
 30
0.0
 11
135.646
 21
114.194
 31
0.0
  0
LINE
  8
0
 62
     0
 10
135.646
 20
114.194
 30
0.0
 11
135.646
 21
101.393
 31
0.0
  0
LINE
  8
0
 62
     0
 10
135.646
 20
101.393
 30
0.0
 11
136.445
 21
101.393
 31
0.0
  0
LINE
  8
0
 62
     0
 10
136.445
 20
101.393
 30
0.0
 11
136.445
 21
100.794
 31
0.0
  0
LINE
  8
0
 62
     0
 10
136.445
 20
100.794
 30
0.0
 11
150.446
 21
100.794
 31
0.0
  0
LINE
  8
0
 62
     0
 10
150.446
 20
100.794
 30
0.0
 11
150.446
 21
101.393
 31
0.0
  0
LINE
  8
0
 62
     0
 10
150.446
 20
101.393
 30
0.0
 11
151.245
 21
101.393
 31
0.0
  0
LINE
  8
0
 62
     0
 10
151.245
 20
101.393
 30
0.0
 11
151.245
 21
114.194
 31
0.0
  0
LINE
  8
0
 62
     0
 10
151.245
 20
114.194
 30
0.0
 11
150.446
 21
114.194
 31
0.0
  0
LINE
  8
0
 62
     0
 10
150.446
 20
114.194
 30
0.0
 11
150.446
 21
114.793
 31
0.0
  0
LINE
  8
0
 62
     0
 10
150.446
 20
114.793
 30
0.0
 11
136.445
 21
114.793
 31
0.0
  0
LINE
  8
0
 62
     0
 10
117.395
 20
114.793
 30
0.0
 11
117.395
 21
114.194
 31
0.0
  0
LINE
  8
0
 62
     0
 10
117.395
 20
114.194
 30
0.0
 11
116.596
 21
114.194
 31
0.0
  0
LINE
  8
0
 62
     0
 10
116.596
 20
114.194
 30
0.0
 11
116.596
 21
101.393
 31
0.0
  0
LINE
  8
0
 62
     0
 10
116.596
 20
101.393
 30
0.0
 11
117.395
 21
101.393
 31
0.0
  0
LINE
  8
0
 62
     0
 10
117.395
 20
101.393
 30
0.0
 11
117.395
 21
100.794
 31
0.0
  0
LINE
  8
0
 62
     0
 10
117.395
 20
100.794
 30
0.0
 11
131.396
 21
100.794
 31
0.0
  0
LINE
  8
0
 62
     0
 10
131.396
 20
100.794
 30
0.0
 11
131.396
 21
101.393
 31
0.0
  0
LINE
  8
0
 62
     0
 10
131.396
 20
101.393
 30
0.0
 11
132.195
 21
101.393
 31
0.0
  0
LINE
  8
0
 62
     0
 10
132.195
 20
101.393
 30
0.0
 11
132.195
 21
114.194
 31
0.0
  0
LINE
  8
0
 62
     0
 10
132.195
 20
114.194
 30
0.0
 11
131.396
 21
114.194
 31
0.0
  0
LINE
  8
0
 62
     0
 10
131.396
 20
114.194
 30
0.0
 11
131.396
 21
114.793
 31
0.0
  0
LINE
  8
0
 62
     0
 10
131.396
 20
114.793
 30
0.0
 11
117.395
 21
114.793
 31
0.0
  0
LINE
  8
0
 62
     0
 10
98.3449
 20
114.793
 30
0.0
 11
98.3449
 21
114.194
 31
0.0
  0
LINE
  8
0
 62
     0
 10
98.3449
 20
114.194
 30
0.0
 11
97.5459
 21
114.194
 31
0.0
  0
LINE
  8
0
 62
     0
 10
97.5459
 20
114.194
 30
0.0
 11
97.5459
 21
101.393
 31
0.0
  0
LINE
  8
0
 62
     0
 10
97.5459
 20
101.393
 30
0.0
 11
98.3449
 21
101.393
 31
0.0
  0
LINE
  8
0
 62
     0
 10
98.3449
 20
101.393
 30
0.0
 11
98.3449
 21
100.794
 31
0.0
  0
LINE
  8
0
 62
     0
 10
98.3449
 20
100.794
 30
0.0
 11
112.346
 21
100.794
 31
0.0
  0
LINE
  8
0
 62
     0
 10
112.346
 20
100.794
 30
0.0
 11
112.346
 21
101.393
 31
0.0
  0
LINE
  8
0
 62
     0
 10
112.346
 20
101.393
 30
0.0
 11
113.145
 21
101.393
 31
0.0
  0
LINE
  8
0
 62
     0
 10
113.145
 20
101.393
 30
0.0
 11
113.145
 21
114.194
 31
0.0
  0
LINE
  8
0
 62
     0
 10
113.145
 20
114.194
 30
0.0
 11
112.346
 21
114.194
 31
0.0
  0
LINE
  8
0
 62
     0
 10
112.346
 20
114.194
 30
0.0
 11
112.346
 21
114.793
 31
0.0
  0
LINE
  8
0
 62
     0
 10
112.346
 20
114.793
 30
0.0
 11
98.3449
 21
114.793
 31
0.0
  0
LINE
  8
0
 62
     0
 10
79.2949
 20
114.793
 30
0.0
 11
79.2949
 21
114.194
 31
0.0
  0
LINE
  8
0
 62
     0
 10
79.2949
 20
114.194
 30
0.0
 11
78.4959
 21
114.194
 31
0.0
  0
LINE
  8
0
 62
     0
 10
78.4959
 20
114.194
 30
0.0
 11
78.4959
 21
101.393
 31
0.0
  0
LINE
  8
0
 62
     0
 10
78.4959
 20
101.393
 30
0.0
 11
79.2949
 21
101.393
 31
0.0
  0
LINE
  8
0
 62
     0
 10
79.2949
 20
101.393
 30
0.0
 11
79.2949
 21
100.794
 31
0.0
  0
LINE
  8
0
 62
     0
 10
79.2949
 20
100.794
 30
0.0
 11
93.296
 21
100.794
 31
0.0
  0
LINE
  8
0
 62
     0
 10
93.296
 20
100.794
 30
0.0
 11
93.296
 21
101.393
 31
0.0
  0
LINE
  8
0
 62
     0
 10
93.296
 20
101.393
 30
0.0
 11
94.0954
 21
101.393
 31
0.0
  0
LINE
  8
0
 62
     0
 10
94.0954
 20
101.393
 30
0.0
 11
94.0954
 21
114.194
 31
0.0
  0
LINE
  8
0
 62
     0
 10
94.0954
 20
114.194
 30
0.0
 11
93.296
 21
114.194
 31
0.0
  0
LINE
  8
0
 62
     0
 10
93.296
 20
114.194
 30
0.0
 11
93.296
 21
114.793
 31
0.0
  0
LINE
  8
0
 62
     0
 10
93.296
 20
114.793
 30
0.0
 11
79.2949
 21
114.793
 31
0.0
  0
LINE
  8
0
 62
     0
 10
60.2449
 20
114.793
 30
0.0
 11
60.2449
 21
114.194
 31
0.0
  0
LINE
  8
0
 62
     0
 10
60.2449
 20
114.194
 30
0.0
 11
59.4445
 21
114.194
 31
0.0
  0
LINE
  8
0
 62
     0
 10
59.4445
 20
114.194
 30
0.0
 11
59.4445
 21
101.393
 31
0.0
  0
LINE
  8
0
 62
     0
 10
59.4445
 20
101.393
 30
0.0
 11
60.2449
 21
101.393
 31
0.0
  0
LINE
  8
0
 62
     0
 10
60.2449
 20
101.393
 30
0.0
 11
60.2449
 21
100.794
 31
0.0
  0
LINE
  8
0
 62
     0
 10
60.2449
 20
100.794
 30
0.0
 11
74.246
 21
100.794
 31
0.0
  0
LINE
  8
0
 62
     0
 10
74.246
 20
100.794
 30
0.0
 11
74.246
 21
101.393
 31
0.0
  0
LINE
  8
0
 62
     0
 10
74.246
 20
101.393
 30
0.0
 11
75.0454
 21
101.393
 31
0.0
  0
LINE
  8
0
 62
     0
 10
75.0454
 20
101.393
 30
0.0
 11
75.0454
 21
114.194
 31
0.0
  0
LINE
  8
0
 62
     0
 10
75.0454
 20
114.194
 30
0.0
 11
74.246
 21
114.194
 31
0.0
  0
LINE
  8
0
 62
     0
 10
74.246
 20
114.194
 30
0.0
 11
74.246
 21
114.793
 31
0.0
  0
LINE
  8
0
 62
     0
 10
74.246
 20
114.793
 30
0.0
 11
60.2449
 21
114.793
 31
0.0
  0
LINE
  8
0
 62
     0
 10
41.1949
 20
114.793
 30
0.0
 11
41.1949
 21
114.194
 31
0.0
  0
LINE
  8
0
 62
     0
 10
41.1949
 20
114.194
 30
0.0
 11
40.3959
 21
114.194
 31
0.0
  0
LINE
  8
0
 62
     0
 10
40.3959
 20
114.194
 30
0.0
 11
40.3959
 21
101.393
 31
0.0
  0
LINE
  8
0
 62
     0
 10
40.3959
 20
101.393
 30
0.0
 11
41.1949
 21
101.393
 31
0.0
  0
LINE
  8
0
 62
     0
 10
41.1949
 20
101.393
 30
0.0
 11
41.1949
 21
100.794
 31
0.0
  0
LINE
  8
0
 62
     0
 10
41.1949
 20
100.794
 30
0.0
 11
55.196
 21
100.794
 31
0.0
  0
LINE
  8
0
 62
     0
 10
55.196
 20
100.794
 30
0.0
 11
55.196
 21
101.393
 31
0.0
  0
LINE
  8
0
 62
     0
 10
55.196
 20
101.393
 30
0.0
 11
55.9954
 21
101.393
 31
0.0
  0
LINE
  8
0
 62
     0
 10
55.9954
 20
101.393
 30
0.0
 11
55.9954
 21
114.194
 31
0.0
  0
LINE
  8
0
 62
     0
 10
55.9954
 20
114.194
 30
0.0
 11
55.196
 21
114.194
 31
0.0
  0
LINE
  8
0
 62
     0
 10
55.196
 20
114.194
 30
0.0
 11
55.196
 21
114.793
 31
0.0
  0
LINE
  8
0
 62
     0
 10
55.196
 20
114.793
 30
0.0
 11
41.1949
 21
114.793
 31
0.0
  0
LINE
  8
0
 62
     0
 10
17.3826
 20
114.793
 30
0.0
 11
17.3826
 21
114.194
 31
0.0
  0
LINE
  8
0
 62
     0
 10
17.3826
 20
114.194
 30
0.0
 11
16.5819
 21
114.194
 31
0.0
  0
LINE
  8
0
 62
     0
 10
16.5819
 20
114.194
 30
0.0
 11
16.5819
 21
101.393
 31
0.0
  0
LINE
  8
0
 62
     0
 10
16.5819
 20
101.393
 30
0.0
 11
17.3826
 21
101.393
 31
0.0
  0
LINE
  8
0
 62
     0
 10
17.3826
 20
101.393
 30
0.0
 11
17.3826
 21
100.794
 31
0.0
  0
LINE
  8
0
 62
     0
 10
17.3826
 20
100.794
 30
0.0
 11
31.3821
 21
100.794
 31
0.0
  0
LINE
  8
0
 62
     0
 10
31.3821
 20
100.794
 30
0.0
 11
31.3821
 21
101.393
 31
0.0
  0
LINE
  8
0
 62
     0
 10
31.3821
 20
101.393
 30
0.0
 11
32.1827
 21
101.393
 31
0.0
  0
LINE
  8
0
 62
     0
 10
32.1827
 20
101.393
 30
0.0
 11
32.1827
 21
114.194
 31
0.0
  0
LINE
  8
0
 62
     0
 10
32.1827
 20
114.194
 30
0.0
 11
31.3821
 21
114.194
 31
0.0
  0
LINE
  8
0
 62
     0
 10
31.3821
 20
114.194
 30
0.0
 11
31.3821
 21
114.793
 31
0.0
  0
LINE
  8
0
 62
     0
 10
31.3821
 20
114.793
 30
0.0
 11
17.3826
 21
114.793
 31
0.0
  0
LINE
  8
0
 62
     0
 10
267.414
 20
143.37
 30
0.0
 11
267.414
 21
142.769
 31
0.0
  0
LINE
  8
0
 62
     0
 10
267.414
 20
142.769
 30
0.0
 11
266.613
 21
142.769
 31
0.0
  0
LINE
  8
0
 62
     0
 10
266.613
 20
142.769
 30
0.0
 11
266.613
 21
129.97
 31
0.0
  0
LINE
  8
0
 62
     0
 10
266.613
 20
129.97
 30
0.0
 11
267.414
 21
129.97
 31
0.0
  0
LINE
  8
0
 62
     0
 10
267.414
 20
129.97
 30
0.0
 11
267.414
 21
129.369
 31
0.0
  0
LINE
  8
0
 62
     0
 10
267.414
 20
129.369
 30
0.0
 11
281.413
 21
129.369
 31
0.0
  0
LINE
  8
0
 62
     0
 10
281.413
 20
129.369
 30
0.0
 11
281.413
 21
129.97
 31
0.0
  0
LINE
  8
0
 62
     0
 10
281.413
 20
129.97
 30
0.0
 11
282.214
 21
129.97
 31
0.0
  0
LINE
  8
0
 62
     0
 10
282.214
 20
129.97
 30
0.0
 11
282.214
 21
142.769
 31
0.0
  0
LINE
  8
0
 62
     0
 10
282.214
 20
142.769
 30
0.0
 11
281.413
 21
142.769
 31
0.0
  0
LINE
  8
0
 62
     0
 10
281.413
 20
142.769
 30
0.0
 11
281.413
 21
143.37
 31
0.0
  0
LINE
  8
0
 62
     0
 10
281.413
 20
143.37
 30
0.0
 11
267.414
 21
143.37
 31
0.0
  0
LINE
  8
0
 62
     0
 10
243.601
 20
143.37
 30
0.0
 11
243.601
 21
142.769
 31
0.0
  0
LINE
  8
0
 62
     0
 10
243.601
 20
142.769
 30
0.0
 11
242.802
 21
142.769
 31
0.0
  0
LINE
  8
0
 62
     0
 10
242.802
 20
142.769
 30
0.0
 11
242.802
 21
129.97
 31
0.0
  0
LINE
  8
0
 62
     0
 10
242.802
 20
129.97
 30
0.0
 11
243.601
 21
129.97
 31
0.0
  0
LINE
  8
0
 62
     0
 10
243.601
 20
129.97
 30
0.0
 11
243.601
 21
129.369
 31
0.0
  0
LINE
  8
0
 62
     0
 10
243.601
 20
129.369
 30
0.0
 11
257.601
 21
129.369
 31
0.0
  0
LINE
  8
0
 62
     0
 10
257.601
 20
129.369
 30
0.0
 11
257.601
 21
129.97
 31
0.0
  0
LINE
  8
0
 62
     0
 10
257.601
 20
129.97
 30
0.0
 11
258.402
 21
129.97
 31
0.0
  0
LINE
  8
0
 62
     0
 10
258.402
 20
129.97
 30
0.0
 11
258.402
 21
142.769
 31
0.0
  0
LINE
  8
0
 62
     0
 10
258.402
 20
142.769
 30
0.0
 11
257.601
 21
142.769
 31
0.0
  0
LINE
  8
0
 62
     0
 10
257.601
 20
142.769
 30
0.0
 11
257.601
 21
143.37
 31
0.0
  0
LINE
  8
0
 62
     0
 10
257.601
 20
143.37
 30
0.0
 11
243.601
 21
143.37
 31
0.0
  0
LINE
  8
0
 62
     0
 10
219.789
 20
143.37
 30
0.0
 11
219.789
 21
142.769
 31
0.0
  0
LINE
  8
0
 62
     0
 10
219.789
 20
142.769
 30
0.0
 11
218.988
 21
142.769
 31
0.0
  0
LINE
  8
0
 62
     0
 10
218.988
 20
142.769
 30
0.0
 11
218.988
 21
129.97
 31
0.0
  0
LINE
  8
0
 62
     0
 10
218.988
 20
129.97
 30
0.0
 11
219.789
 21
129.97
 31
0.0
  0
LINE
  8
0
 62
     0
 10
219.789
 20
129.97
 30
0.0
 11
219.789
 21
129.369
 31
0.0
  0
LINE
  8
0
 62
     0
 10
219.789
 20
129.369
 30
0.0
 11
233.788
 21
129.369
 31
0.0
  0
LINE
  8
0
 62
     0
 10
233.788
 20
129.369
 30
0.0
 11
233.788
 21
129.97
 31
0.0
  0
LINE
  8
0
 62
     0
 10
233.788
 20
129.97
 30
0.0
 11
234.589
 21
129.97
 31
0.0
  0
LINE
  8
0
 62
     0
 10
234.589
 20
129.97
 30
0.0
 11
234.589
 21
142.769
 31
0.0
  0
LINE
  8
0
 62
     0
 10
234.589
 20
142.769
 30
0.0
 11
233.788
 21
142.769
 31
0.0
  0
LINE
  8
0
 62
     0
 10
233.788
 20
142.769
 30
0.0
 11
233.788
 21
143.37
 31
0.0
  0
LINE
  8
0
 62
     0
 10
233.788
 20
143.37
 30
0.0
 11
219.789
 21
143.37
 31
0.0
  0
LINE
  8
0
 62
     0
 10
195.976
 20
143.37
 30
0.0
 11
195.976
 21
142.769
 31
0.0
  0
LINE
  8
0
 62
     0
 10
195.976
 20
142.769
 30
0.0
 11
195.177
 21
142.769
 31
0.0
  0
LINE
  8
0
 62
     0
 10
195.177
 20
142.769
 30
0.0
 11
195.177
 21
129.97
 31
0.0
  0
LINE
  8
0
 62
     0
 10
195.177
 20
129.97
 30
0.0
 11
195.976
 21
129.97
 31
0.0
  0
LINE
  8
0
 62
     0
 10
195.976
 20
129.97
 30
0.0
 11
195.976
 21
129.369
 31
0.0
  0
LINE
  8
0
 62
     0
 10
195.976
 20
129.369
 30
0.0
 11
209.976
 21
129.369
 31
0.0
  0
LINE
  8
0
 62
     0
 10
209.976
 20
129.369
 30
0.0
 11
209.976
 21
129.97
 31
0.0
  0
LINE
  8
0
 62
     0
 10
209.976
 20
129.97
 30
0.0
 11
210.777
 21
129.97
 31
0.0
  0
LINE
  8
0
 62
     0
 10
210.777
 20
129.97
 30
0.0
 11
210.777
 21
142.769
 31
0.0
  0
LINE
  8
0
 62
     0
 10
210.777
 20
142.769
 30
0.0
 11
209.976
 21
142.769
 31
0.0
  0
LINE
  8
0
 62
     0
 10
209.976
 20
142.769
 30
0.0
 11
209.976
 21
143.37
 31
0.0
  0
LINE
  8
0
 62
     0
 10
209.976
 20
143.37
 30
0.0
 11
195.976
 21
143.37
 31
0.0
  0
LINE
  8
0
 62
     0
 10
172.164
 20
143.37
 30
0.0
 11
172.164
 21
142.769
 31
0.0
  0
LINE
  8
0
 62
     0
 10
172.164
 20
142.769
 30
0.0
 11
171.363
 21
142.769
 31
0.0
  0
LINE
  8
0
 62
     0
 10
171.363
 20
142.769
 30
0.0
 11
171.363
 21
129.97
 31
0.0
  0
LINE
  8
0
 62
     0
 10
171.363
 20
129.97
 30
0.0
 11
172.164
 21
129.97
 31
0.0
  0
LINE
  8
0
 62
     0
 10
172.164
 20
129.97
 30
0.0
 11
172.164
 21
129.369
 31
0.0
  0
LINE
  8
0
 62
     0
 10
172.164
 20
129.369
 30
0.0
 11
186.163
 21
129.369
 31
0.0
  0
LINE
  8
0
 62
     0
 10
186.163
 20
129.369
 30
0.0
 11
186.163
 21
129.97
 31
0.0
  0
LINE
  8
0
 62
     0
 10
186.163
 20
129.97
 30
0.0
 11
186.964
 21
129.97
 31
0.0
  0
LINE
  8
0
 62
     0
 10
186.964
 20
129.97
 30
0.0
 11
186.964
 21
142.769
 31
0.0
  0
LINE
  8
0
 62
     0
 10
186.964
 20
142.769
 30
0.0
 11
186.163
 21
142.769
 31
0.0
  0
LINE
  8
0
 62
     0
 10
186.163
 20
142.769
 30
0.0
 11
186.163
 21
143.37
 31
0.0
  0
LINE
  8
0
 62
     0
 10
186.163
 20
143.37
 30
0.0
 11
172.164
 21
143.37
 31
0.0
  0
LINE
  8
0
 62
     0
 10
138.826
 20
143.37
 30
0.0
 11
138.826
 21
142.769
 31
0.0
  0
LINE
  8
0
 62
     0
 10
138.826
 20
142.769
 30
0.0
 11
138.027
 21
142.769
 31
0.0
  0
LINE
  8
0
 62
     0
 10
138.027
 20
142.769
 30
0.0
 11
138.027
 21
129.97
 31
0.0
  0
LINE
  8
0
 62
     0
 10
138.027
 20
129.97
 30
0.0
 11
138.826
 21
129.97
 31
0.0
  0
LINE
  8
0
 62
     0
 10
138.826
 20
129.97
 30
0.0
 11
138.826
 21
129.369
 31
0.0
  0
LINE
  8
0
 62
     0
 10
138.826
 20
129.369
 30
0.0
 11
152.826
 21
129.369
 31
0.0
  0
LINE
  8
0
 62
     0
 10
152.826
 20
129.369
 30
0.0
 11
152.826
 21
129.97
 31
0.0
  0
LINE
  8
0
 62
     0
 10
152.826
 20
129.97
 30
0.0
 11
153.627
 21
129.97
 31
0.0
  0
LINE
  8
0
 62
     0
 10
153.627
 20
129.97
 30
0.0
 11
153.627
 21
142.769
 31
0.0
  0
LINE
  8
0
 62
     0
 10
153.627
 20
142.769
 30
0.0
 11
152.826
 21
142.769
 31
0.0
  0
LINE
  8
0
 62
     0
 10
152.826
 20
142.769
 30
0.0
 11
152.826
 21
143.37
 31
0.0
  0
LINE
  8
0
 62
     0
 10
152.826
 20
143.37
 30
0.0
 11
138.826
 21
143.37
 31
0.0
  0
LINE
  8
0
 62
     0
 10
115.014
 20
143.37
 30
0.0
 11
115.014
 21
142.769
 31
0.0
  0
LINE
  8
0
 62
     0
 10
115.014
 20
142.769
 30
0.0
 11
114.213
 21
142.769
 31
0.0
  0
LINE
  8
0
 62
     0
 10
114.213
 20
142.769
 30
0.0
 11
114.213
 21
129.97
 31
0.0
  0
LINE
  8
0
 62
     0
 10
114.213
 20
129.97
 30
0.0
 11
115.014
 21
129.97
 31
0.0
  0
LINE
  8
0
 62
     0
 10
115.014
 20
129.97
 30
0.0
 11
115.014
 21
129.369
 31
0.0
  0
LINE
  8
0
 62
     0
 10
115.014
 20
129.369
 30
0.0
 11
129.013
 21
129.369
 31
0.0
  0
LINE
  8
0
 62
     0
 10
129.013
 20
129.369
 30
0.0
 11
129.013
 21
129.97
 31
0.0
  0
LINE
  8
0
 62
     0
 10
129.013
 20
129.97
 30
0.0
 11
129.814
 21
129.97
 31
0.0
  0
LINE
  8
0
 62
     0
 10
129.814
 20
129.97
 30
0.0
 11
129.814
 21
142.769
 31
0.0
  0
LINE
  8
0
 62
     0
 10
129.814
 20
142.769
 30
0.0
 11
129.013
 21
142.769
 31
0.0
  0
LINE
  8
0
 62
     0
 10
129.013
 20
142.769
 30
0.0
 11
129.013
 21
143.37
 31
0.0
  0
LINE
  8
0
 62
     0
 10
129.013
 20
143.37
 30
0.0
 11
115.014
 21
143.37
 31
0.0
  0
LINE
  8
0
 62
     0
 10
91.2012
 20
143.37
 30
0.0
 11
91.2012
 21
142.769
 31
0.0
  0
LINE
  8
0
 62
     0
 10
91.2012
 20
142.769
 30
0.0
 11
90.4021
 21
142.769
 31
0.0
  0
LINE
  8
0
 62
     0
 10
90.4021
 20
142.769
 30
0.0
 11
90.4021
 21
129.97
 31
0.0
  0
LINE
  8
0
 62
     0
 10
90.4021
 20
129.97
 30
0.0
 11
91.2012
 21
129.97
 31
0.0
  0
LINE
  8
0
 62
     0
 10
91.2012
 20
129.97
 30
0.0
 11
91.2012
 21
129.369
 31
0.0
  0
LINE
  8
0
 62
     0
 10
91.2012
 20
129.369
 30
0.0
 11
105.201
 21
129.369
 31
0.0
  0
LINE
  8
0
 62
     0
 10
105.201
 20
129.369
 30
0.0
 11
105.201
 21
129.97
 31
0.0
  0
LINE
  8
0
 62
     0
 10
105.201
 20
129.97
 30
0.0
 11
106.002
 21
129.97
 31
0.0
  0
LINE
  8
0
 62
     0
 10
106.002
 20
129.97
 30
0.0
 11
106.002
 21
142.769
 31
0.0
  0
LINE
  8
0
 62
     0
 10
106.002
 20
142.769
 30
0.0
 11
105.201
 21
142.769
 31
0.0
  0
LINE
  8
0
 62
     0
 10
105.201
 20
142.769
 30
0.0
 11
105.201
 21
143.37
 31
0.0
  0
LINE
  8
0
 62
     0
 10
105.201
 20
143.37
 30
0.0
 11
91.2012
 21
143.37
 31
0.0
  0
LINE
  8
0
 62
     0
 10
67.3887
 20
143.37
 30
0.0
 11
67.3887
 21
142.769
 31
0.0
  0
LINE
  8
0
 62
     0
 10
67.3887
 20
142.769
 30
0.0
 11
66.5882
 21
142.769
 31
0.0
  0
LINE
  8
0
 62
     0
 10
66.5882
 20
142.769
 30
0.0
 11
66.5882
 21
129.97
 31
0.0
  0
LINE
  8
0
 62
     0
 10
66.5882
 20
129.97
 30
0.0
 11
67.3887
 21
129.97
 31
0.0
  0
LINE
  8
0
 62
     0
 10
67.3887
 20
129.97
 30
0.0
 11
67.3887
 21
129.369
 31
0.0
  0
LINE
  8
0
 62
     0
 10
67.3887
 20
129.369
 30
0.0
 11
81.3883
 21
129.369
 31
0.0
  0
LINE
  8
0
 62
     0
 10
81.3883
 20
129.369
 30
0.0
 11
81.3883
 21
129.97
 31
0.0
  0
LINE
  8
0
 62
     0
 10
81.3883
 20
129.97
 30
0.0
 11
82.1891
 21
129.97
 31
0.0
  0
LINE
  8
0
 62
     0
 10
82.1891
 20
129.97
 30
0.0
 11
82.1891
 21
142.769
 31
0.0
  0
LINE
  8
0
 62
     0
 10
82.1891
 20
142.769
 30
0.0
 11
81.3883
 21
142.769
 31
0.0
  0
LINE
  8
0
 62
     0
 10
81.3883
 20
142.769
 30
0.0
 11
81.3883
 21
143.37
 31
0.0
  0
LINE
  8
0
 62
     0
 10
81.3883
 20
143.37
 30
0.0
 11
67.3887
 21
143.37
 31
0.0
  0
LINE
  8
0
 62
     0
 10
43.5762
 20
143.37
 30
0.0
 11
43.5762
 21
142.769
 31
0.0
  0
LINE
  8
0
 62
     0
 10
43.5762
 20
142.769
 30
0.0
 11
42.7771
 21
142.769
 31
0.0
  0
LINE
  8
0
 62
     0
 10
42.7771
 20
142.769
 30
0.0
 11
42.7771
 21
129.97
 31
0.0
  0
LINE
  8
0
 62
     0
 10
42.7771
 20
129.97
 30
0.0
 11
43.5762
 21
129.97
 31
0.0
  0
LINE
  8
0
 62
     0
 10
43.5762
 20
129.97
 30
0.0
 11
43.5762
 21
129.369
 31
0.0
  0
LINE
  8
0
 62
     0
 10
43.5762
 20
129.369
 30
0.0
 11
57.5758
 21
129.369
 31
0.0
  0
LINE
  8
0
 62
     0
 10
57.5758
 20
129.369
 30
0.0
 11
57.5758
 21
129.97
 31
0.0
  0
LINE
  8
0
 62
     0
 10
57.5758
 20
129.97
 30
0.0
 11
58.3766
 21
129.97
 31
0.0
  0
LINE
  8
0
 62
     0
 10
58.3766
 20
129.97
 30
0.0
 11
58.3766
 21
142.769
 31
0.0
  0
LINE
  8
0
 62
     0
 10
58.3766
 20
142.769
 30
0.0
 11
57.5758
 21
142.769
 31
0.0
  0
LINE
  8
0
 62
     0
 10
57.5758
 20
142.769
 30
0.0
 11
57.5758
 21
143.37
 31
0.0
  0
LINE
  8
0
 62
     0
 10
57.5758
 20
143.37
 30
0.0
 11
43.5762
 21
143.37
 31
0.0
  0
LINE
  8
0
 62
     0
 10
12.6201
 20
143.37
 30
0.0
 11
12.6201
 21
142.769
 31
0.0
  0
LINE
  8
0
 62
     0
 10
12.6201
 20
142.769
 30
0.0
 11
11.8194
 21
142.769
 31
0.0
  0
LINE
  8
0
 62
     0
 10
11.8194
 20
142.769
 30
0.0
 11
11.8194
 21
129.97
 31
0.0
  0
LINE
  8
0
 62
     0
 10
11.8194
 20
129.97
 30
0.0
 11
12.6201
 21
129.97
 31
0.0
  0
LINE
  8
0
 62
     0
 10
12.6201
 20
129.97
 30
0.0
 11
12.6201
 21
129.369
 31
0.0
  0
LINE
  8
0
 62
     0
 10
12.6201
 20
129.369
 30
0.0
 11
26.6209
 21
129.369
 31
0.0
  0
LINE
  8
0
 62
     0
 10
26.6209
 20
129.369
 30
0.0
 11
26.6209
 21
129.97
 31
0.0
  0
LINE
  8
0
 62
     0
 10
26.6209
 20
129.97
 30
0.0
 11
27.4188
 21
129.97
 31
0.0
  0
LINE
  8
0
 62
     0
 10
27.4188
 20
129.97
 30
0.0
 11
27.4188
 21
142.769
 31
0.0
  0
LINE
  8
0
 62
     0
 10
27.4188
 20
142.769
 30
0.0
 11
26.6209
 21
142.769
 31
0.0
  0
LINE
  8
0
 62
     0
 10
26.6209
 20
142.769
 30
0.0
 11
26.6209
 21
143.37
 31
0.0
  0
LINE
  8
0
 62
     0
 10
26.6209
 20
143.37
 30
0.0
 11
12.6201
 21
143.37
 31
0.0
  0
LINE
  8
0
 62
     0
 10
372.572
 20
150.32
 30
0.0
 11
372.156
 21
150.107
 31
0.0
  0
LINE
  8
0
 62
     0
 10
372.156
 20
150.107
 30
0.0
 11
371.821
 21
149.775
 31
0.0
  0
LINE
  8
0
 62
     0
 10
371.821
 20
149.775
 30
0.0
 11
371.609
 21
149.357
 31
0.0
  0
LINE
  8
0
 62
     0
 10
371.609
 20
149.357
 30
0.0
 11
371.535
 21
148.893
 31
0.0
  0
LINE
  8
0
 62
     0
 10
371.535
 20
148.893
 30
0.0
 11
371.609
 21
148.43
 31
0.0
  0
LINE
  8
0
 62
     0
 10
371.609
 20
148.43
 30
0.0
 11
371.821
 21
148.012
 31
0.0
  0
LINE
  8
0
 62
     0
 10
371.821
 20
148.012
 30
0.0
 11
372.156
 21
147.68
 31
0.0
  0
LINE
  8
0
 62
     0
 10
372.156
 20
147.68
 30
0.0
 11
372.572
 21
147.468
 31
0.0
  0
LINE
  8
0
 62
     0
 10
372.572
 20
147.468
 30
0.0
 11
373.034
 21
147.394
 31
0.0
  0
LINE
  8
0
 62
     0
 10
373.034
 20
147.394
 30
0.0
 11
373.5
 21
147.468
 31
0.0
  0
LINE
  8
0
 62
     0
 10
373.5
 20
147.468
 30
0.0
 11
373.916
 21
147.68
 31
0.0
  0
LINE
  8
0
 62
     0
 10
373.916
 20
147.68
 30
0.0
 11
374.248
 21
148.012
 31
0.0
  0
LINE
  8
0
 62
     0
 10
374.248
 20
148.012
 30
0.0
 11
374.463
 21
148.43
 31
0.0
  0
LINE
  8
0
 62
     0
 10
374.463
 20
148.43
 30
0.0
 11
374.537
 21
148.893
 31
0.0
  0
LINE
  8
0
 62
     0
 10
374.537
 20
148.893
 30
0.0
 11
374.463
 21
149.357
 31
0.0
  0
LINE
  8
0
 62
     0
 10
374.463
 20
149.357
 30
0.0
 11
374.248
 21
149.775
 31
0.0
  0
LINE
  8
0
 62
     0
 10
374.248
 20
149.775
 30
0.0
 11
373.916
 21
150.107
 31
0.0
  0
LINE
  8
0
 62
     0
 10
373.916
 20
150.107
 30
0.0
 11
373.5
 21
150.32
 31
0.0
  0
LINE
  8
0
 62
     0
 10
373.5
 20
150.32
 30
0.0
 11
373.034
 21
150.394
 31
0.0
  0
LINE
  8
0
 62
     0
 10
373.034
 20
150.394
 30
0.0
 11
372.572
 21
150.32
 31
0.0
  0
LINE
  8
0
 62
     0
 10
279.837
 20
150.32
 30
0.0
 11
279.418
 21
150.107
 31
0.0
  0
LINE
  8
0
 62
     0
 10
279.418
 20
150.107
 30
0.0
 11
279.087
 21
149.775
 31
0.0
  0
LINE
  8
0
 62
     0
 10
279.087
 20
149.775
 30
0.0
 11
278.875
 21
149.357
 31
0.0
  0
LINE
  8
0
 62
     0
 10
278.875
 20
149.357
 30
0.0
 11
278.801
 21
148.893
 31
0.0
  0
LINE
  8
0
 62
     0
 10
278.801
 20
148.893
 30
0.0
 11
278.875
 21
148.43
 31
0.0
  0
LINE
  8
0
 62
     0
 10
278.875
 20
148.43
 30
0.0
 11
279.087
 21
148.012
 31
0.0
  0
LINE
  8
0
 62
     0
 10
279.087
 20
148.012
 30
0.0
 11
279.418
 21
147.68
 31
0.0
  0
LINE
  8
0
 62
     0
 10
279.418
 20
147.68
 30
0.0
 11
279.837
 21
147.468
 31
0.0
  0
LINE
  8
0
 62
     0
 10
279.837
 20
147.468
 30
0.0
 11
280.3
 21
147.394
 31
0.0
  0
LINE
  8
0
 62
     0
 10
280.3
 20
147.394
 30
0.0
 11
280.764
 21
147.468
 31
0.0
  0
LINE
  8
0
 62
     0
 10
280.764
 20
147.468
 30
0.0
 11
281.182
 21
147.68
 31
0.0
  0
LINE
  8
0
 62
     0
 10
281.182
 20
147.68
 30
0.0
 11
281.514
 21
148.012
 31
0.0
  0
LINE
  8
0
 62
     0
 10
281.514
 20
148.012
 30
0.0
 11
281.728
 21
148.43
 31
0.0
  0
LINE
  8
0
 62
     0
 10
281.728
 20
148.43
 30
0.0
 11
281.801
 21
148.893
 31
0.0
  0
LINE
  8
0
 62
     0
 10
281.801
 20
148.893
 30
0.0
 11
281.728
 21
149.357
 31
0.0
  0
LINE
  8
0
 62
     0
 10
281.728
 20
149.357
 30
0.0
 11
281.514
 21
149.775
 31
0.0
  0
LINE
  8
0
 62
     0
 10
281.514
 20
149.775
 30
0.0
 11
281.182
 21
150.107
 31
0.0
  0
LINE
  8
0
 62
     0
 10
281.182
 20
150.107
 30
0.0
 11
280.764
 21
150.32
 31
0.0
  0
LINE
  8
0
 62
     0
 10
280.764
 20
150.32
 30
0.0
 11
280.3
 21
150.394
 31
0.0
  0
LINE
  8
0
 62
     0
 10
280.3
 20
150.394
 30
0.0
 11
279.837
 21
150.32
 31
0.0
  0
LINE
  8
0
 62
     0
 10
187.102
 20
150.32
 30
0.0
 11
186.683
 21
150.107
 31
0.0
  0
LINE
  8
0
 62
     0
 10
186.683
 20
150.107
 30
0.0
 11
186.352
 21
149.775
 31
0.0
  0
LINE
  8
0
 62
     0
 10
186.352
 20
149.775
 30
0.0
 11
186.139
 21
149.357
 31
0.0
  0
LINE
  8
0
 62
     0
 10
186.139
 20
149.357
 30
0.0
 11
186.066
 21
148.893
 31
0.0
  0
LINE
  8
0
 62
     0
 10
186.066
 20
148.893
 30
0.0
 11
186.139
 21
148.43
 31
0.0
  0
LINE
  8
0
 62
     0
 10
186.139
 20
148.43
 30
0.0
 11
186.352
 21
148.012
 31
0.0
  0
LINE
  8
0
 62
     0
 10
186.352
 20
148.012
 30
0.0
 11
186.683
 21
147.68
 31
0.0
  0
LINE
  8
0
 62
     0
 10
186.683
 20
147.68
 30
0.0
 11
187.102
 21
147.468
 31
0.0
  0
LINE
  8
0
 62
     0
 10
187.102
 20
147.468
 30
0.0
 11
187.566
 21
147.394
 31
0.0
  0
LINE
  8
0
 62
     0
 10
187.566
 20
147.394
 30
0.0
 11
188.029
 21
147.468
 31
0.0
  0
LINE
  8
0
 62
     0
 10
188.029
 20
147.468
 30
0.0
 11
188.448
 21
147.68
 31
0.0
  0
LINE
  8
0
 62
     0
 10
188.448
 20
147.68
 30
0.0
 11
188.779
 21
148.012
 31
0.0
  0
LINE
  8
0
 62
     0
 10
188.779
 20
148.012
 30
0.0
 11
188.991
 21
148.43
 31
0.0
  0
LINE
  8
0
 62
     0
 10
188.991
 20
148.43
 30
0.0
 11
189.066
 21
148.893
 31
0.0
  0
LINE
  8
0
 62
     0
 10
189.066
 20
148.893
 30
0.0
 11
188.991
 21
149.357
 31
0.0
  0
LINE
  8
0
 62
     0
 10
188.991
 20
149.357
 30
0.0
 11
188.779
 21
149.775
 31
0.0
  0
LINE
  8
0
 62
     0
 10
188.779
 20
149.775
 30
0.0
 11
188.448
 21
150.107
 31
0.0
  0
LINE
  8
0
 62
     0
 10
188.448
 20
150.107
 30
0.0
 11
188.029
 21
150.32
 31
0.0
  0
LINE
  8
0
 62
     0
 10
188.029
 20
150.32
 30
0.0
 11
187.566
 21
150.394
 31
0.0
  0
LINE
  8
0
 62
     0
 10
187.566
 20
150.394
 30
0.0
 11
187.102
 21
150.32
 31
0.0
  0
LINE
  8
0
 62
     0
 10
94.3666
 20
150.32
 30
0.0
 11
93.9493
 21
150.107
 31
0.0
  0
LINE
  8
0
 62
     0
 10
93.9493
 20
150.107
 30
0.0
 11
93.617
 21
149.775
 31
0.0
  0
LINE
  8
0
 62
     0
 10
93.617
 20
149.775
 30
0.0
 11
93.4036
 21
149.357
 31
0.0
  0
LINE
  8
0
 62
     0
 10
93.4036
 20
149.357
 30
0.0
 11
93.3305
 21
148.893
 31
0.0
  0
LINE
  8
0
 62
     0
 10
93.3305
 20
148.893
 30
0.0
 11
93.4036
 21
148.43
 31
0.0
  0
LINE
  8
0
 62
     0
 10
93.4036
 20
148.43
 30
0.0
 11
93.617
 21
148.012
 31
0.0
  0
LINE
  8
0
 62
     0
 10
93.617
 20
148.012
 30
0.0
 11
93.9493
 21
147.68
 31
0.0
  0
LINE
  8
0
 62
     0
 10
93.9493
 20
147.68
 30
0.0
 11
94.3666
 21
147.468
 31
0.0
  0
LINE
  8
0
 62
     0
 10
94.3666
 20
147.468
 30
0.0
 11
94.8312
 21
147.394
 31
0.0
  0
LINE
  8
0
 62
     0
 10
94.8312
 20
147.394
 30
0.0
 11
95.2941
 21
147.468
 31
0.0
  0
LINE
  8
0
 62
     0
 10
95.2941
 20
147.468
 30
0.0
 11
95.7118
 21
147.68
 31
0.0
  0
LINE
  8
0
 62
     0
 10
95.7118
 20
147.68
 30
0.0
 11
96.0438
 21
148.012
 31
0.0
  0
LINE
  8
0
 62
     0
 10
96.0438
 20
148.012
 30
0.0
 11
96.2561
 21
148.43
 31
0.0
  0
LINE
  8
0
 62
     0
 10
96.2561
 20
148.43
 30
0.0
 11
96.3306
 21
148.893
 31
0.0
  0
LINE
  8
0
 62
     0
 10
96.3306
 20
148.893
 30
0.0
 11
96.2561
 21
149.357
 31
0.0
  0
LINE
  8
0
 62
     0
 10
96.2561
 20
149.357
 30
0.0
 11
96.0438
 21
149.775
 31
0.0
  0
LINE
  8
0
 62
     0
 10
96.0438
 20
149.775
 30
0.0
 11
95.7118
 21
150.107
 31
0.0
  0
LINE
  8
0
 62
     0
 10
95.7118
 20
150.107
 30
0.0
 11
95.2941
 21
150.32
 31
0.0
  0
LINE
  8
0
 62
     0
 10
95.2941
 20
150.32
 30
0.0
 11
94.8312
 21
150.394
 31
0.0
  0
LINE
  8
0
 62
     0
 10
94.8312
 20
150.394
 30
0.0
 11
94.3666
 21
150.32
 31
0.0
  0
ENDSEC
  0
EOF
