  0
SECTION
  2
HEADER
  9
$ACADVER
  1
AC1009
  9
$EXTMIN
 10
0.0
 20
0.0
 30
0.0
  9
$EXTMAX
 10
1000.0
 20
1000.0
 30
0.0
  9
$FILLMODE
 70
 0
  9
$SPLFRAME
 70
 1
  0
ENDSEC
  0
SECTION
  2
TABLES
  0
TABLE
  2
LAYER
 70
1
  0
LAYER
  2
0
 70
     0
 62
     7
  6
CONTINUOUS
  0
ENDTAB
  0
ENDSEC
  0
SECTION
  2
ENTITIES
  0
LINE
  8
0
 62
     0
 10
0.0950846
 20
124.083
 30
0.0
 11
447.77
 21
124.083
 31
0.0
  0
LINE
  8
0
 62
     0
 10
447.77
 20
124.083
 30
0.0
 11
447.77
 21
0.257693
 31
0.0
  0
LINE
  8
0
 62
     0
 10
447.77
 20
0.257693
 30
0.0
 11
0.0950846
 21
0.257693
 31
0.0
  0
LINE
  8
0
 62
     0
 10
0.0950846
 20
0.257693
 30
0.0
 11
0.0950846
 21
124.083
 31
0.0
  0
LINE
  8
0
 62
     0
 10
383.621
 20
16.7831
 30
0.0
 11
383.621
 21
12.0826
 31
0.0
  0
LINE
  8
0
 62
     0
 10
383.621
 20
12.0826
 30
0.0
 11
382.094
 21
12.0826
 31
0.0
  0
LINE
  8
0
 62
     0
 10
382.094
 20
12.0826
 30
0.0
 11
382.094
 21
15.3128
 31
0.0
  0
LINE
  8
0
 62
     0
 10
382.094
 20
15.3128
 30
0.0
 11
375.345
 21
15.3128
 31
0.0
  0
LINE
  8
0
 62
     0
 10
375.345
 20
15.3128
 30
0.0
 11
375.345
 21
12.0826
 31
0.0
  0
LINE
  8
0
 62
     0
 10
375.345
 20
12.0826
 30
0.0
 11
374.519
 21
12.0826
 31
0.0
  0
LINE
  8
0
 62
     0
 10
374.519
 20
12.0826
 30
0.0
 11
374.519
 21
9.28384
 31
0.0
  0
LINE
  8
0
 62
     0
 10
374.519
 20
9.28384
 30
0.0
 11
375.345
 21
9.28384
 31
0.0
  0
LINE
  8
0
 62
     0
 10
375.345
 20
9.28384
 30
0.0
 11
375.345
 21
3.01377
 31
0.0
  0
LINE
  8
0
 62
     0
 10
375.345
 20
3.01377
 30
0.0
 11
377.07
 21
3.01377
 31
0.0
  0
LINE
  8
0
 62
     0
 10
377.07
 20
3.01377
 30
0.0
 11
377.07
 21
1.8135
 31
0.0
  0
LINE
  8
0
 62
     0
 10
377.07
 20
1.8135
 30
0.0
 11
380.369
 21
1.8135
 31
0.0
  0
LINE
  8
0
 62
     0
 10
380.369
 20
1.8135
 30
0.0
 11
380.369
 21
3.01377
 31
0.0
  0
LINE
  8
0
 62
     0
 10
380.369
 20
3.01377
 30
0.0
 11
382.094
 21
3.01377
 31
0.0
  0
LINE
  8
0
 62
     0
 10
382.094
 20
3.01377
 30
0.0
 11
382.094
 21
7.48273
 31
0.0
  0
LINE
  8
0
 62
     0
 10
382.094
 20
7.48273
 30
0.0
 11
383.621
 21
7.48273
 31
0.0
  0
LINE
  8
0
 62
     0
 10
383.621
 20
7.48273
 30
0.0
 11
383.621
 21
2.78364
 31
0.0
  0
LINE
  8
0
 62
     0
 10
383.621
 20
2.78364
 30
0.0
 11
397.619
 21
2.78364
 31
0.0
  0
LINE
  8
0
 62
     0
 10
397.619
 20
2.78364
 30
0.0
 11
397.619
 21
7.48273
 31
0.0
  0
LINE
  8
0
 62
     0
 10
397.619
 20
7.48273
 30
0.0
 11
399.143
 21
7.48273
 31
0.0
  0
LINE
  8
0
 62
     0
 10
399.143
 20
7.48273
 30
0.0
 11
399.143
 21
3.01377
 31
0.0
  0
LINE
  8
0
 62
     0
 10
399.143
 20
3.01377
 30
0.0
 11
400.868
 21
3.01377
 31
0.0
  0
LINE
  8
0
 62
     0
 10
400.868
 20
3.01377
 30
0.0
 11
400.868
 21
1.8135
 31
0.0
  0
LINE
  8
0
 62
     0
 10
400.868
 20
1.8135
 30
0.0
 11
404.17
 21
1.8135
 31
0.0
  0
LINE
  8
0
 62
     0
 10
404.17
 20
1.8135
 30
0.0
 11
404.17
 21
3.01377
 31
0.0
  0
LINE
  8
0
 62
     0
 10
404.17
 20
3.01377
 30
0.0
 11
405.892
 21
3.01377
 31
0.0
  0
LINE
  8
0
 62
     0
 10
405.892
 20
3.01377
 30
0.0
 11
405.892
 21
9.28384
 31
0.0
  0
LINE
  8
0
 62
     0
 10
405.892
 20
9.28384
 30
0.0
 11
406.721
 21
9.28384
 31
0.0
  0
LINE
  8
0
 62
     0
 10
406.721
 20
9.28384
 30
0.0
 11
406.721
 21
12.0826
 31
0.0
  0
LINE
  8
0
 62
     0
 10
406.721
 20
12.0826
 30
0.0
 11
405.892
 21
12.0826
 31
0.0
  0
LINE
  8
0
 62
     0
 10
405.892
 20
12.0826
 30
0.0
 11
405.892
 21
15.3128
 31
0.0
  0
LINE
  8
0
 62
     0
 10
405.892
 20
15.3128
 30
0.0
 11
399.143
 21
15.3128
 31
0.0
  0
LINE
  8
0
 62
     0
 10
399.143
 20
15.3128
 30
0.0
 11
399.143
 21
12.0826
 31
0.0
  0
LINE
  8
0
 62
     0
 10
399.143
 20
12.0826
 30
0.0
 11
397.619
 21
12.0826
 31
0.0
  0
LINE
  8
0
 62
     0
 10
397.619
 20
12.0826
 30
0.0
 11
397.619
 21
16.7831
 31
0.0
  0
LINE
  8
0
 62
     0
 10
397.619
 20
16.7831
 30
0.0
 11
383.621
 21
16.7831
 31
0.0
  0
LINE
  8
0
 62
     0
 10
138.351
 20
16.7831
 30
0.0
 11
138.351
 21
12.0826
 31
0.0
  0
LINE
  8
0
 62
     0
 10
138.351
 20
12.0826
 30
0.0
 11
98.7256
 21
12.0826
 31
0.0
  0
LINE
  8
0
 62
     0
 10
98.7256
 20
12.0826
 30
0.0
 11
98.7256
 21
15.3128
 31
0.0
  0
LINE
  8
0
 62
     0
 10
98.7256
 20
15.3128
 30
0.0
 11
91.9759
 21
15.3128
 31
0.0
  0
LINE
  8
0
 62
     0
 10
91.9759
 20
15.3128
 30
0.0
 11
91.9759
 21
12.0826
 31
0.0
  0
LINE
  8
0
 62
     0
 10
91.9759
 20
12.0826
 30
0.0
 11
91.1504
 21
12.0826
 31
0.0
  0
LINE
  8
0
 62
     0
 10
91.1504
 20
12.0826
 30
0.0
 11
91.1504
 21
9.28384
 31
0.0
  0
LINE
  8
0
 62
     0
 10
91.1504
 20
9.28384
 30
0.0
 11
91.9759
 21
9.28384
 31
0.0
  0
LINE
  8
0
 62
     0
 10
91.9759
 20
9.28384
 30
0.0
 11
91.9759
 21
3.01377
 31
0.0
  0
LINE
  8
0
 62
     0
 10
91.9759
 20
3.01377
 30
0.0
 11
93.701
 21
3.01377
 31
0.0
  0
LINE
  8
0
 62
     0
 10
93.701
 20
3.01377
 30
0.0
 11
93.701
 21
1.8135
 31
0.0
  0
LINE
  8
0
 62
     0
 10
93.701
 20
1.8135
 30
0.0
 11
97.0001
 21
1.8135
 31
0.0
  0
LINE
  8
0
 62
     0
 10
97.0001
 20
1.8135
 30
0.0
 11
97.0001
 21
3.01377
 31
0.0
  0
LINE
  8
0
 62
     0
 10
97.0001
 20
3.01377
 30
0.0
 11
98.7256
 21
3.01377
 31
0.0
  0
LINE
  8
0
 62
     0
 10
98.7256
 20
3.01377
 30
0.0
 11
98.7256
 21
7.48273
 31
0.0
  0
LINE
  8
0
 62
     0
 10
98.7256
 20
7.48273
 30
0.0
 11
138.351
 21
7.48273
 31
0.0
  0
LINE
  8
0
 62
     0
 10
138.351
 20
7.48273
 30
0.0
 11
138.351
 21
2.78364
 31
0.0
  0
LINE
  8
0
 62
     0
 10
138.351
 20
2.78364
 30
0.0
 11
152.35
 21
2.78364
 31
0.0
  0
LINE
  8
0
 62
     0
 10
152.35
 20
2.78364
 30
0.0
 11
152.35
 21
7.48273
 31
0.0
  0
LINE
  8
0
 62
     0
 10
152.35
 20
7.48273
 30
0.0
 11
191.976
 21
7.48273
 31
0.0
  0
LINE
  8
0
 62
     0
 10
191.976
 20
7.48273
 30
0.0
 11
191.976
 21
3.01377
 31
0.0
  0
LINE
  8
0
 62
     0
 10
191.976
 20
3.01377
 30
0.0
 11
193.7
 21
3.01377
 31
0.0
  0
LINE
  8
0
 62
     0
 10
193.7
 20
3.01377
 30
0.0
 11
193.7
 21
1.8135
 31
0.0
  0
LINE
  8
0
 62
     0
 10
193.7
 20
1.8135
 30
0.0
 11
197
 21
1.8135
 31
0.0
  0
LINE
  8
0
 62
     0
 10
197
 20
1.8135
 30
0.0
 11
197
 21
3.01377
 31
0.0
  0
LINE
  8
0
 62
     0
 10
197
 20
3.01377
 30
0.0
 11
198.725
 21
3.01377
 31
0.0
  0
LINE
  8
0
 62
     0
 10
198.725
 20
3.01377
 30
0.0
 11
198.725
 21
9.28384
 31
0.0
  0
LINE
  8
0
 62
     0
 10
198.725
 20
9.28384
 30
0.0
 11
199.551
 21
9.28384
 31
0.0
  0
LINE
  8
0
 62
     0
 10
199.551
 20
9.28384
 30
0.0
 11
199.551
 21
12.0826
 31
0.0
  0
LINE
  8
0
 62
     0
 10
199.551
 20
12.0826
 30
0.0
 11
198.725
 21
12.0826
 31
0.0
  0
LINE
  8
0
 62
     0
 10
198.725
 20
12.0826
 30
0.0
 11
198.725
 21
15.3128
 31
0.0
  0
LINE
  8
0
 62
     0
 10
198.725
 20
15.3128
 30
0.0
 11
191.976
 21
15.3128
 31
0.0
  0
LINE
  8
0
 62
     0
 10
191.976
 20
15.3128
 30
0.0
 11
191.976
 21
12.0826
 31
0.0
  0
LINE
  8
0
 62
     0
 10
191.976
 20
12.0826
 30
0.0
 11
152.35
 21
12.0826
 31
0.0
  0
LINE
  8
0
 62
     0
 10
152.35
 20
12.0826
 30
0.0
 11
152.35
 21
16.7831
 31
0.0
  0
LINE
  8
0
 62
     0
 10
152.35
 20
16.7831
 30
0.0
 11
138.351
 21
16.7831
 31
0.0
  0
LINE
  8
0
 62
     0
 10
412.193
 20
16.7831
 30
0.0
 11
426.194
 21
16.7831
 31
0.0
  0
LINE
  8
0
 62
     0
 10
426.194
 20
16.7831
 30
0.0
 11
426.194
 21
2.78364
 31
0.0
  0
LINE
  8
0
 62
     0
 10
426.194
 20
2.78364
 30
0.0
 11
412.193
 21
2.78364
 31
0.0
  0
LINE
  8
0
 62
     0
 10
412.193
 20
2.78364
 30
0.0
 11
412.193
 21
16.7831
 31
0.0
  0
LINE
  8
0
 62
     0
 10
262.176
 20
16.7831
 30
0.0
 11
276.175
 21
16.7831
 31
0.0
  0
LINE
  8
0
 62
     0
 10
276.175
 20
16.7831
 30
0.0
 11
276.175
 21
2.78364
 31
0.0
  0
LINE
  8
0
 62
     0
 10
276.175
 20
2.78364
 30
0.0
 11
262.176
 21
2.78364
 31
0.0
  0
LINE
  8
0
 62
     0
 10
262.176
 20
2.78364
 30
0.0
 11
262.176
 21
16.7831
 31
0.0
  0
LINE
  8
0
 62
     0
 10
238.362
 20
16.7831
 30
0.0
 11
252.361
 21
16.7831
 31
0.0
  0
LINE
  8
0
 62
     0
 10
252.361
 20
16.7831
 30
0.0
 11
252.361
 21
2.78364
 31
0.0
  0
LINE
  8
0
 62
     0
 10
252.361
 20
2.78364
 30
0.0
 11
238.362
 21
2.78364
 31
0.0
  0
LINE
  8
0
 62
     0
 10
238.362
 20
2.78364
 30
0.0
 11
238.362
 21
16.7831
 31
0.0
  0
LINE
  8
0
 62
     0
 10
212.17
 20
16.7831
 30
0.0
 11
226.169
 21
16.7831
 31
0.0
  0
LINE
  8
0
 62
     0
 10
226.169
 20
16.7831
 30
0.0
 11
226.169
 21
2.78364
 31
0.0
  0
LINE
  8
0
 62
     0
 10
226.169
 20
2.78364
 30
0.0
 11
212.17
 21
2.78364
 31
0.0
  0
LINE
  8
0
 62
     0
 10
212.17
 20
2.78364
 30
0.0
 11
212.17
 21
16.7831
 31
0.0
  0
LINE
  8
0
 62
     0
 10
66.9121
 20
16.7831
 30
0.0
 11
80.9128
 21
16.7831
 31
0.0
  0
LINE
  8
0
 62
     0
 10
80.9128
 20
16.7831
 30
0.0
 11
80.9128
 21
2.78364
 31
0.0
  0
LINE
  8
0
 62
     0
 10
80.9128
 20
2.78364
 30
0.0
 11
66.9121
 21
2.78364
 31
0.0
  0
LINE
  8
0
 62
     0
 10
66.9121
 20
2.78364
 30
0.0
 11
66.9121
 21
16.7831
 31
0.0
  0
LINE
  8
0
 62
     0
 10
43.101
 20
16.7831
 30
0.0
 11
57.1003
 21
16.7831
 31
0.0
  0
LINE
  8
0
 62
     0
 10
57.1003
 20
16.7831
 30
0.0
 11
57.1003
 21
2.78364
 31
0.0
  0
LINE
  8
0
 62
     0
 10
57.1003
 20
2.78364
 30
0.0
 11
43.101
 21
2.78364
 31
0.0
  0
LINE
  8
0
 62
     0
 10
43.101
 20
2.78364
 30
0.0
 11
43.101
 21
16.7831
 31
0.0
  0
LINE
  8
0
 62
     0
 10
19.287
 20
16.7831
 30
0.0
 11
33.2879
 21
16.7831
 31
0.0
  0
LINE
  8
0
 62
     0
 10
33.2879
 20
16.7831
 30
0.0
 11
33.2879
 21
2.78364
 31
0.0
  0
LINE
  8
0
 62
     0
 10
33.2879
 20
2.78364
 30
0.0
 11
19.287
 21
2.78364
 31
0.0
  0
LINE
  8
0
 62
     0
 10
19.287
 20
2.78364
 30
0.0
 11
19.287
 21
16.7831
 31
0.0
  0
LINE
  8
0
 62
     0
 10
437.744
 20
35.4087
 30
0.0
 11
437.744
 21
34.5833
 31
0.0
  0
LINE
  8
0
 62
     0
 10
437.744
 20
34.5833
 30
0.0
 11
431.475
 21
34.5833
 31
0.0
  0
LINE
  8
0
 62
     0
 10
431.475
 20
34.5833
 30
0.0
 11
431.475
 21
32.8579
 31
0.0
  0
LINE
  8
0
 62
     0
 10
431.475
 20
32.8579
 30
0.0
 11
430.276
 21
32.8579
 31
0.0
  0
LINE
  8
0
 62
     0
 10
430.276
 20
32.8579
 30
0.0
 11
430.276
 21
29.5589
 31
0.0
  0
LINE
  8
0
 62
     0
 10
430.276
 20
29.5589
 30
0.0
 11
431.475
 21
29.5589
 31
0.0
  0
LINE
  8
0
 62
     0
 10
431.475
 20
29.5589
 30
0.0
 11
431.475
 21
27.8336
 31
0.0
  0
LINE
  8
0
 62
     0
 10
431.475
 20
27.8336
 30
0.0
 11
435.945
 21
27.8336
 31
0.0
  0
LINE
  8
0
 62
     0
 10
435.945
 20
27.8336
 30
0.0
 11
435.945
 21
26.3081
 31
0.0
  0
LINE
  8
0
 62
     0
 10
435.945
 20
26.3081
 30
0.0
 11
431.246
 21
26.3081
 31
0.0
  0
LINE
  8
0
 62
     0
 10
431.246
 20
26.3081
 30
0.0
 11
431.246
 21
12.3086
 31
0.0
  0
LINE
  8
0
 62
     0
 10
431.246
 20
12.3086
 30
0.0
 11
435.945
 21
12.3086
 31
0.0
  0
LINE
  8
0
 62
     0
 10
435.945
 20
12.3086
 30
0.0
 11
435.945
 21
10.7831
 31
0.0
  0
LINE
  8
0
 62
     0
 10
435.945
 20
10.7831
 30
0.0
 11
431.475
 21
10.7831
 31
0.0
  0
LINE
  8
0
 62
     0
 10
431.475
 20
10.7831
 30
0.0
 11
431.475
 21
9.05785
 31
0.0
  0
LINE
  8
0
 62
     0
 10
431.475
 20
9.05785
 30
0.0
 11
430.276
 21
9.05785
 31
0.0
  0
LINE
  8
0
 62
     0
 10
430.276
 20
9.05785
 30
0.0
 11
430.276
 21
5.75881
 31
0.0
  0
LINE
  8
0
 62
     0
 10
430.276
 20
5.75881
 30
0.0
 11
431.475
 21
5.75881
 31
0.0
  0
LINE
  8
0
 62
     0
 10
431.475
 20
5.75881
 30
0.0
 11
431.475
 21
4.03352
 31
0.0
  0
LINE
  8
0
 62
     0
 10
431.475
 20
4.03352
 30
0.0
 11
437.744
 21
4.03352
 31
0.0
  0
LINE
  8
0
 62
     0
 10
437.744
 20
4.03352
 30
0.0
 11
437.744
 21
3.20807
 31
0.0
  0
LINE
  8
0
 62
     0
 10
437.744
 20
3.20807
 30
0.0
 11
440.545
 21
3.20807
 31
0.0
  0
LINE
  8
0
 62
     0
 10
440.545
 20
3.20807
 30
0.0
 11
440.545
 21
4.03352
 31
0.0
  0
LINE
  8
0
 62
     0
 10
440.545
 20
4.03352
 30
0.0
 11
443.777
 21
4.03352
 31
0.0
  0
LINE
  8
0
 62
     0
 10
443.777
 20
4.03352
 30
0.0
 11
443.777
 21
10.7831
 31
0.0
  0
LINE
  8
0
 62
     0
 10
443.777
 20
10.7831
 30
0.0
 11
440.545
 21
10.7831
 31
0.0
  0
LINE
  8
0
 62
     0
 10
440.545
 20
10.7831
 30
0.0
 11
440.545
 21
12.3086
 31
0.0
  0
LINE
  8
0
 62
     0
 10
440.545
 20
12.3086
 30
0.0
 11
445.244
 21
12.3086
 31
0.0
  0
LINE
  8
0
 62
     0
 10
445.244
 20
12.3086
 30
0.0
 11
445.244
 21
26.3081
 31
0.0
  0
LINE
  8
0
 62
     0
 10
445.244
 20
26.3081
 30
0.0
 11
440.545
 21
26.3081
 31
0.0
  0
LINE
  8
0
 62
     0
 10
440.545
 20
26.3081
 30
0.0
 11
440.545
 21
27.8336
 31
0.0
  0
LINE
  8
0
 62
     0
 10
440.545
 20
27.8336
 30
0.0
 11
443.777
 21
27.8336
 31
0.0
  0
LINE
  8
0
 62
     0
 10
443.777
 20
27.8336
 30
0.0
 11
443.777
 21
34.5833
 31
0.0
  0
LINE
  8
0
 62
     0
 10
443.777
 20
34.5833
 30
0.0
 11
440.545
 21
34.5833
 31
0.0
  0
LINE
  8
0
 62
     0
 10
440.545
 20
34.5833
 30
0.0
 11
440.545
 21
35.4087
 31
0.0
  0
LINE
  8
0
 62
     0
 10
440.545
 20
35.4087
 30
0.0
 11
437.744
 21
35.4087
 31
0.0
  0
LINE
  8
0
 62
     0
 10
262.176
 20
35.833
 30
0.0
 11
262.176
 21
31.1326
 31
0.0
  0
LINE
  8
0
 62
     0
 10
262.176
 20
31.1326
 30
0.0
 11
260.651
 21
31.1326
 31
0.0
  0
LINE
  8
0
 62
     0
 10
260.651
 20
31.1326
 30
0.0
 11
260.651
 21
34.3628
 31
0.0
  0
LINE
  8
0
 62
     0
 10
260.651
 20
34.3628
 30
0.0
 11
253.899
 21
34.3628
 31
0.0
  0
LINE
  8
0
 62
     0
 10
253.899
 20
34.3628
 30
0.0
 11
253.899
 21
31.1326
 31
0.0
  0
LINE
  8
0
 62
     0
 10
253.899
 20
31.1326
 30
0.0
 11
253.075
 21
31.1326
 31
0.0
  0
LINE
  8
0
 62
     0
 10
253.075
 20
31.1326
 30
0.0
 11
253.075
 21
28.3338
 31
0.0
  0
LINE
  8
0
 62
     0
 10
253.075
 20
28.3338
 30
0.0
 11
253.899
 21
28.3338
 31
0.0
  0
LINE
  8
0
 62
     0
 10
253.899
 20
28.3338
 30
0.0
 11
253.899
 21
22.0638
 31
0.0
  0
LINE
  8
0
 62
     0
 10
253.899
 20
22.0638
 30
0.0
 11
255.626
 21
22.0638
 31
0.0
  0
LINE
  8
0
 62
     0
 10
255.626
 20
22.0638
 30
0.0
 11
255.626
 21
20.8635
 31
0.0
  0
LINE
  8
0
 62
     0
 10
255.626
 20
20.8635
 30
0.0
 11
258.925
 21
20.8635
 31
0.0
  0
LINE
  8
0
 62
     0
 10
258.925
 20
20.8635
 30
0.0
 11
258.925
 21
22.0638
 31
0.0
  0
LINE
  8
0
 62
     0
 10
258.925
 20
22.0638
 30
0.0
 11
260.651
 21
22.0638
 31
0.0
  0
LINE
  8
0
 62
     0
 10
260.651
 20
22.0638
 30
0.0
 11
260.651
 21
26.5327
 31
0.0
  0
LINE
  8
0
 62
     0
 10
260.651
 20
26.5327
 30
0.0
 11
262.176
 21
26.5327
 31
0.0
  0
LINE
  8
0
 62
     0
 10
262.176
 20
26.5327
 30
0.0
 11
262.176
 21
21.8336
 31
0.0
  0
LINE
  8
0
 62
     0
 10
262.176
 20
21.8336
 30
0.0
 11
276.175
 21
21.8336
 31
0.0
  0
LINE
  8
0
 62
     0
 10
276.175
 20
21.8336
 30
0.0
 11
276.175
 21
26.5327
 31
0.0
  0
LINE
  8
0
 62
     0
 10
276.175
 20
26.5327
 30
0.0
 11
277.701
 21
26.5327
 31
0.0
  0
LINE
  8
0
 62
     0
 10
277.701
 20
26.5327
 30
0.0
 11
277.701
 21
22.0638
 31
0.0
  0
LINE
  8
0
 62
     0
 10
277.701
 20
22.0638
 30
0.0
 11
279.425
 21
22.0638
 31
0.0
  0
LINE
  8
0
 62
     0
 10
279.425
 20
22.0638
 30
0.0
 11
279.425
 21
20.8635
 31
0.0
  0
LINE
  8
0
 62
     0
 10
279.425
 20
20.8635
 30
0.0
 11
282.725
 21
20.8635
 31
0.0
  0
LINE
  8
0
 62
     0
 10
282.725
 20
20.8635
 30
0.0
 11
282.725
 21
22.0638
 31
0.0
  0
LINE
  8
0
 62
     0
 10
282.725
 20
22.0638
 30
0.0
 11
284.45
 21
22.0638
 31
0.0
  0
LINE
  8
0
 62
     0
 10
284.45
 20
22.0638
 30
0.0
 11
284.45
 21
28.3338
 31
0.0
  0
LINE
  8
0
 62
     0
 10
284.45
 20
28.3338
 30
0.0
 11
285.276
 21
28.3338
 31
0.0
  0
LINE
  8
0
 62
     0
 10
285.276
 20
28.3338
 30
0.0
 11
285.276
 21
31.1326
 31
0.0
  0
LINE
  8
0
 62
     0
 10
285.276
 20
31.1326
 30
0.0
 11
284.45
 21
31.1326
 31
0.0
  0
LINE
  8
0
 62
     0
 10
284.45
 20
31.1326
 30
0.0
 11
284.45
 21
34.3628
 31
0.0
  0
LINE
  8
0
 62
     0
 10
284.45
 20
34.3628
 30
0.0
 11
277.701
 21
34.3628
 31
0.0
  0
LINE
  8
0
 62
     0
 10
277.701
 20
34.3628
 30
0.0
 11
277.701
 21
31.1326
 31
0.0
  0
LINE
  8
0
 62
     0
 10
277.701
 20
31.1326
 30
0.0
 11
276.175
 21
31.1326
 31
0.0
  0
LINE
  8
0
 62
     0
 10
276.175
 20
31.1326
 30
0.0
 11
276.175
 21
35.833
 31
0.0
  0
LINE
  8
0
 62
     0
 10
276.175
 20
35.833
 30
0.0
 11
262.176
 21
35.833
 31
0.0
  0
LINE
  8
0
 62
     0
 10
412.196
 20
35.833
 30
0.0
 11
426.194
 21
35.833
 31
0.0
  0
LINE
  8
0
 62
     0
 10
426.194
 20
35.833
 30
0.0
 11
426.194
 21
21.8336
 31
0.0
  0
LINE
  8
0
 62
     0
 10
426.194
 20
21.8336
 30
0.0
 11
412.196
 21
21.8336
 31
0.0
  0
LINE
  8
0
 62
     0
 10
412.196
 20
21.8336
 30
0.0
 11
412.196
 21
35.833
 31
0.0
  0
LINE
  8
0
 62
     0
 10
393.146
 20
35.833
 30
0.0
 11
407.144
 21
35.833
 31
0.0
  0
LINE
  8
0
 62
     0
 10
407.144
 20
35.833
 30
0.0
 11
407.144
 21
21.8336
 31
0.0
  0
LINE
  8
0
 62
     0
 10
407.144
 20
21.8336
 30
0.0
 11
393.146
 21
21.8336
 31
0.0
  0
LINE
  8
0
 62
     0
 10
393.146
 20
21.8336
 30
0.0
 11
393.146
 21
35.833
 31
0.0
  0
LINE
  8
0
 62
     0
 10
374.096
 20
35.833
 30
0.0
 11
388.094
 21
35.833
 31
0.0
  0
LINE
  8
0
 62
     0
 10
388.094
 20
35.833
 30
0.0
 11
388.094
 21
21.8336
 31
0.0
  0
LINE
  8
0
 62
     0
 10
388.094
 20
21.8336
 30
0.0
 11
374.096
 21
21.8336
 31
0.0
  0
LINE
  8
0
 62
     0
 10
374.096
 20
21.8336
 30
0.0
 11
374.096
 21
35.833
 31
0.0
  0
LINE
  8
0
 62
     0
 10
345.52
 20
35.833
 30
0.0
 11
359.519
 21
35.833
 31
0.0
  0
LINE
  8
0
 62
     0
 10
359.519
 20
35.833
 30
0.0
 11
359.519
 21
21.8336
 31
0.0
  0
LINE
  8
0
 62
     0
 10
359.519
 20
21.8336
 30
0.0
 11
345.52
 21
21.8336
 31
0.0
  0
LINE
  8
0
 62
     0
 10
345.52
 20
21.8336
 30
0.0
 11
345.52
 21
35.833
 31
0.0
  0
LINE
  8
0
 62
     0
 10
326.47
 20
35.833
 30
0.0
 11
340.469
 21
35.833
 31
0.0
  0
LINE
  8
0
 62
     0
 10
340.469
 20
35.833
 30
0.0
 11
340.469
 21
21.8336
 31
0.0
  0
LINE
  8
0
 62
     0
 10
340.469
 20
21.8336
 30
0.0
 11
326.47
 21
21.8336
 31
0.0
  0
LINE
  8
0
 62
     0
 10
326.47
 20
21.8336
 30
0.0
 11
326.47
 21
35.833
 31
0.0
  0
LINE
  8
0
 62
     0
 10
307.42
 20
35.833
 30
0.0
 11
321.419
 21
35.833
 31
0.0
  0
LINE
  8
0
 62
     0
 10
321.419
 20
35.833
 30
0.0
 11
321.419
 21
21.8336
 31
0.0
  0
LINE
  8
0
 62
     0
 10
321.419
 20
21.8336
 30
0.0
 11
307.42
 21
21.8336
 31
0.0
  0
LINE
  8
0
 62
     0
 10
307.42
 20
21.8336
 30
0.0
 11
307.42
 21
35.833
 31
0.0
  0
LINE
  8
0
 62
     0
 10
226.457
 20
35.833
 30
0.0
 11
240.457
 21
35.833
 31
0.0
  0
LINE
  8
0
 62
     0
 10
240.457
 20
35.833
 30
0.0
 11
240.457
 21
21.8336
 31
0.0
  0
LINE
  8
0
 62
     0
 10
240.457
 20
21.8336
 30
0.0
 11
226.457
 21
21.8336
 31
0.0
  0
LINE
  8
0
 62
     0
 10
226.457
 20
21.8336
 30
0.0
 11
226.457
 21
35.833
 31
0.0
  0
LINE
  8
0
 62
     0
 10
207.407
 20
35.833
 30
0.0
 11
221.407
 21
35.833
 31
0.0
  0
LINE
  8
0
 62
     0
 10
221.407
 20
35.833
 30
0.0
 11
221.407
 21
21.8336
 31
0.0
  0
LINE
  8
0
 62
     0
 10
221.407
 20
21.8336
 30
0.0
 11
207.407
 21
21.8336
 31
0.0
  0
LINE
  8
0
 62
     0
 10
207.407
 20
21.8336
 30
0.0
 11
207.407
 21
35.833
 31
0.0
  0
LINE
  8
0
 62
     0
 10
188.357
 20
35.833
 30
0.0
 11
202.357
 21
35.833
 31
0.0
  0
LINE
  8
0
 62
     0
 10
202.357
 20
35.833
 30
0.0
 11
202.357
 21
21.8336
 31
0.0
  0
LINE
  8
0
 62
     0
 10
202.357
 20
21.8336
 30
0.0
 11
188.357
 21
21.8336
 31
0.0
  0
LINE
  8
0
 62
     0
 10
188.357
 20
21.8336
 30
0.0
 11
188.357
 21
35.833
 31
0.0
  0
LINE
  8
0
 62
     0
 10
169.307
 20
35.833
 30
0.0
 11
183.307
 21
35.833
 31
0.0
  0
LINE
  8
0
 62
     0
 10
183.307
 20
35.833
 30
0.0
 11
183.307
 21
21.8336
 31
0.0
  0
LINE
  8
0
 62
     0
 10
183.307
 20
21.8336
 30
0.0
 11
169.307
 21
21.8336
 31
0.0
  0
LINE
  8
0
 62
     0
 10
169.307
 20
21.8336
 30
0.0
 11
169.307
 21
35.833
 31
0.0
  0
LINE
  8
0
 62
     0
 10
150.257
 20
35.833
 30
0.0
 11
164.257
 21
35.833
 31
0.0
  0
LINE
  8
0
 62
     0
 10
164.257
 20
35.833
 30
0.0
 11
164.257
 21
21.8336
 31
0.0
  0
LINE
  8
0
 62
     0
 10
164.257
 20
21.8336
 30
0.0
 11
150.257
 21
21.8336
 31
0.0
  0
LINE
  8
0
 62
     0
 10
150.257
 20
21.8336
 30
0.0
 11
150.257
 21
35.833
 31
0.0
  0
LINE
  8
0
 62
     0
 10
131.207
 20
35.833
 30
0.0
 11
145.207
 21
35.833
 31
0.0
  0
LINE
  8
0
 62
     0
 10
145.207
 20
35.833
 30
0.0
 11
145.207
 21
21.8336
 31
0.0
  0
LINE
  8
0
 62
     0
 10
145.207
 20
21.8336
 30
0.0
 11
131.207
 21
21.8336
 31
0.0
  0
LINE
  8
0
 62
     0
 10
131.207
 20
21.8336
 30
0.0
 11
131.207
 21
35.833
 31
0.0
  0
LINE
  8
0
 62
     0
 10
112.157
 20
35.833
 30
0.0
 11
126.157
 21
35.833
 31
0.0
  0
LINE
  8
0
 62
     0
 10
126.157
 20
35.833
 30
0.0
 11
126.157
 21
21.8336
 31
0.0
  0
LINE
  8
0
 62
     0
 10
126.157
 20
21.8336
 30
0.0
 11
112.157
 21
21.8336
 31
0.0
  0
LINE
  8
0
 62
     0
 10
112.157
 20
21.8336
 30
0.0
 11
112.157
 21
35.833
 31
0.0
  0
LINE
  8
0
 62
     0
 10
93.1072
 20
35.833
 30
0.0
 11
107.107
 21
35.833
 31
0.0
  0
LINE
  8
0
 62
     0
 10
107.107
 20
35.833
 30
0.0
 11
107.107
 21
21.8336
 31
0.0
  0
LINE
  8
0
 62
     0
 10
107.107
 20
21.8336
 30
0.0
 11
93.1072
 21
21.8336
 31
0.0
  0
LINE
  8
0
 62
     0
 10
93.1072
 20
21.8336
 30
0.0
 11
93.1072
 21
35.833
 31
0.0
  0
LINE
  8
0
 62
     0
 10
74.0572
 20
35.833
 30
0.0
 11
88.0565
 21
35.833
 31
0.0
  0
LINE
  8
0
 62
     0
 10
88.0565
 20
35.833
 30
0.0
 11
88.0565
 21
21.8336
 31
0.0
  0
LINE
  8
0
 62
     0
 10
88.0565
 20
21.8336
 30
0.0
 11
74.0572
 21
21.8336
 31
0.0
  0
LINE
  8
0
 62
     0
 10
74.0572
 20
21.8336
 30
0.0
 11
74.0572
 21
35.833
 31
0.0
  0
LINE
  8
0
 62
     0
 10
55.0072
 20
35.833
 30
0.0
 11
69.0065
 21
35.833
 31
0.0
  0
LINE
  8
0
 62
     0
 10
69.0065
 20
35.833
 30
0.0
 11
69.0065
 21
21.8336
 31
0.0
  0
LINE
  8
0
 62
     0
 10
69.0065
 20
21.8336
 30
0.0
 11
55.0072
 21
21.8336
 31
0.0
  0
LINE
  8
0
 62
     0
 10
55.0072
 20
21.8336
 30
0.0
 11
55.0072
 21
35.833
 31
0.0
  0
LINE
  8
0
 62
     0
 10
35.9572
 20
35.833
 30
0.0
 11
49.9565
 21
35.833
 31
0.0
  0
LINE
  8
0
 62
     0
 10
49.9565
 20
35.833
 30
0.0
 11
49.9565
 21
21.8336
 31
0.0
  0
LINE
  8
0
 62
     0
 10
49.9565
 20
21.8336
 30
0.0
 11
35.9572
 21
21.8336
 31
0.0
  0
LINE
  8
0
 62
     0
 10
35.9572
 20
21.8336
 30
0.0
 11
35.9572
 21
35.833
 31
0.0
  0
LINE
  8
0
 62
     0
 10
9.76203
 20
35.833
 30
0.0
 11
23.7629
 21
35.833
 31
0.0
  0
LINE
  8
0
 62
     0
 10
23.7629
 20
35.833
 30
0.0
 11
23.7629
 21
21.8336
 31
0.0
  0
LINE
  8
0
 62
     0
 10
23.7629
 20
21.8336
 30
0.0
 11
9.76203
 21
21.8336
 31
0.0
  0
LINE
  8
0
 62
     0
 10
9.76203
 20
21.8336
 30
0.0
 11
9.76203
 21
35.833
 31
0.0
  0
LINE
  8
0
 62
     0
 10
431.246
 20
54.8831
 30
0.0
 11
445.244
 21
54.8831
 31
0.0
  0
LINE
  8
0
 62
     0
 10
445.244
 20
54.8831
 30
0.0
 11
445.244
 21
40.8838
 31
0.0
  0
LINE
  8
0
 62
     0
 10
445.244
 20
40.8838
 30
0.0
 11
431.246
 21
40.8838
 31
0.0
  0
LINE
  8
0
 62
     0
 10
431.246
 20
40.8838
 30
0.0
 11
431.246
 21
54.8831
 31
0.0
  0
LINE
  8
0
 62
     0
 10
412.196
 20
54.8831
 30
0.0
 11
426.194
 21
54.8831
 31
0.0
  0
LINE
  8
0
 62
     0
 10
426.194
 20
54.8831
 30
0.0
 11
426.194
 21
40.8838
 31
0.0
  0
LINE
  8
0
 62
     0
 10
426.194
 20
40.8838
 30
0.0
 11
412.196
 21
40.8838
 31
0.0
  0
LINE
  8
0
 62
     0
 10
412.196
 20
40.8838
 30
0.0
 11
412.196
 21
54.8831
 31
0.0
  0
LINE
  8
0
 62
     0
 10
393.146
 20
54.8831
 30
0.0
 11
407.144
 21
54.8831
 31
0.0
  0
LINE
  8
0
 62
     0
 10
407.144
 20
54.8831
 30
0.0
 11
407.144
 21
40.8838
 31
0.0
  0
LINE
  8
0
 62
     0
 10
407.144
 20
40.8838
 30
0.0
 11
393.146
 21
40.8838
 31
0.0
  0
LINE
  8
0
 62
     0
 10
393.146
 20
40.8838
 30
0.0
 11
393.146
 21
54.8831
 31
0.0
  0
LINE
  8
0
 62
     0
 10
374.096
 20
54.8831
 30
0.0
 11
388.094
 21
54.8831
 31
0.0
  0
LINE
  8
0
 62
     0
 10
388.094
 20
54.8831
 30
0.0
 11
388.094
 21
40.8838
 31
0.0
  0
LINE
  8
0
 62
     0
 10
388.094
 20
40.8838
 30
0.0
 11
374.096
 21
40.8838
 31
0.0
  0
LINE
  8
0
 62
     0
 10
374.096
 20
40.8838
 30
0.0
 11
374.096
 21
54.8831
 31
0.0
  0
LINE
  8
0
 62
     0
 10
326.47
 20
54.8831
 30
0.0
 11
340.469
 21
54.8831
 31
0.0
  0
LINE
  8
0
 62
     0
 10
340.469
 20
54.8831
 30
0.0
 11
340.469
 21
40.8838
 31
0.0
  0
LINE
  8
0
 62
     0
 10
340.469
 20
40.8838
 30
0.0
 11
326.47
 21
40.8838
 31
0.0
  0
LINE
  8
0
 62
     0
 10
326.47
 20
40.8838
 30
0.0
 11
326.47
 21
54.8831
 31
0.0
  0
LINE
  8
0
 62
     0
 10
255.032
 20
54.8831
 30
0.0
 11
269.032
 21
54.8831
 31
0.0
  0
LINE
  8
0
 62
     0
 10
269.032
 20
54.8831
 30
0.0
 11
269.032
 21
40.8838
 31
0.0
  0
LINE
  8
0
 62
     0
 10
269.032
 20
40.8838
 30
0.0
 11
255.032
 21
40.8838
 31
0.0
  0
LINE
  8
0
 62
     0
 10
255.032
 20
40.8838
 30
0.0
 11
255.032
 21
54.8831
 31
0.0
  0
LINE
  8
0
 62
     0
 10
235.982
 20
54.8831
 30
0.0
 11
249.982
 21
54.8831
 31
0.0
  0
LINE
  8
0
 62
     0
 10
249.982
 20
54.8831
 30
0.0
 11
249.982
 21
40.8838
 31
0.0
  0
LINE
  8
0
 62
     0
 10
249.982
 20
40.8838
 30
0.0
 11
235.982
 21
40.8838
 31
0.0
  0
LINE
  8
0
 62
     0
 10
235.982
 20
40.8838
 30
0.0
 11
235.982
 21
54.8831
 31
0.0
  0
LINE
  8
0
 62
     0
 10
216.932
 20
54.8831
 30
0.0
 11
230.932
 21
54.8831
 31
0.0
  0
LINE
  8
0
 62
     0
 10
230.932
 20
54.8831
 30
0.0
 11
230.932
 21
40.8838
 31
0.0
  0
LINE
  8
0
 62
     0
 10
230.932
 20
40.8838
 30
0.0
 11
216.932
 21
40.8838
 31
0.0
  0
LINE
  8
0
 62
     0
 10
216.932
 20
40.8838
 30
0.0
 11
216.932
 21
54.8831
 31
0.0
  0
LINE
  8
0
 62
     0
 10
197.882
 20
54.8831
 30
0.0
 11
211.882
 21
54.8831
 31
0.0
  0
LINE
  8
0
 62
     0
 10
211.882
 20
54.8831
 30
0.0
 11
211.882
 21
40.8838
 31
0.0
  0
LINE
  8
0
 62
     0
 10
211.882
 20
40.8838
 30
0.0
 11
197.882
 21
40.8838
 31
0.0
  0
LINE
  8
0
 62
     0
 10
197.882
 20
40.8838
 30
0.0
 11
197.882
 21
54.8831
 31
0.0
  0
LINE
  8
0
 62
     0
 10
178.832
 20
54.8831
 30
0.0
 11
192.832
 21
54.8831
 31
0.0
  0
LINE
  8
0
 62
     0
 10
192.832
 20
54.8831
 30
0.0
 11
192.832
 21
40.8838
 31
0.0
  0
LINE
  8
0
 62
     0
 10
192.832
 20
40.8838
 30
0.0
 11
178.832
 21
40.8838
 31
0.0
  0
LINE
  8
0
 62
     0
 10
178.832
 20
40.8838
 30
0.0
 11
178.832
 21
54.8831
 31
0.0
  0
LINE
  8
0
 62
     0
 10
159.782
 20
54.8831
 30
0.0
 11
173.782
 21
54.8831
 31
0.0
  0
LINE
  8
0
 62
     0
 10
173.782
 20
54.8831
 30
0.0
 11
173.782
 21
40.8838
 31
0.0
  0
LINE
  8
0
 62
     0
 10
173.782
 20
40.8838
 30
0.0
 11
159.782
 21
40.8838
 31
0.0
  0
LINE
  8
0
 62
     0
 10
159.782
 20
40.8838
 30
0.0
 11
159.782
 21
54.8831
 31
0.0
  0
LINE
  8
0
 62
     0
 10
140.732
 20
54.8831
 30
0.0
 11
154.732
 21
54.8831
 31
0.0
  0
LINE
  8
0
 62
     0
 10
154.732
 20
54.8831
 30
0.0
 11
154.732
 21
40.8838
 31
0.0
  0
LINE
  8
0
 62
     0
 10
154.732
 20
40.8838
 30
0.0
 11
140.732
 21
40.8838
 31
0.0
  0
LINE
  8
0
 62
     0
 10
140.732
 20
40.8838
 30
0.0
 11
140.732
 21
54.8831
 31
0.0
  0
LINE
  8
0
 62
     0
 10
121.682
 20
54.8831
 30
0.0
 11
135.682
 21
54.8831
 31
0.0
  0
LINE
  8
0
 62
     0
 10
135.682
 20
54.8831
 30
0.0
 11
135.682
 21
40.8838
 31
0.0
  0
LINE
  8
0
 62
     0
 10
135.682
 20
40.8838
 30
0.0
 11
121.682
 21
40.8838
 31
0.0
  0
LINE
  8
0
 62
     0
 10
121.682
 20
40.8838
 30
0.0
 11
121.682
 21
54.8831
 31
0.0
  0
LINE
  8
0
 62
     0
 10
102.632
 20
54.8831
 30
0.0
 11
116.632
 21
54.8831
 31
0.0
  0
LINE
  8
0
 62
     0
 10
116.632
 20
54.8831
 30
0.0
 11
116.632
 21
40.8838
 31
0.0
  0
LINE
  8
0
 62
     0
 10
116.632
 20
40.8838
 30
0.0
 11
102.632
 21
40.8838
 31
0.0
  0
LINE
  8
0
 62
     0
 10
102.632
 20
40.8838
 30
0.0
 11
102.632
 21
54.8831
 31
0.0
  0
LINE
  8
0
 62
     0
 10
83.5822
 20
54.8831
 30
0.0
 11
97.5815
 21
54.8831
 31
0.0
  0
LINE
  8
0
 62
     0
 10
97.5815
 20
54.8831
 30
0.0
 11
97.5815
 21
40.8838
 31
0.0
  0
LINE
  8
0
 62
     0
 10
97.5815
 20
40.8838
 30
0.0
 11
83.5822
 21
40.8838
 31
0.0
  0
LINE
  8
0
 62
     0
 10
83.5822
 20
40.8838
 30
0.0
 11
83.5822
 21
54.8831
 31
0.0
  0
LINE
  8
0
 62
     0
 10
64.5322
 20
54.8831
 30
0.0
 11
78.5315
 21
54.8831
 31
0.0
  0
LINE
  8
0
 62
     0
 10
78.5315
 20
54.8831
 30
0.0
 11
78.5315
 21
40.8838
 31
0.0
  0
LINE
  8
0
 62
     0
 10
78.5315
 20
40.8838
 30
0.0
 11
64.5322
 21
40.8838
 31
0.0
  0
LINE
  8
0
 62
     0
 10
64.5322
 20
40.8838
 30
0.0
 11
64.5322
 21
54.8831
 31
0.0
  0
LINE
  8
0
 62
     0
 10
45.4822
 20
54.8831
 30
0.0
 11
59.4815
 21
54.8831
 31
0.0
  0
LINE
  8
0
 62
     0
 10
59.4815
 20
54.8831
 30
0.0
 11
59.4815
 21
40.8838
 31
0.0
  0
LINE
  8
0
 62
     0
 10
59.4815
 20
40.8838
 30
0.0
 11
45.4822
 21
40.8838
 31
0.0
  0
LINE
  8
0
 62
     0
 10
45.4822
 20
40.8838
 30
0.0
 11
45.4822
 21
54.8831
 31
0.0
  0
LINE
  8
0
 62
     0
 10
26.4322
 20
54.8831
 30
0.0
 11
40.4315
 21
54.8831
 31
0.0
  0
LINE
  8
0
 62
     0
 10
40.4315
 20
54.8831
 30
0.0
 11
40.4315
 21
40.8838
 31
0.0
  0
LINE
  8
0
 62
     0
 10
40.4315
 20
40.8838
 30
0.0
 11
26.4322
 21
40.8838
 31
0.0
  0
LINE
  8
0
 62
     0
 10
26.4322
 20
40.8838
 30
0.0
 11
26.4322
 21
54.8831
 31
0.0
  0
LINE
  8
0
 62
     0
 10
5.00091
 20
54.8831
 30
0.0
 11
19.0004
 21
54.8831
 31
0.0
  0
LINE
  8
0
 62
     0
 10
19.0004
 20
54.8831
 30
0.0
 11
19.0004
 21
40.8838
 31
0.0
  0
LINE
  8
0
 62
     0
 10
19.0004
 20
40.8838
 30
0.0
 11
5.00091
 21
40.8838
 31
0.0
  0
LINE
  8
0
 62
     0
 10
5.00091
 20
40.8838
 30
0.0
 11
5.00091
 21
54.8831
 31
0.0
  0
LINE
  8
0
 62
     0
 10
282.962
 20
73.5087
 30
0.0
 11
282.962
 21
72.6832
 31
0.0
  0
LINE
  8
0
 62
     0
 10
282.962
 20
72.6832
 30
0.0
 11
276.692
 21
72.6832
 31
0.0
  0
LINE
  8
0
 62
     0
 10
276.692
 20
72.6832
 30
0.0
 11
276.692
 21
70.9581
 31
0.0
  0
LINE
  8
0
 62
     0
 10
276.692
 20
70.9581
 30
0.0
 11
275.492
 21
70.9581
 31
0.0
  0
LINE
  8
0
 62
     0
 10
275.492
 20
70.9581
 30
0.0
 11
275.492
 21
67.6589
 31
0.0
  0
LINE
  8
0
 62
     0
 10
275.492
 20
67.6589
 30
0.0
 11
276.692
 21
67.6589
 31
0.0
  0
LINE
  8
0
 62
     0
 10
276.692
 20
67.6589
 30
0.0
 11
276.692
 21
65.9335
 31
0.0
  0
LINE
  8
0
 62
     0
 10
276.692
 20
65.9335
 30
0.0
 11
281.162
 21
65.9335
 31
0.0
  0
LINE
  8
0
 62
     0
 10
281.162
 20
65.9335
 30
0.0
 11
281.162
 21
64.4081
 31
0.0
  0
LINE
  8
0
 62
     0
 10
281.162
 20
64.4081
 30
0.0
 11
276.462
 21
64.4081
 31
0.0
  0
LINE
  8
0
 62
     0
 10
276.462
 20
64.4081
 30
0.0
 11
276.462
 21
50.4088
 31
0.0
  0
LINE
  8
0
 62
     0
 10
276.462
 20
50.4088
 30
0.0
 11
281.162
 21
50.4088
 31
0.0
  0
LINE
  8
0
 62
     0
 10
281.162
 20
50.4088
 30
0.0
 11
281.162
 21
48.883
 31
0.0
  0
LINE
  8
0
 62
     0
 10
281.162
 20
48.883
 30
0.0
 11
276.692
 21
48.883
 31
0.0
  0
LINE
  8
0
 62
     0
 10
276.692
 20
48.883
 30
0.0
 11
276.692
 21
47.1579
 31
0.0
  0
LINE
  8
0
 62
     0
 10
276.692
 20
47.1579
 30
0.0
 11
275.492
 21
47.1579
 31
0.0
  0
LINE
  8
0
 62
     0
 10
275.492
 20
47.1579
 30
0.0
 11
275.492
 21
43.8587
 31
0.0
  0
LINE
  8
0
 62
     0
 10
275.492
 20
43.8587
 30
0.0
 11
276.692
 21
43.8587
 31
0.0
  0
LINE
  8
0
 62
     0
 10
276.692
 20
43.8587
 30
0.0
 11
276.692
 21
42.1337
 31
0.0
  0
LINE
  8
0
 62
     0
 10
276.692
 20
42.1337
 30
0.0
 11
282.962
 21
42.1337
 31
0.0
  0
LINE
  8
0
 62
     0
 10
282.962
 20
42.1337
 30
0.0
 11
282.962
 21
41.3082
 31
0.0
  0
LINE
  8
0
 62
     0
 10
282.962
 20
41.3082
 30
0.0
 11
285.762
 21
41.3082
 31
0.0
  0
LINE
  8
0
 62
     0
 10
285.762
 20
41.3082
 30
0.0
 11
285.762
 21
42.1337
 31
0.0
  0
LINE
  8
0
 62
     0
 10
285.762
 20
42.1337
 30
0.0
 11
288.992
 21
42.1337
 31
0.0
  0
LINE
  8
0
 62
     0
 10
288.992
 20
42.1337
 30
0.0
 11
288.992
 21
48.883
 31
0.0
  0
LINE
  8
0
 62
     0
 10
288.992
 20
48.883
 30
0.0
 11
285.762
 21
48.883
 31
0.0
  0
LINE
  8
0
 62
     0
 10
285.762
 20
48.883
 30
0.0
 11
285.762
 21
50.4088
 31
0.0
  0
LINE
  8
0
 62
     0
 10
285.762
 20
50.4088
 30
0.0
 11
290.463
 21
50.4088
 31
0.0
  0
LINE
  8
0
 62
     0
 10
290.463
 20
50.4088
 30
0.0
 11
290.463
 21
64.4081
 31
0.0
  0
LINE
  8
0
 62
     0
 10
290.463
 20
64.4081
 30
0.0
 11
285.762
 21
64.4081
 31
0.0
  0
LINE
  8
0
 62
     0
 10
285.762
 20
64.4081
 30
0.0
 11
285.762
 21
65.9335
 31
0.0
  0
LINE
  8
0
 62
     0
 10
285.762
 20
65.9335
 30
0.0
 11
288.992
 21
65.9335
 31
0.0
  0
LINE
  8
0
 62
     0
 10
288.992
 20
65.9335
 30
0.0
 11
288.992
 21
72.6832
 31
0.0
  0
LINE
  8
0
 62
     0
 10
288.992
 20
72.6832
 30
0.0
 11
285.762
 21
72.6832
 31
0.0
  0
LINE
  8
0
 62
     0
 10
285.762
 20
72.6832
 30
0.0
 11
285.762
 21
73.5087
 31
0.0
  0
LINE
  8
0
 62
     0
 10
285.762
 20
73.5087
 30
0.0
 11
282.962
 21
73.5087
 31
0.0
  0
LINE
  8
0
 62
     0
 10
12.1447
 20
73.9331
 30
0.0
 11
12.1447
 21
69.2326
 31
0.0
  0
LINE
  8
0
 62
     0
 10
12.1447
 20
69.2326
 30
0.0
 11
10.6192
 21
69.2326
 31
0.0
  0
LINE
  8
0
 62
     0
 10
10.6192
 20
69.2326
 30
0.0
 11
10.6192
 21
72.4627
 31
0.0
  0
LINE
  8
0
 62
     0
 10
10.6192
 20
72.4627
 30
0.0
 11
3.86955
 21
72.4627
 31
0.0
  0
LINE
  8
0
 62
     0
 10
3.86955
 20
72.4627
 30
0.0
 11
3.86955
 21
69.2326
 31
0.0
  0
LINE
  8
0
 62
     0
 10
3.86955
 20
69.2326
 30
0.0
 11
3.04409
 21
69.2326
 31
0.0
  0
LINE
  8
0
 62
     0
 10
3.04409
 20
69.2326
 30
0.0
 11
3.04409
 21
66.4337
 31
0.0
  0
LINE
  8
0
 62
     0
 10
3.04409
 20
66.4337
 30
0.0
 11
3.86955
 21
66.4337
 31
0.0
  0
LINE
  8
0
 62
     0
 10
3.86955
 20
66.4337
 30
0.0
 11
3.86955
 21
60.1638
 31
0.0
  0
LINE
  8
0
 62
     0
 10
3.86955
 20
60.1638
 30
0.0
 11
5.59484
 21
60.1638
 31
0.0
  0
LINE
  8
0
 62
     0
 10
5.59484
 20
60.1638
 30
0.0
 11
5.59484
 21
58.9636
 31
0.0
  0
LINE
  8
0
 62
     0
 10
5.59484
 20
58.9636
 30
0.0
 11
8.89385
 21
58.9636
 31
0.0
  0
LINE
  8
0
 62
     0
 10
8.89385
 20
58.9636
 30
0.0
 11
8.89385
 21
60.1638
 31
0.0
  0
LINE
  8
0
 62
     0
 10
8.89385
 20
60.1638
 30
0.0
 11
10.6192
 21
60.1638
 31
0.0
  0
LINE
  8
0
 62
     0
 10
10.6192
 20
60.1638
 30
0.0
 11
10.6192
 21
64.6328
 31
0.0
  0
LINE
  8
0
 62
     0
 10
10.6192
 20
64.6328
 30
0.0
 11
12.1447
 21
64.6328
 31
0.0
  0
LINE
  8
0
 62
     0
 10
12.1447
 20
64.6328
 30
0.0
 11
12.1447
 21
59.9338
 31
0.0
  0
LINE
  8
0
 62
     0
 10
12.1447
 20
59.9338
 30
0.0
 11
26.1441
 21
59.9338
 31
0.0
  0
LINE
  8
0
 62
     0
 10
26.1441
 20
59.9338
 30
0.0
 11
26.1441
 21
64.6328
 31
0.0
  0
LINE
  8
0
 62
     0
 10
26.1441
 20
64.6328
 30
0.0
 11
27.6696
 21
64.6328
 31
0.0
  0
LINE
  8
0
 62
     0
 10
27.6696
 20
64.6328
 30
0.0
 11
27.6696
 21
60.1638
 31
0.0
  0
LINE
  8
0
 62
     0
 10
27.6696
 20
60.1638
 30
0.0
 11
29.3949
 21
60.1638
 31
0.0
  0
LINE
  8
0
 62
     0
 10
29.3949
 20
60.1638
 30
0.0
 11
29.3949
 21
58.9636
 31
0.0
  0
LINE
  8
0
 62
     0
 10
29.3949
 20
58.9636
 30
0.0
 11
32.694
 21
58.9636
 31
0.0
  0
LINE
  8
0
 62
     0
 10
32.694
 20
58.9636
 30
0.0
 11
32.694
 21
60.1638
 31
0.0
  0
LINE
  8
0
 62
     0
 10
32.694
 20
60.1638
 30
0.0
 11
34.4193
 21
60.1638
 31
0.0
  0
LINE
  8
0
 62
     0
 10
34.4193
 20
60.1638
 30
0.0
 11
34.4193
 21
66.4337
 31
0.0
  0
LINE
  8
0
 62
     0
 10
34.4193
 20
66.4337
 30
0.0
 11
35.2447
 21
66.4337
 31
0.0
  0
LINE
  8
0
 62
     0
 10
35.2447
 20
66.4337
 30
0.0
 11
35.2447
 21
69.2326
 31
0.0
  0
LINE
  8
0
 62
     0
 10
35.2447
 20
69.2326
 30
0.0
 11
34.4193
 21
69.2326
 31
0.0
  0
LINE
  8
0
 62
     0
 10
34.4193
 20
69.2326
 30
0.0
 11
34.4193
 21
72.4627
 31
0.0
  0
LINE
  8
0
 62
     0
 10
34.4193
 20
72.4627
 30
0.0
 11
27.6696
 21
72.4627
 31
0.0
  0
LINE
  8
0
 62
     0
 10
27.6696
 20
72.4627
 30
0.0
 11
27.6696
 21
69.2326
 31
0.0
  0
LINE
  8
0
 62
     0
 10
27.6696
 20
69.2326
 30
0.0
 11
26.1441
 21
69.2326
 31
0.0
  0
LINE
  8
0
 62
     0
 10
26.1441
 20
69.2326
 30
0.0
 11
26.1441
 21
73.9331
 31
0.0
  0
LINE
  8
0
 62
     0
 10
26.1441
 20
73.9331
 30
0.0
 11
12.1447
 21
73.9331
 31
0.0
  0
LINE
  8
0
 62
     0
 10
431.246
 20
73.9331
 30
0.0
 11
445.244
 21
73.9331
 31
0.0
  0
LINE
  8
0
 62
     0
 10
445.244
 20
73.9331
 30
0.0
 11
445.244
 21
59.9338
 31
0.0
  0
LINE
  8
0
 62
     0
 10
445.244
 20
59.9338
 30
0.0
 11
431.246
 21
59.9338
 31
0.0
  0
LINE
  8
0
 62
     0
 10
431.246
 20
59.9338
 30
0.0
 11
431.246
 21
73.9331
 31
0.0
  0
LINE
  8
0
 62
     0
 10
412.196
 20
73.9331
 30
0.0
 11
426.194
 21
73.9331
 31
0.0
  0
LINE
  8
0
 62
     0
 10
426.194
 20
73.9331
 30
0.0
 11
426.194
 21
59.9338
 31
0.0
  0
LINE
  8
0
 62
     0
 10
426.194
 20
59.9338
 30
0.0
 11
412.196
 21
59.9338
 31
0.0
  0
LINE
  8
0
 62
     0
 10
412.196
 20
59.9338
 30
0.0
 11
412.196
 21
73.9331
 31
0.0
  0
LINE
  8
0
 62
     0
 10
393.146
 20
73.9331
 30
0.0
 11
407.144
 21
73.9331
 31
0.0
  0
LINE
  8
0
 62
     0
 10
407.144
 20
73.9331
 30
0.0
 11
407.144
 21
59.9338
 31
0.0
  0
LINE
  8
0
 62
     0
 10
407.144
 20
59.9338
 30
0.0
 11
393.146
 21
59.9338
 31
0.0
  0
LINE
  8
0
 62
     0
 10
393.146
 20
59.9338
 30
0.0
 11
393.146
 21
73.9331
 31
0.0
  0
LINE
  8
0
 62
     0
 10
374.096
 20
73.9331
 30
0.0
 11
388.094
 21
73.9331
 31
0.0
  0
LINE
  8
0
 62
     0
 10
388.094
 20
73.9331
 30
0.0
 11
388.094
 21
59.9338
 31
0.0
  0
LINE
  8
0
 62
     0
 10
388.094
 20
59.9338
 30
0.0
 11
374.096
 21
59.9338
 31
0.0
  0
LINE
  8
0
 62
     0
 10
374.096
 20
59.9338
 30
0.0
 11
374.096
 21
73.9331
 31
0.0
  0
LINE
  8
0
 62
     0
 10
250.27
 20
73.9331
 30
0.0
 11
264.269
 21
73.9331
 31
0.0
  0
LINE
  8
0
 62
     0
 10
264.269
 20
73.9331
 30
0.0
 11
264.269
 21
59.9338
 31
0.0
  0
LINE
  8
0
 62
     0
 10
264.269
 20
59.9338
 30
0.0
 11
250.27
 21
59.9338
 31
0.0
  0
LINE
  8
0
 62
     0
 10
250.27
 20
59.9338
 30
0.0
 11
250.27
 21
73.9331
 31
0.0
  0
LINE
  8
0
 62
     0
 10
231.22
 20
73.9331
 30
0.0
 11
245.219
 21
73.9331
 31
0.0
  0
LINE
  8
0
 62
     0
 10
245.219
 20
73.9331
 30
0.0
 11
245.219
 21
59.9338
 31
0.0
  0
LINE
  8
0
 62
     0
 10
245.219
 20
59.9338
 30
0.0
 11
231.22
 21
59.9338
 31
0.0
  0
LINE
  8
0
 62
     0
 10
231.22
 20
59.9338
 30
0.0
 11
231.22
 21
73.9331
 31
0.0
  0
LINE
  8
0
 62
     0
 10
212.17
 20
73.9331
 30
0.0
 11
226.169
 21
73.9331
 31
0.0
  0
LINE
  8
0
 62
     0
 10
226.169
 20
73.9331
 30
0.0
 11
226.169
 21
59.9338
 31
0.0
  0
LINE
  8
0
 62
     0
 10
226.169
 20
59.9338
 30
0.0
 11
212.17
 21
59.9338
 31
0.0
  0
LINE
  8
0
 62
     0
 10
212.17
 20
59.9338
 30
0.0
 11
212.17
 21
73.9331
 31
0.0
  0
LINE
  8
0
 62
     0
 10
193.12
 20
73.9331
 30
0.0
 11
207.119
 21
73.9331
 31
0.0
  0
LINE
  8
0
 62
     0
 10
207.119
 20
73.9331
 30
0.0
 11
207.119
 21
59.9338
 31
0.0
  0
LINE
  8
0
 62
     0
 10
207.119
 20
59.9338
 30
0.0
 11
193.12
 21
59.9338
 31
0.0
  0
LINE
  8
0
 62
     0
 10
193.12
 20
59.9338
 30
0.0
 11
193.12
 21
73.9331
 31
0.0
  0
LINE
  8
0
 62
     0
 10
174.07
 20
73.9331
 30
0.0
 11
188.069
 21
73.9331
 31
0.0
  0
LINE
  8
0
 62
     0
 10
188.069
 20
73.9331
 30
0.0
 11
188.069
 21
59.9338
 31
0.0
  0
LINE
  8
0
 62
     0
 10
188.069
 20
59.9338
 30
0.0
 11
174.07
 21
59.9338
 31
0.0
  0
LINE
  8
0
 62
     0
 10
174.07
 20
59.9338
 30
0.0
 11
174.07
 21
73.9331
 31
0.0
  0
LINE
  8
0
 62
     0
 10
155.02
 20
73.9331
 30
0.0
 11
169.019
 21
73.9331
 31
0.0
  0
LINE
  8
0
 62
     0
 10
169.019
 20
73.9331
 30
0.0
 11
169.019
 21
59.9338
 31
0.0
  0
LINE
  8
0
 62
     0
 10
169.019
 20
59.9338
 30
0.0
 11
155.02
 21
59.9338
 31
0.0
  0
LINE
  8
0
 62
     0
 10
155.02
 20
59.9338
 30
0.0
 11
155.02
 21
73.9331
 31
0.0
  0
LINE
  8
0
 62
     0
 10
135.97
 20
73.9331
 30
0.0
 11
149.969
 21
73.9331
 31
0.0
  0
LINE
  8
0
 62
     0
 10
149.969
 20
73.9331
 30
0.0
 11
149.969
 21
59.9338
 31
0.0
  0
LINE
  8
0
 62
     0
 10
149.969
 20
59.9338
 30
0.0
 11
135.97
 21
59.9338
 31
0.0
  0
LINE
  8
0
 62
     0
 10
135.97
 20
59.9338
 30
0.0
 11
135.97
 21
73.9331
 31
0.0
  0
LINE
  8
0
 62
     0
 10
116.918
 20
73.9331
 30
0.0
 11
130.919
 21
73.9331
 31
0.0
  0
LINE
  8
0
 62
     0
 10
130.919
 20
73.9331
 30
0.0
 11
130.919
 21
59.9338
 31
0.0
  0
LINE
  8
0
 62
     0
 10
130.919
 20
59.9338
 30
0.0
 11
116.918
 21
59.9338
 31
0.0
  0
LINE
  8
0
 62
     0
 10
116.918
 20
59.9338
 30
0.0
 11
116.918
 21
73.9331
 31
0.0
  0
LINE
  8
0
 62
     0
 10
97.8683
 20
73.9331
 30
0.0
 11
111.869
 21
73.9331
 31
0.0
  0
LINE
  8
0
 62
     0
 10
111.869
 20
73.9331
 30
0.0
 11
111.869
 21
59.9338
 31
0.0
  0
LINE
  8
0
 62
     0
 10
111.869
 20
59.9338
 30
0.0
 11
97.8683
 21
59.9338
 31
0.0
  0
LINE
  8
0
 62
     0
 10
97.8683
 20
59.9338
 30
0.0
 11
97.8683
 21
73.9331
 31
0.0
  0
LINE
  8
0
 62
     0
 10
78.8197
 20
73.9331
 30
0.0
 11
92.819
 21
73.9331
 31
0.0
  0
LINE
  8
0
 62
     0
 10
92.819
 20
73.9331
 30
0.0
 11
92.819
 21
59.9338
 31
0.0
  0
LINE
  8
0
 62
     0
 10
92.819
 20
59.9338
 30
0.0
 11
78.8197
 21
59.9338
 31
0.0
  0
LINE
  8
0
 62
     0
 10
78.8197
 20
59.9338
 30
0.0
 11
78.8197
 21
73.9331
 31
0.0
  0
LINE
  8
0
 62
     0
 10
59.7697
 20
73.9331
 30
0.0
 11
73.769
 21
73.9331
 31
0.0
  0
LINE
  8
0
 62
     0
 10
73.769
 20
73.9331
 30
0.0
 11
73.769
 21
59.9338
 31
0.0
  0
LINE
  8
0
 62
     0
 10
73.769
 20
59.9338
 30
0.0
 11
59.7697
 21
59.9338
 31
0.0
  0
LINE
  8
0
 62
     0
 10
59.7697
 20
59.9338
 30
0.0
 11
59.7697
 21
73.9331
 31
0.0
  0
LINE
  8
0
 62
     0
 10
40.7197
 20
73.9331
 30
0.0
 11
54.719
 21
73.9331
 31
0.0
  0
LINE
  8
0
 62
     0
 10
54.719
 20
73.9331
 30
0.0
 11
54.719
 21
59.9338
 31
0.0
  0
LINE
  8
0
 62
     0
 10
54.719
 20
59.9338
 30
0.0
 11
40.7197
 21
59.9338
 31
0.0
  0
LINE
  8
0
 62
     0
 10
40.7197
 20
59.9338
 30
0.0
 11
40.7197
 21
73.9331
 31
0.0
  0
LINE
  8
0
 62
     0
 10
431.246
 20
92.9831
 30
0.0
 11
445.244
 21
92.9831
 31
0.0
  0
LINE
  8
0
 62
     0
 10
445.244
 20
92.9831
 30
0.0
 11
445.244
 21
78.9838
 31
0.0
  0
LINE
  8
0
 62
     0
 10
445.244
 20
78.9838
 30
0.0
 11
431.246
 21
78.9838
 31
0.0
  0
LINE
  8
0
 62
     0
 10
431.246
 20
78.9838
 30
0.0
 11
431.246
 21
92.9831
 31
0.0
  0
LINE
  8
0
 62
     0
 10
412.196
 20
92.9831
 30
0.0
 11
426.194
 21
92.9831
 31
0.0
  0
LINE
  8
0
 62
     0
 10
426.194
 20
92.9831
 30
0.0
 11
426.194
 21
78.9838
 31
0.0
  0
LINE
  8
0
 62
     0
 10
426.194
 20
78.9838
 30
0.0
 11
412.196
 21
78.9838
 31
0.0
  0
LINE
  8
0
 62
     0
 10
412.196
 20
78.9838
 30
0.0
 11
412.196
 21
92.9831
 31
0.0
  0
LINE
  8
0
 62
     0
 10
393.146
 20
92.9831
 30
0.0
 11
407.144
 21
92.9831
 31
0.0
  0
LINE
  8
0
 62
     0
 10
407.144
 20
92.9831
 30
0.0
 11
407.144
 21
78.9838
 31
0.0
  0
LINE
  8
0
 62
     0
 10
407.144
 20
78.9838
 30
0.0
 11
393.146
 21
78.9838
 31
0.0
  0
LINE
  8
0
 62
     0
 10
393.146
 20
78.9838
 30
0.0
 11
393.146
 21
92.9831
 31
0.0
  0
LINE
  8
0
 62
     0
 10
374.096
 20
92.9831
 30
0.0
 11
388.094
 21
92.9831
 31
0.0
  0
LINE
  8
0
 62
     0
 10
388.094
 20
92.9831
 30
0.0
 11
388.094
 21
78.9838
 31
0.0
  0
LINE
  8
0
 62
     0
 10
388.094
 20
78.9838
 30
0.0
 11
374.096
 21
78.9838
 31
0.0
  0
LINE
  8
0
 62
     0
 10
374.096
 20
78.9838
 30
0.0
 11
374.096
 21
92.9831
 31
0.0
  0
LINE
  8
0
 62
     0
 10
340.757
 20
92.9831
 30
0.0
 11
354.757
 21
92.9831
 31
0.0
  0
LINE
  8
0
 62
     0
 10
354.757
 20
92.9831
 30
0.0
 11
354.757
 21
78.9838
 31
0.0
  0
LINE
  8
0
 62
     0
 10
354.757
 20
78.9838
 30
0.0
 11
340.757
 21
78.9838
 31
0.0
  0
LINE
  8
0
 62
     0
 10
340.757
 20
78.9838
 30
0.0
 11
340.757
 21
92.9831
 31
0.0
  0
LINE
  8
0
 62
     0
 10
312.182
 20
92.9831
 30
0.0
 11
326.182
 21
92.9831
 31
0.0
  0
LINE
  8
0
 62
     0
 10
326.182
 20
92.9831
 30
0.0
 11
326.182
 21
78.9838
 31
0.0
  0
LINE
  8
0
 62
     0
 10
326.182
 20
78.9838
 30
0.0
 11
312.182
 21
78.9838
 31
0.0
  0
LINE
  8
0
 62
     0
 10
312.182
 20
78.9838
 30
0.0
 11
312.182
 21
92.9831
 31
0.0
  0
LINE
  8
0
 62
     0
 10
278.845
 20
92.9831
 30
0.0
 11
292.844
 21
92.9831
 31
0.0
  0
LINE
  8
0
 62
     0
 10
292.844
 20
92.9831
 30
0.0
 11
292.844
 21
78.9838
 31
0.0
  0
LINE
  8
0
 62
     0
 10
292.844
 20
78.9838
 30
0.0
 11
278.845
 21
78.9838
 31
0.0
  0
LINE
  8
0
 62
     0
 10
278.845
 20
78.9838
 30
0.0
 11
278.845
 21
92.9831
 31
0.0
  0
LINE
  8
0
 62
     0
 10
259.795
 20
92.9831
 30
0.0
 11
273.794
 21
92.9831
 31
0.0
  0
LINE
  8
0
 62
     0
 10
273.794
 20
92.9831
 30
0.0
 11
273.794
 21
78.9838
 31
0.0
  0
LINE
  8
0
 62
     0
 10
273.794
 20
78.9838
 30
0.0
 11
259.795
 21
78.9838
 31
0.0
  0
LINE
  8
0
 62
     0
 10
259.795
 20
78.9838
 30
0.0
 11
259.795
 21
92.9831
 31
0.0
  0
LINE
  8
0
 62
     0
 10
240.745
 20
92.9831
 30
0.0
 11
254.744
 21
92.9831
 31
0.0
  0
LINE
  8
0
 62
     0
 10
254.744
 20
92.9831
 30
0.0
 11
254.744
 21
78.9838
 31
0.0
  0
LINE
  8
0
 62
     0
 10
254.744
 20
78.9838
 30
0.0
 11
240.745
 21
78.9838
 31
0.0
  0
LINE
  8
0
 62
     0
 10
240.745
 20
78.9838
 30
0.0
 11
240.745
 21
92.9831
 31
0.0
  0
LINE
  8
0
 62
     0
 10
221.695
 20
92.9831
 30
0.0
 11
235.694
 21
92.9831
 31
0.0
  0
LINE
  8
0
 62
     0
 10
235.694
 20
92.9831
 30
0.0
 11
235.694
 21
78.9838
 31
0.0
  0
LINE
  8
0
 62
     0
 10
235.694
 20
78.9838
 30
0.0
 11
221.695
 21
78.9838
 31
0.0
  0
LINE
  8
0
 62
     0
 10
221.695
 20
78.9838
 30
0.0
 11
221.695
 21
92.9831
 31
0.0
  0
LINE
  8
0
 62
     0
 10
202.645
 20
92.9831
 30
0.0
 11
216.644
 21
92.9831
 31
0.0
  0
LINE
  8
0
 62
     0
 10
216.644
 20
92.9831
 30
0.0
 11
216.644
 21
78.9838
 31
0.0
  0
LINE
  8
0
 62
     0
 10
216.644
 20
78.9838
 30
0.0
 11
202.645
 21
78.9838
 31
0.0
  0
LINE
  8
0
 62
     0
 10
202.645
 20
78.9838
 30
0.0
 11
202.645
 21
92.9831
 31
0.0
  0
LINE
  8
0
 62
     0
 10
183.595
 20
92.9831
 30
0.0
 11
197.594
 21
92.9831
 31
0.0
  0
LINE
  8
0
 62
     0
 10
197.594
 20
92.9831
 30
0.0
 11
197.594
 21
78.9838
 31
0.0
  0
LINE
  8
0
 62
     0
 10
197.594
 20
78.9838
 30
0.0
 11
183.595
 21
78.9838
 31
0.0
  0
LINE
  8
0
 62
     0
 10
183.595
 20
78.9838
 30
0.0
 11
183.595
 21
92.9831
 31
0.0
  0
LINE
  8
0
 62
     0
 10
164.545
 20
92.9831
 30
0.0
 11
178.544
 21
92.9831
 31
0.0
  0
LINE
  8
0
 62
     0
 10
178.544
 20
92.9831
 30
0.0
 11
178.544
 21
78.9838
 31
0.0
  0
LINE
  8
0
 62
     0
 10
178.544
 20
78.9838
 30
0.0
 11
164.545
 21
78.9838
 31
0.0
  0
LINE
  8
0
 62
     0
 10
164.545
 20
78.9838
 30
0.0
 11
164.545
 21
92.9831
 31
0.0
  0
LINE
  8
0
 62
     0
 10
145.495
 20
92.9831
 30
0.0
 11
159.494
 21
92.9831
 31
0.0
  0
LINE
  8
0
 62
     0
 10
159.494
 20
92.9831
 30
0.0
 11
159.494
 21
78.9838
 31
0.0
  0
LINE
  8
0
 62
     0
 10
159.494
 20
78.9838
 30
0.0
 11
145.495
 21
78.9838
 31
0.0
  0
LINE
  8
0
 62
     0
 10
145.495
 20
78.9838
 30
0.0
 11
145.495
 21
92.9831
 31
0.0
  0
LINE
  8
0
 62
     0
 10
126.445
 20
92.9831
 30
0.0
 11
140.444
 21
92.9831
 31
0.0
  0
LINE
  8
0
 62
     0
 10
140.444
 20
92.9831
 30
0.0
 11
140.444
 21
78.9838
 31
0.0
  0
LINE
  8
0
 62
     0
 10
140.444
 20
78.9838
 30
0.0
 11
126.445
 21
78.9838
 31
0.0
  0
LINE
  8
0
 62
     0
 10
126.445
 20
78.9838
 30
0.0
 11
126.445
 21
92.9831
 31
0.0
  0
LINE
  8
0
 62
     0
 10
107.395
 20
92.9831
 30
0.0
 11
121.394
 21
92.9831
 31
0.0
  0
LINE
  8
0
 62
     0
 10
121.394
 20
92.9831
 30
0.0
 11
121.394
 21
78.9838
 31
0.0
  0
LINE
  8
0
 62
     0
 10
121.394
 20
78.9838
 30
0.0
 11
107.395
 21
78.9838
 31
0.0
  0
LINE
  8
0
 62
     0
 10
107.395
 20
78.9838
 30
0.0
 11
107.395
 21
92.9831
 31
0.0
  0
LINE
  8
0
 62
     0
 10
88.3447
 20
92.9831
 30
0.0
 11
102.344
 21
92.9831
 31
0.0
  0
LINE
  8
0
 62
     0
 10
102.344
 20
92.9831
 30
0.0
 11
102.344
 21
78.9838
 31
0.0
  0
LINE
  8
0
 62
     0
 10
102.344
 20
78.9838
 30
0.0
 11
88.3447
 21
78.9838
 31
0.0
  0
LINE
  8
0
 62
     0
 10
88.3447
 20
78.9838
 30
0.0
 11
88.3447
 21
92.9831
 31
0.0
  0
LINE
  8
0
 62
     0
 10
69.2947
 20
92.9831
 30
0.0
 11
83.294
 21
92.9831
 31
0.0
  0
LINE
  8
0
 62
     0
 10
83.294
 20
92.9831
 30
0.0
 11
83.294
 21
78.9838
 31
0.0
  0
LINE
  8
0
 62
     0
 10
83.294
 20
78.9838
 30
0.0
 11
69.2947
 21
78.9838
 31
0.0
  0
LINE
  8
0
 62
     0
 10
69.2947
 20
78.9838
 30
0.0
 11
69.2947
 21
92.9831
 31
0.0
  0
LINE
  8
0
 62
     0
 10
50.2447
 20
92.9831
 30
0.0
 11
64.244
 21
92.9831
 31
0.0
  0
LINE
  8
0
 62
     0
 10
64.244
 20
92.9831
 30
0.0
 11
64.244
 21
78.9838
 31
0.0
  0
LINE
  8
0
 62
     0
 10
64.244
 20
78.9838
 30
0.0
 11
50.2447
 21
78.9838
 31
0.0
  0
LINE
  8
0
 62
     0
 10
50.2447
 20
78.9838
 30
0.0
 11
50.2447
 21
92.9831
 31
0.0
  0
LINE
  8
0
 62
     0
 10
31.1947
 20
92.9831
 30
0.0
 11
45.194
 21
92.9831
 31
0.0
  0
LINE
  8
0
 62
     0
 10
45.194
 20
92.9831
 30
0.0
 11
45.194
 21
78.9838
 31
0.0
  0
LINE
  8
0
 62
     0
 10
45.194
 20
78.9838
 30
0.0
 11
31.1947
 21
78.9838
 31
0.0
  0
LINE
  8
0
 62
     0
 10
31.1947
 20
78.9838
 30
0.0
 11
31.1947
 21
92.9831
 31
0.0
  0
LINE
  8
0
 62
     0
 10
7.38216
 20
92.9831
 30
0.0
 11
21.3817
 21
92.9831
 31
0.0
  0
LINE
  8
0
 62
     0
 10
21.3817
 20
92.9831
 30
0.0
 11
21.3817
 21
78.9838
 31
0.0
  0
LINE
  8
0
 62
     0
 10
21.3817
 20
78.9838
 30
0.0
 11
7.38216
 21
78.9838
 31
0.0
  0
LINE
  8
0
 62
     0
 10
7.38216
 20
78.9838
 30
0.0
 11
7.38216
 21
92.9831
 31
0.0
  0
LINE
  8
0
 62
     0
 10
257.412
 20
121.558
 30
0.0
 11
271.413
 21
121.558
 31
0.0
  0
LINE
  8
0
 62
     0
 10
271.413
 20
121.558
 30
0.0
 11
271.413
 21
107.559
 31
0.0
  0
LINE
  8
0
 62
     0
 10
271.413
 20
107.559
 30
0.0
 11
257.412
 21
107.559
 31
0.0
  0
LINE
  8
0
 62
     0
 10
257.412
 20
107.559
 30
0.0
 11
257.412
 21
121.558
 31
0.0
  0
LINE
  8
0
 62
     0
 10
233.601
 20
121.558
 30
0.0
 11
247.6
 21
121.558
 31
0.0
  0
LINE
  8
0
 62
     0
 10
247.6
 20
121.558
 30
0.0
 11
247.6
 21
107.559
 31
0.0
  0
LINE
  8
0
 62
     0
 10
247.6
 20
107.559
 30
0.0
 11
233.601
 21
107.559
 31
0.0
  0
LINE
  8
0
 62
     0
 10
233.601
 20
107.559
 30
0.0
 11
233.601
 21
121.558
 31
0.0
  0
LINE
  8
0
 62
     0
 10
209.787
 20
121.558
 30
0.0
 11
223.788
 21
121.558
 31
0.0
  0
LINE
  8
0
 62
     0
 10
223.788
 20
121.558
 30
0.0
 11
223.788
 21
107.559
 31
0.0
  0
LINE
  8
0
 62
     0
 10
223.788
 20
107.559
 30
0.0
 11
209.787
 21
107.559
 31
0.0
  0
LINE
  8
0
 62
     0
 10
209.787
 20
107.559
 30
0.0
 11
209.787
 21
121.558
 31
0.0
  0
LINE
  8
0
 62
     0
 10
185.976
 20
121.558
 30
0.0
 11
199.975
 21
121.558
 31
0.0
  0
LINE
  8
0
 62
     0
 10
199.975
 20
121.558
 30
0.0
 11
199.975
 21
107.559
 31
0.0
  0
LINE
  8
0
 62
     0
 10
199.975
 20
107.559
 30
0.0
 11
185.976
 21
107.559
 31
0.0
  0
LINE
  8
0
 62
     0
 10
185.976
 20
107.559
 30
0.0
 11
185.976
 21
121.558
 31
0.0
  0
LINE
  8
0
 62
     0
 10
162.162
 20
121.558
 30
0.0
 11
176.163
 21
121.558
 31
0.0
  0
LINE
  8
0
 62
     0
 10
176.163
 20
121.558
 30
0.0
 11
176.163
 21
107.559
 31
0.0
  0
LINE
  8
0
 62
     0
 10
176.163
 20
107.559
 30
0.0
 11
162.162
 21
107.559
 31
0.0
  0
LINE
  8
0
 62
     0
 10
162.162
 20
107.559
 30
0.0
 11
162.162
 21
121.558
 31
0.0
  0
LINE
  8
0
 62
     0
 10
128.826
 20
121.558
 30
0.0
 11
142.825
 21
121.558
 31
0.0
  0
LINE
  8
0
 62
     0
 10
142.825
 20
121.558
 30
0.0
 11
142.825
 21
107.559
 31
0.0
  0
LINE
  8
0
 62
     0
 10
142.825
 20
107.559
 30
0.0
 11
128.826
 21
107.559
 31
0.0
  0
LINE
  8
0
 62
     0
 10
128.826
 20
107.559
 30
0.0
 11
128.826
 21
121.558
 31
0.0
  0
LINE
  8
0
 62
     0
 10
105.012
 20
121.558
 30
0.0
 11
119.013
 21
121.558
 31
0.0
  0
LINE
  8
0
 62
     0
 10
119.013
 20
121.558
 30
0.0
 11
119.013
 21
107.559
 31
0.0
  0
LINE
  8
0
 62
     0
 10
119.013
 20
107.559
 30
0.0
 11
105.012
 21
107.559
 31
0.0
  0
LINE
  8
0
 62
     0
 10
105.012
 20
107.559
 30
0.0
 11
105.012
 21
121.558
 31
0.0
  0
LINE
  8
0
 62
     0
 10
81.201
 20
121.558
 30
0.0
 11
95.2003
 21
121.558
 31
0.0
  0
LINE
  8
0
 62
     0
 10
95.2003
 20
121.558
 30
0.0
 11
95.2003
 21
107.559
 31
0.0
  0
LINE
  8
0
 62
     0
 10
95.2003
 20
107.559
 30
0.0
 11
81.201
 21
107.559
 31
0.0
  0
LINE
  8
0
 62
     0
 10
81.201
 20
107.559
 30
0.0
 11
81.201
 21
121.558
 31
0.0
  0
LINE
  8
0
 62
     0
 10
57.3871
 20
121.558
 30
0.0
 11
71.3878
 21
121.558
 31
0.0
  0
LINE
  8
0
 62
     0
 10
71.3878
 20
121.558
 30
0.0
 11
71.3878
 21
107.559
 31
0.0
  0
LINE
  8
0
 62
     0
 10
71.3878
 20
107.559
 30
0.0
 11
57.3871
 21
107.559
 31
0.0
  0
LINE
  8
0
 62
     0
 10
57.3871
 20
107.559
 30
0.0
 11
57.3871
 21
121.558
 31
0.0
  0
LINE
  8
0
 62
     0
 10
33.5759
 20
121.558
 30
0.0
 11
47.5753
 21
121.558
 31
0.0
  0
LINE
  8
0
 62
     0
 10
47.5753
 20
121.558
 30
0.0
 11
47.5753
 21
107.559
 31
0.0
  0
LINE
  8
0
 62
     0
 10
47.5753
 20
107.559
 30
0.0
 11
33.5759
 21
107.559
 31
0.0
  0
LINE
  8
0
 62
     0
 10
33.5759
 20
107.559
 30
0.0
 11
33.5759
 21
121.558
 31
0.0
  0
LINE
  8
0
 62
     0
 10
2.61965
 20
121.558
 30
0.0
 11
16.6192
 21
121.558
 31
0.0
  0
LINE
  8
0
 62
     0
 10
16.6192
 20
121.558
 30
0.0
 11
16.6192
 21
107.559
 31
0.0
  0
LINE
  8
0
 62
     0
 10
16.6192
 20
107.559
 30
0.0
 11
2.61965
 21
107.559
 31
0.0
  0
LINE
  8
0
 62
     0
 10
2.61965
 20
107.559
 30
0.0
 11
2.61965
 21
121.558
 31
0.0
  0
ENDSEC
  0
EOF
