<?xml version="1.0" encoding="UTF-8"?>
<!-- Generated by SVGo -->
<svg width="181.452mm" height="29.052mm" viewBox="0.000 0.000 181.452 29.052" xmlns="http://www.w3.org/2000/svg" xmlns:xlink="http://www.w3.org/1999/xlink">
<polygon points="176.452,24.052 5.001,24.052 5.001,5.001 176.452,5.001" style="fill:none;stroke-width:0.050000mm;stroke:black"/>
<polygon points="7.526,7.526 7.526,21.526 21.526,21.526 21.526,21.296 22.401,21.296 22.401,22.276 25.701,22.276 25.701,21.296 27.426,21.296 27.426,16.826 30.201,16.826 30.201,21.296 31.926,21.296 31.926,22.276 35.226,22.276 35.226,21.296 36.951,21.296 36.951,16.826 83.726,16.826 83.726,21.526 97.726,21.526 97.726,16.826 144.501,16.826 144.501,21.296 146.226,21.296 146.226,22.276 149.526,22.276 149.526,21.296 151.251,21.296 151.251,16.826 154.026,16.826 154.026,21.296 155.751,21.296 155.751,22.276 159.051,22.276 159.051,21.296 159.926,21.296 159.926,21.526 173.926,21.526 173.926,7.526 159.926,7.526 159.926,8.996 159.051,8.996 159.051,8.075 155.751,8.075 155.751,8.996 154.026,8.996 154.026,12.226 151.251,12.226 151.251,8.996 149.526,8.996 149.526,8.075 146.226,8.075 146.226,8.996 144.501,8.996 144.501,12.226 97.726,12.226 97.726,7.526 83.726,7.526 83.726,12.226 36.951,12.226 36.951,8.996 35.226,8.996 35.226,8.075 31.926,8.075 31.926,8.996 30.201,8.996 30.201,12.226 27.426,12.226 27.426,8.996 25.701,8.996 25.701,8.075 22.401,8.075 22.401,8.996 21.526,8.996 21.526,7.526" style="fill:none;stroke-width:0.050000mm;stroke:black"/>
</svg>